<?xml version="1.0" encoding="utf-8"?>
<!-- Generator: Adobe Illustrator 20.1.0, SVG Export Plug-In . SVG Version: 6.00 Build 0)  -->
<svg version="1.1" id="back" xmlns="http://www.w3.org/2000/svg" xmlns:xlink="http://www.w3.org/1999/xlink" x="0px" y="0px"
	 viewBox="0 0 1280 1000" style="enable-background:new 0 0 1280 1000;" xml:space="preserve">
<style type="text/css">
	.st0{fill:#B05112;}
	.st1{fill:#632800;}
	.st2{fill:#B79480;}
	.st3{fill:#A38161;}
	.st4{fill:#C5FCFC;}
	.st5{fill:#EDD2C0;}
	.st6{fill:#DDCABA;}
	.st7{fill:#C6B6AB;}
	.st8{fill:#DC9666;}
	.st9{fill:#664938;}
	.st10{fill:#F4BE9A;}
	.st11{fill:#E8D3C8;}
</style>
<g>
	<rect x="627.1" y="172.6" class="st0" width="119" height="300.4"/>
</g>
<g>
	<polygon class="st1" points="518.5,424.7 430.1,424.7 430.1,129.5 518.5,107.4 	"/>
</g>
<polygon class="st2" points="784.8,488.9 708,454.8 708,96.2 784.8,161.3 "/>
<g>
	<rect x="843.6" y="243.6" class="st3" width="123.4" height="198"/>
</g>
<path class="st4" d="M1082,398.3"/>
<path class="st5" d="M380.7,107h137.8c-87.6,22.6-87.6,22.6-87.6,22.6L380.7,107z"/>
<g>
	<rect x="83" y="201.4" class="st6" width="105.3" height="265.6"/>
</g>
<g>
	<rect x="290.5" y="132.7" class="st7" width="90.2" height="317.3"/>
</g>
<g>
	<polygon class="st8" points="430.1,424.7 380.7,424.7 380.7,107.4 430.1,129.5 	"/>
</g>
<rect x="784.8" y="160.7" class="st9" width="84.2" height="272.4"/>
<path class="st10" d="M0,488.9c128.3-92.1,268.5-139.1,268.5-139.1c142.7-58.1,257.3,31.6,257.3,31.6c39,23.9,128,35.9,128,35.9
	s113.4,2.6,152.4-43.6c39-46.2,106.1-74.4,136.6-64.1s52.4,29.1,52.4,29.1s54.9,52.1,102.4,52.1c47.6,0,182.2,98,182.2,98"/>
<polygon class="st11" points="784.8,160.7 869,160.7 708,96.2 "/>
</svg>
