<svg width="1280" height="1000" xmlns="http://www.w3.org/2000/svg">
 <style type="text/css">.st0{fill:#F9E0D7;}
	.st1{fill:#595552;}
	.st2{fill:#CCCCCC;}
	.st3{fill:#ED9F5D;}
	.st4{fill:#87310F;}
	.st5{font-family:'Ravie';}
	.st6{font-size:89px;}
	.st7{fill:#603813;}
	.st8{fill:#F4D592;}
	.st9{fill:#AFADA8;}
	.st10{fill:#FFFFFF;}
	.st11{fill:none;stroke:#FFFFFF;stroke-miterlimit:10;}
	.st12{fill:#F77272;}
	.st13{fill:#FFD4D4;}
	.st14{fill:#44250C;}
	.st15{fill:#935D38;}
	.st16{fill:#EACDB9;}
	.st17{fill:none;stroke:#603813;stroke-miterlimit:10;}
	.st18{fill:#351C0C;}
	.st19{fill:#9B4805;}
	.st20{fill:#E5AD9A;}
	.st21{fill:#492A0F;}
	.st22{fill:#CC816D;}
	.st23{fill:#5B1B1B;}
	.st24{fill:#E54242;}
	.st25{fill:#B22622;}
	.st26{fill:#383838;}
	.st27{fill:#933206;}
	.st28{fill:#0F0202;}
	.st29{fill:#E6E6E6;stroke:#FFFFFF;stroke-width:2;stroke-miterlimit:10;}
	.st30{fill:#C47A05;}
	.st31{fill:#EA9D13;}
	.st32{fill:#43451E;}
	.st33{fill:#54321B;}
	.st34{fill:#D63D1A;}
	.st35{fill:#A32908;}</style>

 <g>
  <title>background</title>
  <rect fill="none" id="canvas_background" height="402" width="582" y="-1" x="-1"/>
 </g>
 <g>
  <title>Layer 1</title>
  <rect id="svg_1" height="419.5" width="1279" class="st0" y="578.4" x="1"/>
  <g id="mid">
   <g id="Road">
    <g id="svg_2">
     <rect id="svg_3" height="70.3" width="1280" class="st1" y="494.7"/>
    </g>
    <g id="svg_4">
     <rect id="svg_5" height="5.7" width="1280" class="st2" y="488.9"/>
    </g>
    <g id="svg_6">
     <rect id="svg_7" height="13.4" width="1280" class="st2" y="565"/>
    </g>
    <path id="svg_8" d="m1,577c68.3,240.8 328.5,420.9 639,420.9s570.6,-180 639,-420.9l-1278,0z" class="st3"/>
   </g>
   <g id="building1">
    <rect id="svg_10" height="29.4" width="133.3" class="st7" y="300.9" x="403.8"/>
    <g id="svg_11">
     <rect id="svg_12" height="163.4" width="139.2" class="st8" y="328.5" x="401.3"/>
    </g>
    <g id="svg_13">
     <rect id="svg_14" height="36.6" width="29.6" class="st9" y="345.9" x="414.7"/>
     <path id="svg_15" d="m443.9,346.4l0,35.6l-28.6,0l0,-35.6l28.6,0m1,-1l-30.6,0l0,37.6l30.6,0l0,-37.6l0,0z" class="st10"/>
    </g>
    <line id="svg_16" y2="347" x2="429.5" y1="381" x1="429.5" class="st11"/>
    <line id="svg_17" y2="359.5" x2="415" y1="359.5" x1="444" class="st11"/>
    <line id="svg_18" y2="370.5" x2="415" y1="370.5" x1="444" class="st11"/>
    <g id="svg_19">
     <rect id="svg_20" height="36.6" width="29.6" class="st9" y="396" x="414.7"/>
     <path id="svg_21" d="m443.9,396.5l0,35.6l-28.6,0l0,-35.6l28.6,0m1,-1l-30.6,0l0,37.6l30.6,0l0,-37.6l0,0z" class="st10"/>
    </g>
    <line id="svg_22" y2="397" x2="429.5" y1="432" x1="429.5" class="st11"/>
    <line id="svg_23" y2="409.5" x2="415" y1="409.5" x1="444" class="st11"/>
    <line id="svg_24" y2="420.5" x2="415" y1="420.5" x1="444" class="st11"/>
    <g id="svg_25">
     <rect id="svg_26" height="36.6" width="29.6" class="st9" y="345.9" x="456.1"/>
     <path id="svg_27" d="m485.2,346.4l0,35.6l-28.6,0l0,-35.6l28.6,0m1,-1l-30.6,0l0,37.6l30.6,0l0,-37.6l0,0z" class="st10"/>
    </g>
    <line id="svg_28" y2="347" x2="470.5" y1="381" x1="470.5" class="st11"/>
    <line id="svg_29" y2="359.5" x2="456" y1="359.5" x1="485" class="st11"/>
    <line id="svg_30" y2="370.5" x2="456" y1="370.5" x1="485" class="st11"/>
    <g id="svg_31">
     <rect id="svg_32" height="36.6" width="29.6" class="st9" y="396" x="456.1"/>
     <path id="svg_33" d="m485.2,396.5l0,35.6l-28.6,0l0,-35.6l28.6,0m1,-1l-30.6,0l0,37.6l30.6,0l0,-37.6l0,0z" class="st10"/>
    </g>
    <line id="svg_34" y2="397" x2="470.5" y1="432" x1="470.5" class="st11"/>
    <line id="svg_35" y2="409.5" x2="456" y1="409.5" x1="485" class="st11"/>
    <line id="svg_36" y2="420.5" x2="456" y1="420.5" x1="485" class="st11"/>
    <g id="svg_37">
     <rect id="svg_38" height="36.6" width="29.6" class="st9" y="345.9" x="497.5"/>
     <path id="svg_39" d="m526.6,346.4l0,35.6l-28.6,0l0,-35.6l28.6,0m1,-1l-30.6,0l0,37.6l30.6,0l0,-37.6l0,0z" class="st10"/>
    </g>
    <line id="svg_40" y2="347" x2="511.5" y1="381" x1="511.5" class="st11"/>
    <line id="svg_41" y2="359.5" x2="498" y1="359.5" x1="527" class="st11"/>
    <line id="svg_42" y2="370.5" x2="498" y1="370.5" x1="527" class="st11"/>
    <g id="svg_43">
     <rect id="svg_44" height="36.6" width="29.6" class="st9" y="396" x="497.5"/>
     <path id="svg_45" d="m526.6,396.5l0,35.6l-28.6,0l0,-35.6l28.6,0m1,-1l-30.6,0l0,37.6l30.6,0l0,-37.6l0,0z" class="st10"/>
    </g>
    <line id="svg_46" y2="397" x2="511.5" y1="432" x1="511.5" class="st11"/>
    <line id="svg_47" y2="409.5" x2="498" y1="409.5" x1="527" class="st11"/>
    <line id="svg_48" y2="420.5" x2="498" y1="420.5" x1="527" class="st11"/>
    <rect id="svg_49" height="36.5" width="5.8" class="st10" y="300.9" x="401.4"/>
    <rect id="svg_50" height="36.5" width="5.8" class="st10" y="300.9" x="534.7"/>
    <g id="svg_51">
     <rect id="svg_52" height="26" width="9.9" class="st8" y="279.2" x="508.8"/>
    </g>
    <rect id="svg_53" height="4.3" width="5.7" y="274.9" x="510.8"/>
    <g id="svg_54">
     <rect id="svg_55" height="36.6" width="29.6" class="st9" y="447.7" x="414.7"/>
     <path id="svg_56" d="m443.9,448.2l0,35.6l-28.6,0l0,-35.6l28.6,0m1,-1l-30.6,0l0,37.6l30.6,0l0,-37.6l0,0z" class="st10"/>
    </g>
    <line id="svg_57" y2="449" x2="429.5" y1="484" x1="429.5" class="st11"/>
    <line id="svg_58" y2="461.5" x2="415" y1="461.5" x1="444" class="st11"/>
    <line id="svg_59" y2="473.5" x2="415" y1="473.5" x1="444" class="st11"/>
    <g id="svg_60">
     <rect id="svg_61" height="36.6" width="29.6" class="st9" y="447.7" x="456.1"/>
     <path id="svg_62" d="m485.2,448.2l0,35.6l-28.6,0l0,-35.6l28.6,0m1,-1l-30.6,0l0,37.6l30.6,0l0,-37.6l0,0z" class="st10"/>
    </g>
    <line id="svg_63" y2="449" x2="470.5" y1="484" x1="470.5" class="st11"/>
    <line id="svg_64" y2="461.5" x2="456" y1="461.5" x1="485" class="st11"/>
    <line id="svg_65" y2="473.5" x2="456" y1="473.5" x1="485" class="st11"/>
    <g id="svg_66">
     <rect id="svg_67" height="36.6" width="29.6" class="st9" y="447.7" x="497.5"/>
     <path id="svg_68" d="m526.6,448.2l0,35.6l-28.6,0l0,-35.6l28.6,0m1,-1l-30.6,0l0,37.6l30.6,0l0,-37.6l0,0z" class="st10"/>
    </g>
    <line id="svg_69" y2="449" x2="511.5" y1="484" x1="511.5" class="st11"/>
    <line id="svg_70" y2="461.5" x2="498" y1="461.5" x1="527" class="st11"/>
    <line id="svg_71" y2="473.5" x2="498" y1="473.5" x1="527" class="st11"/>
    <rect id="svg_72" height="28.7" width="133.3" class="st7" y="303.3" x="78.8"/>
    <g id="svg_73">
     <rect id="svg_74" height="159.7" width="139.2" class="st12" y="330.3" x="76.3"/>
    </g>
    <g id="svg_75">
     <rect id="svg_76" height="35.7" width="29.6" class="st13" y="347.3" x="85.7"/>
     <path id="svg_77" d="m114.9,347.8l0,34.7l-28.7,0l0,-34.7l28.7,0m1,-1l-30.7,0l0,36.7l30.6,0l0,-36.7l0.1,0z" class="st10"/>
    </g>
    <line id="svg_78" y2="348" x2="100.5" y1="382" x1="100.5" class="st11"/>
    <line id="svg_79" y2="360.5" x2="86" y1="360.5" x1="115" class="st11"/>
    <line id="svg_80" y2="371.5" x2="86" y1="371.5" x1="115" class="st11"/>
    <g id="svg_81">
     <rect id="svg_82" height="35.7" width="29.6" class="st13" y="396.3" x="85.7"/>
     <path id="svg_83" d="m114.9,396.8l0,34.7l-28.7,0l0,-34.7l28.7,0m1,-1l-30.7,0l0,36.7l30.6,0l0,-36.7l0.1,0z" class="st10"/>
    </g>
    <line id="svg_84" y2="397" x2="100.5" y1="431" x1="100.5" class="st11"/>
    <line id="svg_85" y2="409.5" x2="86" y1="409.5" x1="115" class="st11"/>
    <line id="svg_86" y2="420.5" x2="86" y1="420.5" x1="115" class="st11"/>
    <g id="svg_87">
     <rect id="svg_88" height="35.7" width="29.6" class="st13" y="347.3" x="127.1"/>
     <path id="svg_89" d="m156.2,347.8l0,34.7l-28.6,0l0,-34.7l28.6,0m1,-1l-30.6,0l0,36.7l30.6,0l0,-36.7l0,0z" class="st10"/>
    </g>
    <line id="svg_90" y2="348" x2="141.5" y1="382" x1="141.5" class="st11"/>
    <line id="svg_91" y2="360.5" x2="127" y1="360.5" x1="156" class="st11"/>
    <line id="svg_92" y2="371.5" x2="127" y1="371.5" x1="156" class="st11"/>
    <g id="svg_93">
     <rect id="svg_94" height="35.7" width="29.6" class="st13" y="396.3" x="127.1"/>
     <path id="svg_95" d="m156.2,396.8l0,34.7l-28.6,0l0,-34.7l28.6,0m1,-1l-30.6,0l0,36.7l30.6,0l0,-36.7l0,0z" class="st10"/>
    </g>
    <line id="svg_96" y2="397" x2="141.5" y1="431" x1="141.5" class="st11"/>
    <line id="svg_97" y2="409.5" x2="127" y1="409.5" x1="156" class="st11"/>
    <line id="svg_98" y2="420.5" x2="127" y1="420.5" x1="156" class="st11"/>
    <g id="svg_99">
     <rect id="svg_100" height="35.7" width="29.6" class="st13" y="347.3" x="168.5"/>
     <path id="svg_101" d="m197.6,347.8l0,34.7l-28.6,0l0,-34.7l28.6,0m1,-1l-30.6,0l0,36.7l30.6,0l0,-36.7l0,0z" class="st10"/>
    </g>
    <line id="svg_102" y2="348" x2="182.5" y1="382" x1="182.5" class="st11"/>
    <line id="svg_103" y2="360.5" x2="169" y1="360.5" x1="198" class="st11"/>
    <line id="svg_104" y2="371.5" x2="169" y1="371.5" x1="198" class="st11"/>
    <g id="svg_105">
     <rect id="svg_106" height="35.7" width="29.6" class="st13" y="396.3" x="168.5"/>
     <path id="svg_107" d="m197.6,396.8l0,34.7l-28.6,0l0,-34.7l28.6,0m1,-1l-30.6,0l0,36.7l30.6,0l0,-36.7l0,0z" class="st10"/>
    </g>
    <line id="svg_108" y2="397" x2="182.5" y1="431" x1="182.5" class="st11"/>
    <line id="svg_109" y2="409.5" x2="169" y1="409.5" x1="198" class="st11"/>
    <line id="svg_110" y2="420.5" x2="169" y1="420.5" x1="198" class="st11"/>
    <rect id="svg_111" height="35.6" width="5.8" class="st10" y="303.3" x="72.4"/>
    <rect id="svg_112" height="35.6" width="5.8" class="st10" y="303.3" x="209.7"/>
    <g id="svg_113">
     <rect id="svg_114" height="25.4" width="9.9" class="st12" y="282.1" x="179.8"/>
    </g>
    <rect id="svg_115" height="4.2" width="5.7" class="st7" y="277.9" x="181.8"/>
    <g id="svg_116">
     <rect id="svg_117" height="35.7" width="29.6" class="st13" y="446.8" x="85.7"/>
     <path id="svg_118" d="m114.9,447.3l0,34.7l-28.7,0l0,-34.7l28.7,0m1,-1l-30.7,0l0,36.7l30.6,0l0,-36.7l0.1,0z" class="st10"/>
    </g>
    <line id="svg_119" y2="448" x2="100.5" y1="482" x1="100.5" class="st11"/>
    <line id="svg_120" y2="460.5" x2="86" y1="460.5" x1="115" class="st11"/>
    <line id="svg_121" y2="471.5" x2="86" y1="471.5" x1="115" class="st11"/>
    <g id="svg_122">
     <rect id="svg_123" height="35.7" width="29.6" class="st13" y="446.8" x="127.1"/>
     <path id="svg_124" d="m156.2,447.3l0,34.7l-28.6,0l0,-34.7l28.6,0m1,-1l-30.6,0l0,36.7l30.6,0l0,-36.7l0,0z" class="st10"/>
    </g>
    <line id="svg_125" y2="448" x2="141.5" y1="482" x1="141.5" class="st11"/>
    <line id="svg_126" y2="460.5" x2="127" y1="460.5" x1="156" class="st11"/>
    <line id="svg_127" y2="471.5" x2="127" y1="471.5" x1="156" class="st11"/>
    <g id="svg_128">
     <rect id="svg_129" height="35.7" width="29.6" class="st13" y="446.8" x="168.5"/>
     <path id="svg_130" d="m197.6,447.3l0,34.7l-28.6,0l0,-34.7l28.6,0m1,-1l-30.6,0l0,36.7l30.6,0l0,-36.7l0,0z" class="st10"/>
    </g>
    <line id="svg_131" y2="448" x2="182.5" y1="482" x1="182.5" class="st11"/>
    <line id="svg_132" y2="460.5" x2="169" y1="460.5" x1="198" class="st11"/>
    <line id="svg_133" y2="471.5" x2="169" y1="471.5" x1="198" class="st11"/>
    <rect id="svg_134" height="28.7" width="133.3" class="st7" y="303.3" x="210.8"/>
    <g id="svg_135">
     <rect id="svg_136" height="159.7" width="139.2" class="st12" y="330.3" x="208.3"/>
    </g>
    <g id="svg_137">
     <rect id="svg_138" height="35.7" width="29.6" class="st13" y="347.3" x="221.7"/>
     <path id="svg_139" d="m250.9,347.8l0,34.7l-28.6,0l0,-34.7l28.6,0m1,-1l-30.6,0l0,36.7l30.6,0l0,-36.7l0,0z" class="st10"/>
    </g>
    <line id="svg_140" y2="348" x2="236.5" y1="382" x1="236.5" class="st11"/>
    <line id="svg_141" y2="360.5" x2="222" y1="360.5" x1="251" class="st11"/>
    <line id="svg_142" y2="371.5" x2="222" y1="371.5" x1="251" class="st11"/>
    <g id="svg_143">
     <rect id="svg_144" height="35.7" width="29.6" class="st13" y="396.3" x="221.7"/>
     <path id="svg_145" d="m250.9,396.8l0,34.7l-28.6,0l0,-34.7l28.6,0m1,-1l-30.6,0l0,36.7l30.6,0l0,-36.7l0,0z" class="st10"/>
    </g>
    <line id="svg_146" y2="397" x2="236.5" y1="431" x1="236.5" class="st11"/>
    <line id="svg_147" y2="409.5" x2="222" y1="409.5" x1="251" class="st11"/>
    <line id="svg_148" y2="420.5" x2="222" y1="420.5" x1="251" class="st11"/>
    <g id="svg_149">
     <rect id="svg_150" height="35.7" width="29.6" class="st13" y="347.3" x="263.1"/>
     <path id="svg_151" d="m292.2,347.8l0,34.7l-28.6,0l0,-34.7l28.6,0m1,-1l-30.6,0l0,36.7l30.6,0l0,-36.7l0,0z" class="st10"/>
    </g>
    <line id="svg_152" y2="348" x2="277.5" y1="382" x1="277.5" class="st11"/>
    <line id="svg_153" y2="360.5" x2="263" y1="360.5" x1="292" class="st11"/>
    <line id="svg_154" y2="371.5" x2="263" y1="371.5" x1="292" class="st11"/>
    <g id="svg_155">
     <rect id="svg_156" height="35.7" width="29.6" class="st13" y="396.3" x="263.1"/>
     <path id="svg_157" d="m292.2,396.8l0,34.7l-28.6,0l0,-34.7l28.6,0m1,-1l-30.6,0l0,36.7l30.6,0l0,-36.7l0,0z" class="st10"/>
    </g>
    <line id="svg_158" y2="397" x2="277.5" y1="431" x1="277.5" class="st11"/>
    <line id="svg_159" y2="409.5" x2="263" y1="409.5" x1="292" class="st11"/>
    <line id="svg_160" y2="420.5" x2="263" y1="420.5" x1="292" class="st11"/>
    <g id="svg_161">
     <rect id="svg_162" height="35.7" width="29.6" class="st13" y="347.3" x="304.5"/>
     <path id="svg_163" d="m333.6,347.8l0,34.7l-28.6,0l0,-34.7l28.6,0m1,-1l-30.6,0l0,36.7l30.6,0l0,-36.7l0,0z" class="st10"/>
    </g>
    <line id="svg_164" y2="348" x2="318.5" y1="382" x1="318.5" class="st11"/>
    <line id="svg_165" y2="360.5" x2="305" y1="360.5" x1="334" class="st11"/>
    <line id="svg_166" y2="371.5" x2="305" y1="371.5" x1="334" class="st11"/>
    <g id="svg_167">
     <rect id="svg_168" height="35.7" width="29.6" class="st13" y="396.3" x="304.5"/>
     <path id="svg_169" d="m333.6,396.8l0,34.7l-28.6,0l0,-34.7l28.6,0m1,-1l-30.6,0l0,36.7l30.6,0l0,-36.7l0,0z" class="st10"/>
    </g>
    <line id="svg_170" y2="397" x2="318.5" y1="431" x1="318.5" class="st11"/>
    <line id="svg_171" y2="409.5" x2="305" y1="409.5" x1="334" class="st11"/>
    <line id="svg_172" y2="420.5" x2="305" y1="420.5" x1="334" class="st11"/>
    <rect id="svg_173" height="35.6" width="5.8" class="st10" y="303.3" x="208.4"/>
    <rect id="svg_174" height="35.6" width="5.8" class="st10" y="303.3" x="341.7"/>
    <g id="svg_175">
     <rect id="svg_176" height="25.4" width="9.9" class="st12" y="282.1" x="315.8"/>
    </g>
    <rect id="svg_177" height="4.2" width="5.7" class="st7" y="277.9" x="317.8"/>
    <g id="svg_178">
     <rect id="svg_179" height="35.7" width="29.6" class="st13" y="446.8" x="221.7"/>
     <path id="svg_180" d="m250.9,447.3l0,34.7l-28.6,0l0,-34.7l28.6,0m1,-1l-30.6,0l0,36.7l30.6,0l0,-36.7l0,0z" class="st10"/>
    </g>
    <line id="svg_181" y2="448" x2="236.5" y1="482" x1="236.5" class="st11"/>
    <line id="svg_182" y2="460.5" x2="222" y1="460.5" x1="251" class="st11"/>
    <line id="svg_183" y2="471.5" x2="222" y1="471.5" x1="251" class="st11"/>
    <g id="svg_184">
     <rect id="svg_185" height="35.7" width="29.6" class="st13" y="446.8" x="263.1"/>
     <path id="svg_186" d="m292.2,447.3l0,34.7l-28.6,0l0,-34.7l28.6,0m1,-1l-30.6,0l0,36.7l30.6,0l0,-36.7l0,0z" class="st10"/>
    </g>
    <line id="svg_187" y2="448" x2="277.5" y1="482" x1="277.5" class="st11"/>
    <line id="svg_188" y2="460.5" x2="263" y1="460.5" x1="292" class="st11"/>
    <line id="svg_189" y2="471.5" x2="263" y1="471.5" x1="292" class="st11"/>
    <g id="svg_190">
     <rect id="svg_191" height="35.7" width="29.6" class="st13" y="446.8" x="304.5"/>
     <path id="svg_192" d="m333.6,447.3l0,34.7l-28.6,0l0,-34.7l28.6,0m1,-1l-30.6,0l0,36.7l30.6,0l0,-36.7l0,0z" class="st10"/>
    </g>
    <line id="svg_193" y2="448" x2="318.5" y1="482" x1="318.5" class="st11"/>
    <line id="svg_194" y2="460.5" x2="305" y1="460.5" x1="334" class="st11"/>
    <line id="svg_195" y2="471.5" x2="305" y1="471.5" x1="334" class="st11"/>
   </g>
   <g id="building_2">
    <rect id="svg_196" height="23" width="150.6" class="st14" y="332.6" x="559.2"/>
    <g id="svg_197">
     <rect id="svg_198" height="104.6" width="157.3" class="st15" y="354.3" x="556.4"/>
    </g>
    <g id="svg_199">
     <rect id="svg_200" height="33.6" width="33.6" class="st16" y="362" x="571.4"/>
     <path id="svg_201" d="m604.6,362.5l0,32.6l-32.6,0l0,-32.6l32.6,0m1,-1l-34.6,0l0,34.6l34.6,0l0,-34.6l0,0z" class="st7"/>
    </g>
    <line id="svg_202" y2="362" x2="588.5" y1="395" x1="588.5" class="st17"/>
    <line id="svg_203" y2="374.5" x2="572" y1="374.5" x1="606" class="st17"/>
    <line id="svg_204" y2="386.5" x2="572" y1="386.5" x1="606" class="st17"/>
    <g id="svg_205">
     <rect id="svg_206" height="33.6" width="33.6" class="st16" y="408.3" x="571.4"/>
     <path id="svg_207" d="m604.6,408.8l0,32.6l-32.6,0l0,-32.6l32.6,0m1,-1l-34.6,0l0,34.6l34.6,0l0,-34.6l0,0z" class="st7"/>
    </g>
    <line id="svg_208" y2="408" x2="588.5" y1="442" x1="588.5" class="st17"/>
    <line id="svg_209" y2="419.5" x2="572" y1="419.5" x1="606" class="st17"/>
    <line id="svg_210" y2="430.5" x2="572" y1="430.5" x1="606" class="st17"/>
    <g id="svg_211">
     <rect id="svg_212" height="33.6" width="33.6" class="st16" y="362" x="618.2"/>
     <path id="svg_213" d="m651.3,362.5l0,32.6l-32.6,0l0,-32.6l32.6,0m1,-1l-34.6,0l0,34.6l34.6,0l0,-34.6l0,0z" class="st7"/>
    </g>
    <line id="svg_214" y2="362" x2="635.5" y1="395" x1="635.5" class="st17"/>
    <line id="svg_215" y2="374.5" x2="617" y1="374.5" x1="651" class="st17"/>
    <line id="svg_216" y2="386.5" x2="617" y1="386.5" x1="651" class="st17"/>
    <g id="svg_217">
     <rect id="svg_218" height="33.6" width="33.6" class="st16" y="408.3" x="618.2"/>
     <path id="svg_219" d="m651.3,408.8l0,32.6l-32.6,0l0,-32.6l32.6,0m1,-1l-34.6,0l0,34.6l34.6,0l0,-34.6l0,0z" class="st7"/>
    </g>
    <line id="svg_220" y2="408" x2="635.5" y1="442" x1="635.5" class="st17"/>
    <line id="svg_221" y2="419.5" x2="617" y1="419.5" x1="651" class="st17"/>
    <line id="svg_222" y2="430.5" x2="617" y1="430.5" x1="651" class="st17"/>
    <g id="svg_223">
     <rect id="svg_224" height="33.6" width="33.6" class="st16" y="362" x="664.9"/>
     <path id="svg_225" d="m698.1,362.5l0,32.6l-32.6,0l0,-32.6l32.6,0m1,-1l-34.6,0l0,34.6l34.6,0l0,-34.6l0,0z" class="st7"/>
    </g>
    <line id="svg_226" y2="362" x2="681.5" y1="395" x1="681.5" class="st17"/>
    <line id="svg_227" y2="374.5" x2="665" y1="374.5" x1="699" class="st17"/>
    <line id="svg_228" y2="386.5" x2="665" y1="386.5" x1="699" class="st17"/>
    <g id="svg_229">
     <rect id="svg_230" height="33.6" width="33.6" class="st16" y="408.3" x="664.9"/>
     <path id="svg_231" d="m698.1,408.8l0,32.6l-32.6,0l0,-32.6l32.6,0m1,-1l-34.6,0l0,34.6l34.6,0l0,-34.6l0,0z" class="st7"/>
    </g>
    <line id="svg_232" y2="409" x2="681.5" y1="442" x1="681.5" class="st17"/>
    <line id="svg_233" y2="419.5" x2="665" y1="419.5" x1="699" class="st17"/>
    <line id="svg_234" y2="430.5" x2="665" y1="430.5" x1="699" class="st17"/>
    <rect id="svg_235" height="28.5" width="6.5" class="st2" y="332.6" x="556.4"/>
    <rect id="svg_236" height="28.5" width="6.5" class="st2" y="332.6" x="707.1"/>
    <g id="svg_237">
     <rect id="svg_238" height="20.3" width="11.2" class="st15" y="319.3" x="675.3"/>
    </g>
    <rect id="svg_239" height="33" width="157.2" class="st18" y="458.9" x="556.4"/>
    <rect id="svg_240" height="3.3" width="6.4" class="st7" y="315.9" x="677.5"/>
   </g>
   <g id="building_3">
    <rect id="svg_241" height="28.7" width="133.3" class="st19" y="188.3" x="1012.8"/>
    <g id="svg_242">
     <rect id="svg_243" height="273.9" width="139.2" class="st20" y="215.3" x="1010.3"/>
    </g>
    <g id="svg_244">
     <rect id="svg_245" height="35.7" width="29.6" class="st9" y="232.3" x="1023.7"/>
     <path id="svg_246" d="m1052.9,232.8l0,34.7l-28.6,0l0,-34.7l28.6,0m1,-1l-30.6,0l0,36.7l30.6,0l0,-36.7l0,0z" class="st10"/>
    </g>
    <line id="svg_247" y2="233" x2="1038.5" y1="267" x1="1038.5" class="st11"/>
    <line id="svg_248" y2="245.5" x2="1024" y1="245.5" x1="1053" class="st11"/>
    <line id="svg_249" y2="256.5" x2="1024" y1="256.5" x1="1053" class="st11"/>
    <g id="svg_250">
     <rect id="svg_251" height="35.7" width="29.6" class="st9" y="281.3" x="1023.7"/>
     <path id="svg_252" d="m1052.9,281.8l0,34.7l-28.6,0l0,-34.7l28.6,0m1,-1l-30.6,0l0,36.7l30.6,0l0,-36.7l0,0z" class="st10"/>
    </g>
    <line id="svg_253" y2="282" x2="1038.5" y1="316" x1="1038.5" class="st11"/>
    <line id="svg_254" y2="294.5" x2="1024" y1="294.5" x1="1053" class="st11"/>
    <line id="svg_255" y2="305.5" x2="1024" y1="305.5" x1="1053" class="st11"/>
    <g id="svg_256">
     <rect id="svg_257" height="35.7" width="29.6" class="st9" y="232.3" x="1065.1"/>
     <path id="svg_258" d="m1094.2,232.8l0,34.7l-28.6,0l0,-34.7l28.6,0m1,-1l-30.6,0l0,36.7l30.6,0l0,-36.7l0,0z" class="st10"/>
    </g>
    <line id="svg_259" y2="233" x2="1079.5" y1="267" x1="1079.5" class="st11"/>
    <line id="svg_260" y2="245.5" x2="1065" y1="245.5" x1="1094" class="st11"/>
    <line id="svg_261" y2="256.5" x2="1065" y1="256.5" x1="1094" class="st11"/>
    <g id="svg_262">
     <rect id="svg_263" height="35.7" width="29.6" class="st9" y="281.3" x="1065.1"/>
     <path id="svg_264" d="m1094.2,281.8l0,34.7l-28.6,0l0,-34.7l28.6,0m1,-1l-30.6,0l0,36.7l30.6,0l0,-36.7l0,0z" class="st10"/>
    </g>
    <line id="svg_265" y2="282" x2="1079.5" y1="316" x1="1079.5" class="st11"/>
    <line id="svg_266" y2="294.5" x2="1065" y1="294.5" x1="1094" class="st11"/>
    <line id="svg_267" y2="305.5" x2="1065" y1="305.5" x1="1094" class="st11"/>
    <g id="svg_268">
     <rect id="svg_269" height="35.7" width="29.6" class="st9" y="232.3" x="1106.5"/>
     <path id="svg_270" d="m1135.6,232.8l0,34.7l-28.6,0l0,-34.7l28.6,0m1,-1l-30.6,0l0,36.7l30.6,0l0,-36.7l0,0z" class="st10"/>
    </g>
    <line id="svg_271" y2="233" x2="1120.5" y1="267" x1="1120.5" class="st11"/>
    <line id="svg_272" y2="245.5" x2="1107" y1="245.5" x1="1136" class="st11"/>
    <line id="svg_273" y2="256.5" x2="1107" y1="256.5" x1="1136" class="st11"/>
    <g id="svg_274">
     <rect id="svg_275" height="35.7" width="29.6" class="st9" y="281.3" x="1106.5"/>
     <path id="svg_276" d="m1135.6,281.8l0,34.7l-28.6,0l0,-34.7l28.6,0m1,-1l-30.6,0l0,36.7l30.6,0l0,-36.7l0,0z" class="st10"/>
    </g>
    <line id="svg_277" y2="282" x2="1120.5" y1="316" x1="1120.5" class="st11"/>
    <line id="svg_278" y2="294.5" x2="1107" y1="294.5" x1="1136" class="st11"/>
    <line id="svg_279" y2="305.5" x2="1107" y1="305.5" x1="1136" class="st11"/>
    <rect id="svg_280" height="35.6" width="5.8" class="st10" y="188.3" x="1010.4"/>
    <rect id="svg_281" height="35.6" width="5.8" class="st10" y="188.3" x="1143.7"/>
    <g id="svg_282">
     <rect id="svg_283" height="25.4" width="9.9" class="st20" y="167.1" x="1117.8"/>
    </g>
    <rect id="svg_284" height="4.2" width="5.7" class="st7" y="162.9" x="1119.8"/>
    <g id="svg_285">
     <rect id="svg_286" height="35.7" width="29.6" class="st9" y="331.8" x="1023.7"/>
     <path id="svg_287" d="m1052.9,332.3l0,34.7l-28.6,0l0,-34.7l28.6,0m1,-1l-30.6,0l0,36.7l30.6,0l0,-36.7l0,0z" class="st10"/>
    </g>
    <line id="svg_288" y2="333" x2="1038.5" y1="367" x1="1038.5" class="st11"/>
    <line id="svg_289" y2="345.5" x2="1024" y1="345.5" x1="1053" class="st11"/>
    <line id="svg_290" y2="356.5" x2="1024" y1="356.5" x1="1053" class="st11"/>
    <g id="svg_291">
     <rect id="svg_292" height="35.7" width="29.6" class="st9" y="331.8" x="1065.1"/>
     <path id="svg_293" d="m1094.2,332.3l0,34.7l-28.6,0l0,-34.7l28.6,0m1,-1l-30.6,0l0,36.7l30.6,0l0,-36.7l0,0z" class="st10"/>
    </g>
    <line id="svg_294" y2="333" x2="1079.5" y1="367" x1="1079.5" class="st11"/>
    <line id="svg_295" y2="345.5" x2="1065" y1="345.5" x1="1094" class="st11"/>
    <line id="svg_296" y2="356.5" x2="1065" y1="356.5" x1="1094" class="st11"/>
    <g id="svg_297">
     <rect id="svg_298" height="35.7" width="29.6" class="st9" y="331.8" x="1106.5"/>
     <path id="svg_299" d="m1135.6,332.3l0,34.7l-28.6,0l0,-34.7l28.6,0m1,-1l-30.6,0l0,36.7l30.6,0l0,-36.7l0,0z" class="st10"/>
    </g>
    <line id="svg_300" y2="333" x2="1120.5" y1="367" x1="1120.5" class="st11"/>
    <line id="svg_301" y2="345.5" x2="1107" y1="345.5" x1="1136" class="st11"/>
    <line id="svg_302" y2="356.5" x2="1107" y1="356.5" x1="1136" class="st11"/>
    <g id="svg_303">
     <rect id="svg_304" height="35.7" width="29.6" class="st9" y="381.3" x="1023.7"/>
     <path id="svg_305" d="m1052.9,381.8l0,34.7l-28.6,0l0,-34.7l28.6,0m1,-1l-30.6,0l0,36.7l30.6,0l0,-36.7l0,0z" class="st10"/>
    </g>
    <line id="svg_306" y2="382" x2="1038.5" y1="416" x1="1038.5" class="st11"/>
    <line id="svg_307" y2="394.5" x2="1024" y1="394.5" x1="1053" class="st11"/>
    <line id="svg_308" y2="405.5" x2="1024" y1="405.5" x1="1053" class="st11"/>
    <g id="svg_309">
     <rect id="svg_310" height="35.7" width="29.6" class="st9" y="381.3" x="1065.1"/>
     <path id="svg_311" d="m1094.2,381.8l0,34.7l-28.6,0l0,-34.7l28.6,0m1,-1l-30.6,0l0,36.7l30.6,0l0,-36.7l0,0z" class="st10"/>
    </g>
    <line id="svg_312" y2="382" x2="1079.5" y1="416" x1="1079.5" class="st11"/>
    <line id="svg_313" y2="394.5" x2="1065" y1="394.5" x1="1094" class="st11"/>
    <line id="svg_314" y2="405.5" x2="1065" y1="405.5" x1="1094" class="st11"/>
    <g id="svg_315">
     <rect id="svg_316" height="35.7" width="29.6" class="st9" y="381.3" x="1106.5"/>
     <path id="svg_317" d="m1135.6,381.8l0,34.7l-28.6,0l0,-34.7l28.6,0m1,-1l-30.6,0l0,36.7l30.6,0l0,-36.7l0,0z" class="st10"/>
    </g>
    <line id="svg_318" y2="382" x2="1120.5" y1="416" x1="1120.5" class="st11"/>
    <line id="svg_319" y2="394.5" x2="1107" y1="394.5" x1="1136" class="st11"/>
    <line id="svg_320" y2="405.5" x2="1107" y1="405.5" x1="1136" class="st11"/>
    <g id="svg_321">
     <rect id="svg_322" height="35.7" width="29.6" class="st9" y="431.8" x="1023.7"/>
     <path id="svg_323" d="m1052.9,432.3l0,34.7l-28.6,0l0,-34.7l28.6,0m1,-1l-30.6,0l0,36.7l30.6,0l0,-36.7l0,0z" class="st10"/>
    </g>
    <line id="svg_324" y2="433" x2="1038.5" y1="467" x1="1038.5" class="st11"/>
    <line id="svg_325" y2="445.5" x2="1024" y1="445.5" x1="1053" class="st11"/>
    <line id="svg_326" y2="456.5" x2="1024" y1="456.5" x1="1053" class="st11"/>
    <g id="svg_327">
     <rect id="svg_328" height="35.7" width="29.6" class="st9" y="431.8" x="1065.1"/>
     <path id="svg_329" d="m1094.2,432.3l0,34.7l-28.6,0l0,-34.7l28.6,0m1,-1l-30.6,0l0,36.7l30.6,0l0,-36.7l0,0z" class="st10"/>
    </g>
    <line id="svg_330" y2="433" x2="1079.5" y1="467" x1="1079.5" class="st11"/>
    <line id="svg_331" y2="445.5" x2="1065" y1="445.5" x1="1094" class="st11"/>
    <line id="svg_332" y2="456.5" x2="1065" y1="456.5" x1="1094" class="st11"/>
    <g id="svg_333">
     <rect id="svg_334" height="35.7" width="29.6" class="st9" y="431.8" x="1106.5"/>
     <path id="svg_335" d="m1135.6,432.3l0,34.7l-28.6,0l0,-34.7l28.6,0m1,-1l-30.6,0l0,36.7l30.6,0l0,-36.7l0,0z" class="st10"/>
    </g>
    <line id="svg_336" y2="433" x2="1120.5" y1="467" x1="1120.5" class="st11"/>
    <line id="svg_337" y2="445.5" x2="1107" y1="445.5" x1="1136" class="st11"/>
    <line id="svg_338" y2="456.5" x2="1107" y1="456.5" x1="1136" class="st11"/>
   </g>
   <g id="building_4">
    <rect id="svg_339" height="36.9" width="62.1" class="st21" y="246.3" x="1149.5"/>
    <g id="svg_340">
     <rect id="svg_341" height="205.5" width="64.8" class="st22" y="282.3" x="1149.3"/>
    </g>
    <g id="svg_342">
     <rect id="svg_343" height="46.2" width="16.6" class="st9" y="302.7" x="1159.2"/>
     <path id="svg_344" d="m1175.3,303.2l0,45.2l-15.6,0l0,-45.2l15.6,0m1,-1l-17.6,0l0,47.2l17.6,0l0,-47.2l0,0z" class="st10"/>
    </g>
    <line id="svg_345" y2="304" x2="1167.5" y1="348" x1="1167.5" class="st11"/>
    <line id="svg_346" y2="319.5" x2="1159" y1="319.5" x1="1176" class="st11"/>
    <line id="svg_347" y2="334.5" x2="1159" y1="334.5" x1="1176" class="st11"/>
    <g id="svg_348">
     <rect id="svg_349" height="46.2" width="16.6" class="st9" y="365.8" x="1159.2"/>
     <path id="svg_350" d="m1175.3,366.3l0,45.2l-15.6,0l0,-45.2l15.6,0m1,-1l-17.6,0l0,47.2l17.6,0l0,-47.2l0,0z" class="st10"/>
    </g>
    <line id="svg_351" y2="367" x2="1167.5" y1="411" x1="1167.5" class="st11"/>
    <line id="svg_352" y2="382.5" x2="1159" y1="382.5" x1="1176" class="st11"/>
    <line id="svg_353" y2="397.5" x2="1159" y1="397.5" x1="1176" class="st11"/>
    <g id="svg_354">
     <rect id="svg_355" height="46.2" width="16.6" class="st9" y="302.7" x="1189.3"/>
     <path id="svg_356" d="m1205.4,303.2l0,45.2l-15.6,0l0,-45.2l15.6,0m1,-1l-17.6,0l0,47.2l17.6,0l0,-47.2l0,0z" class="st10"/>
    </g>
    <line id="svg_357" y2="304" x2="1196.5" y1="348" x1="1196.5" class="st11"/>
    <line id="svg_358" y2="319.5" x2="1189" y1="319.5" x1="1205" class="st11"/>
    <line id="svg_359" y2="334.5" x2="1189" y1="334.5" x1="1205" class="st11"/>
    <g id="svg_360">
     <rect id="svg_361" height="46.2" width="16.6" class="st9" y="365.8" x="1189.3"/>
     <path id="svg_362" d="m1205.4,366.3l0,45.2l-15.6,0l0,-45.2l15.6,0m1,-1l-17.6,0l0,47.2l17.6,0l0,-47.2l0,0z" class="st10"/>
    </g>
    <line id="svg_363" y2="367" x2="1196.5" y1="411" x1="1196.5" class="st11"/>
    <line id="svg_364" y2="382.5" x2="1189" y1="382.5" x1="1205" class="st11"/>
    <line id="svg_365" y2="397.5" x2="1189" y1="397.5" x1="1205" class="st11"/>
    <rect id="svg_366" height="39.8" width="4.2" class="st10" y="245.6" x="1149.3"/>
    <rect id="svg_367" height="39.8" width="4.7" class="st10" y="245.5" x="1209.4"/>
    <g id="svg_368">
     <rect id="svg_369" height="16.3" width="5.6" class="st22" y="236.6" x="1199.6"/>
    </g>
    <rect id="svg_370" height="2.7" width="3.2" class="st21" y="233.9" x="1200.7"/>
    <g id="svg_371">
     <rect id="svg_372" height="46.2" width="16.6" class="st9" y="430.8" x="1159.2"/>
     <path id="svg_373" d="m1175.3,431.3l0,45.2l-15.6,0l0,-45.2l15.6,0m1,-1l-17.6,0l0,47.2l17.6,0l0,-47.2l0,0z" class="st10"/>
    </g>
    <line id="svg_374" y2="432" x2="1167.5" y1="476" x1="1167.5" class="st11"/>
    <line id="svg_375" y2="448.5" x2="1159" y1="448.5" x1="1176" class="st11"/>
    <line id="svg_376" y2="462.5" x2="1159" y1="462.5" x1="1176" class="st11"/>
    <g id="svg_377">
     <rect id="svg_378" height="46.2" width="16.6" class="st9" y="430.8" x="1189.3"/>
     <path id="svg_379" d="m1205.4,431.3l0,45.2l-15.6,0l0,-45.2l15.6,0m1,-1l-17.6,0l0,47.2l17.6,0l0,-47.2l0,0z" class="st10"/>
    </g>
    <line id="svg_380" y2="432" x2="1196.5" y1="476" x1="1196.5" class="st11"/>
    <line id="svg_381" y2="448.5" x2="1189" y1="448.5" x1="1205" class="st11"/>
    <line id="svg_382" y2="462.5" x2="1189" y1="462.5" x1="1205" class="st11"/>
   </g>
   <g stroke="null" id="building_4_1_">
    <rect stroke="null" id="svg_383" height="29.4" width="133.3" class="st23" y="379.9" x="801.8"/>
    <g stroke="null" id="svg_384">
     <rect stroke="null" id="svg_385" height="65.8" width="139.2" class="st24" y="407.5" x="799.3"/>
    </g>
    <g stroke="null" id="svg_386">
     <rect stroke="null" id="svg_387" height="36.6" width="29.6" class="st9" y="424.9" x="812.7"/>
     <path stroke="null" id="svg_388" d="m841.9,425.4l0,35.6l-28.6,0l0,-35.6l28.6,0m1,-1l-30.6,0l0,37.6l30.6,0l0,-37.6l0,0z" class="st10"/>
    </g>
    <line stroke="null" id="svg_389" y2="426" x2="827.5" y1="460" x1="827.5" class="st11"/>
    <line stroke="null" id="svg_390" y2="438.5" x2="813" y1="438.5" x1="842" class="st11"/>
    <line stroke="null" id="svg_391" y2="449.5" x2="813" y1="449.5" x1="842" class="st11"/>
    <g stroke="null" id="svg_392">
     <rect stroke="null" id="svg_393" height="36.6" width="29.6" class="st9" y="424.9" x="854.1"/>
     <path stroke="null" id="svg_394" d="m883.2,425.4l0,35.6l-28.6,0l0,-35.6l28.6,0m1,-1l-30.6,0l0,37.6l30.6,0l0,-37.6l0,0z" class="st10"/>
    </g>
    <line stroke="null" id="svg_395" y2="426" x2="868.5" y1="460" x1="868.5" class="st11"/>
    <line stroke="null" id="svg_396" y2="438.5" x2="854" y1="438.5" x1="883" class="st11"/>
    <line stroke="null" id="svg_397" y2="449.5" x2="854" y1="449.5" x1="883" class="st11"/>
    <g stroke="null" id="svg_398">
     <rect stroke="null" id="svg_399" height="36.6" width="29.6" class="st9" y="424.9" x="895.5"/>
     <path stroke="null" id="svg_400" d="m924.6,425.4l0,35.6l-28.6,0l0,-35.6l28.6,0m1,-1l-30.6,0l0,37.6l30.6,0l0,-37.6l0,0z" class="st10"/>
    </g>
    <line stroke="null" id="svg_401" y2="426" x2="909.5" y1="460" x1="909.5" class="st11"/>
    <line stroke="null" id="svg_402" y2="438.5" x2="896" y1="438.5" x1="925" class="st11"/>
    <line stroke="null" id="svg_403" y2="449.5" x2="896" y1="449.5" x1="925" class="st11"/>
    <rect stroke="null" id="svg_404" height="36.5" width="5.8" class="st10" y="379.9" x="799.4"/>
    <rect stroke="null" id="svg_405" height="36.5" width="5.8" class="st10" y="379.9" x="932.7"/>
    <g stroke="null" id="svg_406">
     <rect stroke="null" id="svg_407" height="26" width="9.9" class="st24" y="358.2" x="906.8"/>
    </g>
    <rect stroke="null" id="svg_408" height="4.3" width="5.7" y="353.9" x="908.8"/>
    <rect stroke="null" id="svg_409" height="15.1" width="139.5" class="st23" y="473.3" x="799.3"/>
   </g>
   <g id="cars">
    <path id="svg_410" d="m259,545l135,0c0,0 6.6,-8 0,-20l-30,0l-16.5,-22l-51.5,0l-22.2,21l-18.8,0l0,21" class="st25"/>
    <polygon id="svg_411" points="347.5,503 343.7,508.2 357.4,527.7 364,525   " class="st10"/>
    <circle id="svg_412" r="12.5" cy="544.6" cx="301.4" class="st26"/>
    <circle id="svg_413" r="12.5" cy="544.6" cx="354.7" class="st26"/>
    <polygon id="svg_414" points="295,503 299.6,507.4 280.1,525.5 272.8,524   " class="st10"/>
    <polygon id="svg_415" points="300.6,507.4 321.8,507.8 343.7,508.2 347.5,503 296,503   " class="st27"/>
    <path id="svg_416" d="m321,525.5l0.4,-17.7l22.1,0.4l13.9,19.5l-9.8,6.6c0,0 -6,2.1 -5.7,10.2l-20.9,0.5l0,-19.5z" class="st27"/>
    <rect id="svg_417" height="2" width="5" class="st28" y="526" x="323"/>
    <path id="svg_418" d="m326,524l22,0l-6.9,-12.9c0,0 -6.8,-5.5 -15.1,0l0,12.9z" class="st10"/>
    <ellipse id="svg_419" ry="6.1" rx="6.1" cy="545" cx="301.5" class="st29" transform="matrix(0.1594,-0.9872,0.9872,0.1594,-284.6076,755.7101) "/>
    <ellipse id="svg_420" ry="6.1" rx="6.1" cy="544.6" cx="354.7" class="st29" transform="matrix(0.8881,-0.4596,0.4596,0.8881,-210.6154,223.9476) "/>
    <path id="svg_421" d="m298.5,507.6l-20.5,17.9l0,19.5l9.9,0.6c0,0 0.2,-14.6 13,-13.5s12.7,12.5 12.7,12.5l8.3,0.4l-0.5,-37.2l-22.9,-0.2z" class="st27"/>
    <path id="svg_422" d="m316,524l-24.9,0l10.1,-12.1c0,0 7.8,-7.7 14.8,0l0,12.1z" class="st10"/>
    <path id="svg_423" d="m811,502l135,0c0,0 6.6,-8 0,-20l-30,0l-16.5,-22l-51.5,0l-22.2,21l-18.8,0l0,21" class="st30"/>
    <polygon id="svg_424" points="899.5,460 895.7,465.2 909.4,484.7 916,482   " class="st10"/>
    <circle id="svg_425" r="12.5" cy="501.6" cx="853.4" class="st26"/>
    <circle id="svg_426" r="12.5" cy="501.6" cx="906.7" class="st26"/>
    <polygon id="svg_427" points="847,460 851.6,464.4 832.1,482.5 824.8,481   " class="st10"/>
    <polygon id="svg_428" points="852.6,464.4 873.8,464.8 895.7,465.2 899.5,460 848,460   " class="st31"/>
    <path id="svg_429" d="m873,482.5l0.4,-17.7l22.1,0.4l13.9,19.5l-9.8,6.6c0,0 -6,2.1 -5.7,10.2l-20.9,0.5l0,-19.5z" class="st31"/>
    <rect id="svg_430" height="2" width="5" class="st28" y="483" x="875"/>
    <path id="svg_431" d="m878,481l22,0l-6.9,-12.9c0,0 -6.8,-5.5 -15.1,0l0,12.9z" class="st10"/>
    <ellipse id="svg_432" ry="6.1" rx="6.1" cy="502" cx="853.4" class="st29" transform="matrix(0.1594,-0.9872,0.9872,0.1594,221.8025,1264.4611) "/>
    <ellipse id="svg_433" ry="6.1" rx="6.1" cy="501.6" cx="906.7" class="st29" transform="matrix(0.8881,-0.4596,0.4596,0.8881,-129.0966,472.8362) "/>
    <path id="svg_434" d="m850.5,464.6l-20.5,17.9l0,19.5l9.9,0.6c0,0 0.2,-14.6 13,-13.5s12.7,12.5 12.7,12.5l8.3,0.4l-0.5,-37.2l-22.9,-0.2z" class="st31"/>
    <path id="svg_435" d="m868,481l-24.9,0l10.1,-12.1c0,0 7.8,-7.7 14.8,0l0,12.1l0,0z" class="st10"/>
   </g>
  </g>
  <g id="trees">
   <g id="svg_436">
    <polygon id="svg_437" points="375,414 375,354.6 374.6,353.7 344,455 374,455 374,414   " class="st3"/>
    <polygon id="svg_438" points="405.6,455 375,353.4 375,354.6 375,414 376,414 376,455 405.3,455   " class="st32"/>
    <g id="svg_439">
     <polygon id="svg_440" points="375,414 374,414 374,454.5 374,487 376,487 376,454.5 376,414    " class="st33"/>
    </g>
   </g>
   <g id="svg_441">
    <polygon id="svg_442" points="724,417 724,357.2 723.5,356 692.7,457 723,457 723,417   " class="st3"/>
    <polygon id="svg_443" points="754.4,457 724,356.1 724,357.2 724,417 725,417 725,457 754.1,457   " class="st32"/>
    <g id="svg_444">
     <polygon id="svg_445" points="723.8,417 723,417 723,457.1 723,489 725,489 725,457.1 725,417    " class="st33"/>
    </g>
   </g>
   <g id="svg_446">
    <g id="svg_447">
     <path id="svg_448" d="m1227.5,423.9l2.1,-2l12.4,12.7l0,-13.6l1,0l0,-39.9c-17,0 -31.1,14.2 -31.1,31.7c0,17.1 13.1,31 30.1,31.7l0,-5.9l-14.5,-14.7z" class="st34"/>
    </g>
    <g id="svg_449">
     <path id="svg_450" d="m1274.1,412.8c0,-17.5 -14.1,-31.7 -31.1,-31.7l0,39.9l1,0l0,6.6l12.4,-12.7l1.9,2l-14.3,14.7l0,12.9c17,-0.7 30.1,-14.6 30.1,-31.7z" class="st35"/>
    </g>
    <g id="svg_451">
     <polygon id="svg_452" points="1244,431.6 1258.3,416.9 1256.3,414.9 1244,427.6 1244,421 1242.9,421 1242,421 1242,434.6      1229.5,421.9 1227.7,423.9 1242,438.6 1242,444.5 1242,488 1244,488 1244,444.5    " class="st33"/>
    </g>
   </g>
   <g id="svg_453">
    <g id="svg_454">
     <path id="svg_455" d="m214.6,423.1l2,-2l12.4,12.7l0,-13.8l1,0l0,-39.7c-17.3,0 -31.1,14.2 -31.1,31.7c0,17.1 13.1,31 30.1,31.7l0,-5.9l-14.4,-14.7z" class="st34"/>
    </g>
    <g id="svg_456">
     <path id="svg_457" d="m261.1,412.1c0,-17.5 -13.8,-31.7 -31.1,-31.7l0,39.6l1,0l0,6.9l12.5,-12.7l1.8,2l-14.3,14.7l0,12.9c17,-0.7 30.1,-14.7 30.1,-31.7z" class="st35"/>
    </g>
    <g id="svg_458">
     <polygon id="svg_459" points="231,430.9 245.4,416.2 243.4,414.2 231,426.9 231,420 230,420 229,420 229,433.8 216.5,421.1      214.7,423.1 229,437.9 229,443.8 229,488 231,488 231,443.8    " class="st33"/>
    </g>
   </g>
   <g id="svg_460">
    <g id="svg_461">
     <path id="svg_462" d="m959.6,424.3l2,-2l12.4,12.7l0,-14l1,0l0,-39.5c-17,0 -31.1,14.2 -31.1,31.7c0,17.1 13.1,31 30.1,31.7l0,-5.9l-14.4,-14.7z" class="st34"/>
    </g>
    <g id="svg_463">
     <path id="svg_464" d="m1006.1,413.2c0,-17.5 -14.1,-31.7 -31.1,-31.7l0,39.5l1,0l0,7l12.5,-12.7l1.8,2l-14.3,14.7l0,13c17,-0.8 30.1,-14.7 30.1,-31.8z" class="st35"/>
    </g>
    <g id="svg_465">
     <polygon id="svg_466" points="976,432 990.4,417.3 988.4,415.3 976,428 976,421 975,421 974,421 974,435 961.5,422.3      959.7,424.3 974,439 974,445 974,489 976,489 976,445    " class="st33"/>
    </g>
   </g>
   <g id="svg_467">
    <polygon id="svg_468" points="66,421 66,363.7 65.5,362.6 30.7,459 64,459 64,421   " class="st3"/>
    <polygon id="svg_469" points="100.3,459 66,362.6 66,363.7 66,421 67,421 67,459 99.9,459   " class="st32"/>
    <g id="svg_470">
     <polygon id="svg_471" points="65.7,421 64,421 64,459 64,490 67,490 67,459 67,421    " class="st33"/>
    </g>
   </g>
   <g id="svg_472">
    <g id="svg_473">
     <path id="svg_474" d="m70.9,550.7l1.9,-2l12.2,12.7l0,-13.4l2,0l0,-40.1c-18,0 -31.6,14.2 -31.6,31.7c0,17.1 13.6,31 29.6,31.7l0,-5.9l-14.1,-14.7z" class="st34"/>
    </g>
    <g id="svg_475">
     <path id="svg_476" d="m118.1,539.7c0,-17.5 -14.1,-31.7 -31.1,-31.7l0,40l1,0l0,6.5l12.3,-12.7l1.9,2l-14.2,14.7l0,12.9c17,-0.8 30.1,-14.7 30.1,-31.7z" class="st35"/>
    </g>
    <g id="svg_477">
     <polygon id="svg_478" points="88,558.5 102.2,543.7 100.3,541.7 88,554.5 88,548 86.6,548 85,548 85,561.4 72.8,548.7      70.8,550.7 85,565.4 85,571.4 85,615 88,615 88,571.4    " class="st33"/>
    </g>
   </g>
   <g id="svg_479">
    <g id="svg_480">
     <path id="svg_481" d="m229.7,550.7l2,-2l12.3,12.7l0,-13.4l1,0l0,-40.1c-17,0 -31.1,14.2 -31.1,31.7c0,17.1 13.1,31 30.1,31.7l0,-5.9l-14.3,-14.7z" class="st34"/>
    </g>
    <g id="svg_482">
     <path id="svg_483" d="m276.6,539.7c0,-17.5 -14.6,-31.7 -31.6,-31.7l0,40l2,0l0,6.5l12.1,-12.7l2,2l-14.1,14.7l0,12.9c16,-0.8 29.6,-14.7 29.6,-31.7z" class="st35"/>
    </g>
    <g id="svg_484">
     <polygon id="svg_485" points="247,558.5 261,543.7 259.2,541.7 247,554.5 247,548 245.2,548 244,548 244,561.4 231.7,548.7      229.7,550.7 244,565.4 244,571.4 244,615 247,615 247,571.4    " class="st33"/>
    </g>
   </g>
   <g id="svg_486">
    <g id="svg_487">
     <path id="svg_488" d="m387.9,550.7l1.9,-2l12.2,12.7l0,-13.4l2,0l0,-40.1c-18,0 -31.6,14.2 -31.6,31.7c0,17.1 13.6,31 29.6,31.7l0,-5.9l-14.1,-14.7z" class="st34"/>
    </g>
    <g id="svg_489">
     <path id="svg_490" d="m435.1,539.7c0,-17.5 -14.1,-31.7 -31.1,-31.7l0,40l1,0l0,6.5l12.3,-12.7l1.9,2l-14.2,14.7l0,12.9c17,-0.8 30.1,-14.7 30.1,-31.7z" class="st35"/>
    </g>
    <g id="svg_491">
     <polygon id="svg_492" points="405,558.5 419.2,543.7 417.3,541.7 405,554.5 405,548 403.7,548 402,548 402,561.4 389.9,548.7      387.9,550.7 402,565.4 402,571.4 402,615 405,615 405,571.4    " class="st33"/>
    </g>
   </g>
   <g id="svg_493">
    <g id="svg_494">
     <path id="svg_495" d="m546.8,550.7l1.9,-2l12.3,12.7l0,-13.4l1,0l0,-40.1c-17,0 -31.1,14.2 -31.1,31.7c0,17.1 13.1,31 30.1,31.7l0,-5.9l-14.2,-14.7z" class="st34"/>
    </g>
    <g id="svg_496">
     <path id="svg_497" d="m593.6,539.7c0,-17.5 -13.6,-31.7 -31.6,-31.7l0,40l2,0l0,6.5l12.2,-12.7l2,2l-14.2,14.7l0,12.9c16,-0.8 29.6,-14.7 29.6,-31.7z" class="st35"/>
    </g>
    <g id="svg_498">
     <polygon id="svg_499" points="564,558.5 578.1,543.7 576.2,541.7 564,554.5 564,548 562.5,548 561,548 561,561.4 548.8,548.7      546.8,550.7 561,565.4 561,571.4 561,615 564,615 564,571.4    " class="st33"/>
    </g>
   </g>
   <g id="svg_500">
    <g id="svg_501">
     <path id="svg_502" d="m705.7,550.7l2,-2l12.3,12.7l0,-13.4l1,0l0,-40.1c-17,0 -31.1,14.2 -31.1,31.7c0,17.1 13.1,31 30.1,31.7l0,-5.9l-14.3,-14.7z" class="st34"/>
    </g>
    <g id="svg_503">
     <path id="svg_504" d="m752.1,539.7c0,-17.5 -14.1,-31.7 -31.1,-31.7l0,40l1,0l0,6.5l12.5,-12.7l1.8,2l-14.3,14.7l0,12.9c17,-0.8 30.1,-14.7 30.1,-31.7z" class="st35"/>
    </g>
    <g id="svg_505">
     <polygon id="svg_506" points="722,558.5 736.5,543.7 734.4,541.7 722,554.5 722,548 721.1,548 720,548 720,561.4 707.6,548.7      705.7,550.7 720,565.4 720,571.4 720,615 722,615 722,571.4    " class="st33"/>
    </g>
   </g>
   <g id="svg_507">
    <g id="svg_508">
     <path id="svg_509" d="m864,550.7l1.8,-2l12.2,12.7l0,-13.4l2,0l0,-40.1c-18,0 -31.6,14.2 -31.6,31.7c0,17.1 13.6,31 29.6,31.7l0,-5.9l-14,-14.7z" class="st34"/>
    </g>
    <g id="svg_510">
     <path id="svg_511" d="m911.1,539.7c0,-17.5 -14.1,-31.7 -31.1,-31.7l0,40l1,0l0,6.5l12.3,-12.7l1.9,2l-14.2,14.7l0,12.9c17,-0.8 30.1,-14.7 30.1,-31.7z" class="st35"/>
    </g>
    <g id="svg_512">
     <polygon id="svg_513" points="881,558.5 895.3,543.7 893.3,541.7 881,554.5 881,548 879.7,548 878,548 878,561.4 865.9,548.7      863.9,550.7 878,565.4 878,571.4 878,615 881,615 881,571.4    " class="st33"/>
    </g>
   </g>
   <g id="svg_514">
    <g id="svg_515">
     <path id="svg_516" d="m1022.8,550.7l1.9,-2l12.3,12.7l0,-4.1l0,-9.3l1,0l0,-40.1c-17,0 -31.1,14.2 -31.1,31.7c0,17.1 13.1,31 30.1,31.7l0,-5.9l-14.2,-14.7z" class="st34"/>
    </g>
    <g id="svg_517">
     <path id="svg_518" d="m1069.6,539.7c0,-17.5 -13.6,-31.7 -31.6,-31.7l0,40l2,0l0,6.5l12.2,-12.7l2,2l-14.2,14.7l0,5.8l0,7.1c16,-0.8 29.6,-14.7 29.6,-31.7z" class="st35"/>
    </g>
    <g id="svg_519">
     <polygon id="svg_520" points="1037,557.3 1040,554.5 1040,548 1038.4,548 1037,548    " class="st33"/>
    </g>
    <g id="svg_521">
     <polygon id="svg_522" points="1037,557.3 1037,561.4 1040,564.3 1040,558.5 1039.1,559.3    " class="st33"/>
    </g>
    <g id="svg_523">
     <polygon id="svg_524" points="1037.9,566.3 1037,565.4 1037,571.4 1037,615 1040,615 1040,571.4 1040,564.3    " class="st33"/>
    </g>
    <g id="svg_525">
     <polygon id="svg_526" points="1037,561.4 1024.7,548.7 1022.8,550.7 1037,565.4 1037.8,566.3 1039.7,564.3    " class="st33"/>
    </g>
    <g id="svg_527">
     <polygon id="svg_528" points="1037,557.3 1038.9,559.3 1039.7,558.5 1054,543.7 1052,541.7 1039.7,554.5    " class="st33"/>
    </g>
   </g>
   <g id="svg_529">
    <g id="svg_530">
     <path id="svg_531" d="m1181.6,550.7l2,-2l12.4,12.7l0,-13.4l1,0l0,-40.1c-17.3,0 -31.1,14.2 -31.1,31.7c0,17.1 13.1,31 30.1,31.7l0,-5.9l-14.4,-14.7z" class="st34"/>
    </g>
    <g id="svg_532">
     <path id="svg_533" d="m1228.1,539.7c0,-17.5 -13.8,-31.7 -31.1,-31.7l0,40l1,0l0,6.5l12.5,-12.7l1.8,2l-14.3,14.7l0,12.9c17,-0.8 30.1,-14.7 30.1,-31.7z" class="st35"/>
    </g>
    <g id="svg_534">
     <polygon id="svg_535" points="1198,558.5 1212.4,543.7 1210.4,541.7 1198,554.5 1198,548 1197,548 1196,548 1196,561.4      1183.5,548.7 1181.7,550.7 1196,565.4 1196,571.4 1196,615 1198,615 1198,571.4    " class="st33"/>
    </g>
   </g>
   <g id="svg_536">
    <g id="svg_537">
     <path id="svg_538" d="m320.8,423.1l1.9,-2l12.3,12.7l0,-13.8l1,0l0,-39.7c-17,0 -31.1,14.2 -31.1,31.7c0,17.1 13.1,31 30.1,31.7l0,-5.9l-14.2,-14.7z" class="st34"/>
    </g>
    <g id="svg_539">
     <path id="svg_540" d="m367.6,412.1c0,-17.5 -13.6,-31.7 -31.6,-31.7l0,39.6l2,0l0,6.9l12.2,-12.7l2,2l-14.2,14.7l0,12.9c16,-0.7 29.6,-14.7 29.6,-31.7z" class="st35"/>
    </g>
    <g id="svg_541">
     <polygon id="svg_542" points="338,430.9 352.1,416.2 350.2,414.2 338,426.9 338,420 336.4,420 335,420 335,433.8 322.7,421.1      320.8,423.1 335,437.9 335,443.8 335,488 338,488 338,443.8    " class="st33"/>
    </g>
   </g>
  </g>
 </g>
</svg>