<?xml version="1.0" encoding="utf-8"?>
<!-- Generator: Adobe Illustrator 20.1.0, SVG Export Plug-In . SVG Version: 6.00 Build 0)  -->
<svg version="1.1" id="Layer_1" xmlns="http://www.w3.org/2000/svg" xmlns:xlink="http://www.w3.org/1999/xlink" x="0px" y="0px"
	 viewBox="0 0 1280 1000" style="enable-background:new 0 0 1280 1000;" xml:space="preserve">
<style type="text/css">
	.st0{fill:#F9E0D7;}
	.st1{fill:#595552;}
	.st2{fill:#CCCCCC;}
	.st3{fill:#ED9F5D;}
	.st4{fill:#87310F;}
	.st5{font-family:'Ravie';}
	.st6{font-size:89px;}
	.st7{fill:#603813;}
	.st8{fill:#F4D592;}
	.st9{fill:#AFADA8;}
	.st10{fill:#FFFFFF;}
	.st11{fill:none;stroke:#FFFFFF;stroke-miterlimit:10;}
	.st12{fill:#F77272;}
	.st13{fill:#FFD4D4;}
	.st14{fill:#44250C;}
	.st15{fill:#935D38;}
	.st16{fill:#EACDB9;}
	.st17{fill:none;stroke:#603813;stroke-miterlimit:10;}
	.st18{fill:#351C0C;}
	.st19{fill:#9B4805;}
	.st20{fill:#E5AD9A;}
	.st21{fill:#492A0F;}
	.st22{fill:#CC816D;}
	.st23{fill:#5B1B1B;}
	.st24{fill:#E54242;}
	.st25{fill:#B22622;}
	.st26{fill:#383838;}
	.st27{fill:#933206;}
	.st28{fill:#0F0202;}
	.st29{fill:#E6E6E6;stroke:#FFFFFF;stroke-width:2;stroke-miterlimit:10;}
	.st30{fill:#C47A05;}
	.st31{fill:#EA9D13;}
	.st32{fill:#43451E;}
	.st33{fill:#54321B;}
	.st34{fill:#D63D1A;}
	.st35{fill:#A32908;}
</style>
<rect x="1" y="578.4" class="st0" width="1279" height="419.5"/>
<g id="mid">
	<g id="Road">
		<g>
			<rect y="494.7" class="st1" width="1280" height="70.3"/>
		</g>
		<g>
			<rect y="488.9" class="st2" width="1280" height="5.7"/>
		</g>
		<g>
			<rect y="565" class="st2" width="1280" height="13.4"/>
		</g>
		<path class="st3" d="M1,577c68.3,240.8,328.5,420.9,639,420.9s570.6-180,639-420.9H1z"/>
		<text transform="matrix(1 0 0 1 333.8811 778.9108)" class="st4 st5 st6">My World!</text>
	</g>
	<g id="building1">
		<rect x="403.8" y="297.9" class="st7" width="133.3" height="29.4"/>
		<g>
			<rect x="401.3" y="325.5" class="st8" width="139.2" height="163.4"/>
		</g>
		<g>
			<rect x="414.7" y="342.9" class="st9" width="29.6" height="36.6"/>
			<path class="st10" d="M443.9,343.4V379h-28.6v-35.6H443.9 M444.9,342.4h-30.6V380h30.6V342.4L444.9,342.4z"/>
		</g>
		<line class="st11" x1="429.5" y1="378" x2="429.5" y2="344"/>
		<line class="st11" x1="444" y1="356.5" x2="415" y2="356.5"/>
		<line class="st11" x1="444" y1="367.5" x2="415" y2="367.5"/>
		<g>
			<rect x="414.7" y="393" class="st9" width="29.6" height="36.6"/>
			<path class="st10" d="M443.9,393.5v35.6h-28.6v-35.6H443.9 M444.9,392.5h-30.6v37.6h30.6V392.5L444.9,392.5z"/>
		</g>
		<line class="st11" x1="429.5" y1="429" x2="429.5" y2="394"/>
		<line class="st11" x1="444" y1="406.5" x2="415" y2="406.5"/>
		<line class="st11" x1="444" y1="417.5" x2="415" y2="417.5"/>
		<g>
			<rect x="456.1" y="342.9" class="st9" width="29.6" height="36.6"/>
			<path class="st10" d="M485.2,343.4V379h-28.6v-35.6H485.2 M486.2,342.4h-30.6V380h30.6V342.4L486.2,342.4z"/>
		</g>
		<line class="st11" x1="470.5" y1="378" x2="470.5" y2="344"/>
		<line class="st11" x1="485" y1="356.5" x2="456" y2="356.5"/>
		<line class="st11" x1="485" y1="367.5" x2="456" y2="367.5"/>
		<g>
			<rect x="456.1" y="393" class="st9" width="29.6" height="36.6"/>
			<path class="st10" d="M485.2,393.5v35.6h-28.6v-35.6H485.2 M486.2,392.5h-30.6v37.6h30.6V392.5L486.2,392.5z"/>
		</g>
		<line class="st11" x1="470.5" y1="429" x2="470.5" y2="394"/>
		<line class="st11" x1="485" y1="406.5" x2="456" y2="406.5"/>
		<line class="st11" x1="485" y1="417.5" x2="456" y2="417.5"/>
		<g>
			<rect x="497.5" y="342.9" class="st9" width="29.6" height="36.6"/>
			<path class="st10" d="M526.6,343.4V379H498v-35.6H526.6 M527.6,342.4H497V380h30.6V342.4L527.6,342.4z"/>
		</g>
		<line class="st11" x1="511.5" y1="378" x2="511.5" y2="344"/>
		<line class="st11" x1="527" y1="356.5" x2="498" y2="356.5"/>
		<line class="st11" x1="527" y1="367.5" x2="498" y2="367.5"/>
		<g>
			<rect x="497.5" y="393" class="st9" width="29.6" height="36.6"/>
			<path class="st10" d="M526.6,393.5v35.6H498v-35.6H526.6 M527.6,392.5H497v37.6h30.6V392.5L527.6,392.5z"/>
		</g>
		<line class="st11" x1="511.5" y1="429" x2="511.5" y2="394"/>
		<line class="st11" x1="527" y1="406.5" x2="498" y2="406.5"/>
		<line class="st11" x1="527" y1="417.5" x2="498" y2="417.5"/>
		<rect x="401.4" y="297.9" class="st10" width="5.8" height="36.5"/>
		<rect x="534.7" y="297.9" class="st10" width="5.8" height="36.5"/>
		<g>
			<rect x="508.8" y="276.2" class="st8" width="9.9" height="26"/>
		</g>
		<rect x="510.8" y="271.9" width="5.7" height="4.3"/>
		<g>
			<rect x="414.7" y="444.7" class="st9" width="29.6" height="36.6"/>
			<path class="st10" d="M443.9,445.2v35.6h-28.6v-35.6H443.9 M444.9,444.2h-30.6v37.6h30.6V444.2L444.9,444.2z"/>
		</g>
		<line class="st11" x1="429.5" y1="481" x2="429.5" y2="446"/>
		<line class="st11" x1="444" y1="458.5" x2="415" y2="458.5"/>
		<line class="st11" x1="444" y1="470.5" x2="415" y2="470.5"/>
		<g>
			<rect x="456.1" y="444.7" class="st9" width="29.6" height="36.6"/>
			<path class="st10" d="M485.2,445.2v35.6h-28.6v-35.6H485.2 M486.2,444.2h-30.6v37.6h30.6V444.2L486.2,444.2z"/>
		</g>
		<line class="st11" x1="470.5" y1="481" x2="470.5" y2="446"/>
		<line class="st11" x1="485" y1="458.5" x2="456" y2="458.5"/>
		<line class="st11" x1="485" y1="470.5" x2="456" y2="470.5"/>
		<g>
			<rect x="497.5" y="444.7" class="st9" width="29.6" height="36.6"/>
			<path class="st10" d="M526.6,445.2v35.6H498v-35.6H526.6 M527.6,444.2H497v37.6h30.6V444.2L527.6,444.2z"/>
		</g>
		<line class="st11" x1="511.5" y1="481" x2="511.5" y2="446"/>
		<line class="st11" x1="527" y1="458.5" x2="498" y2="458.5"/>
		<line class="st11" x1="527" y1="470.5" x2="498" y2="470.5"/>
		<rect x="78.8" y="300.3" class="st7" width="133.3" height="28.7"/>
		<g>
			<rect x="76.3" y="327.3" class="st12" width="139.2" height="159.7"/>
		</g>
		<g>
			<rect x="85.7" y="344.3" class="st13" width="29.6" height="35.7"/>
			<path class="st10" d="M114.9,344.8v34.7H86.2v-34.7H114.9 M115.9,343.8H85.2v36.7h30.6v-36.7H115.9z"/>
		</g>
		<line class="st11" x1="100.5" y1="379" x2="100.5" y2="345"/>
		<line class="st11" x1="115" y1="357.5" x2="86" y2="357.5"/>
		<line class="st11" x1="115" y1="368.5" x2="86" y2="368.5"/>
		<g>
			<rect x="85.7" y="393.3" class="st13" width="29.6" height="35.7"/>
			<path class="st10" d="M114.9,393.8v34.7H86.2v-34.7H114.9 M115.9,392.8H85.2v36.7h30.6v-36.7H115.9z"/>
		</g>
		<line class="st11" x1="100.5" y1="428" x2="100.5" y2="394"/>
		<line class="st11" x1="115" y1="406.5" x2="86" y2="406.5"/>
		<line class="st11" x1="115" y1="417.5" x2="86" y2="417.5"/>
		<g>
			<rect x="127.1" y="344.3" class="st13" width="29.6" height="35.7"/>
			<path class="st10" d="M156.2,344.8v34.7h-28.6v-34.7H156.2 M157.2,343.8h-30.6v36.7h30.6V343.8L157.2,343.8z"/>
		</g>
		<line class="st11" x1="141.5" y1="379" x2="141.5" y2="345"/>
		<line class="st11" x1="156" y1="357.5" x2="127" y2="357.5"/>
		<line class="st11" x1="156" y1="368.5" x2="127" y2="368.5"/>
		<g>
			<rect x="127.1" y="393.3" class="st13" width="29.6" height="35.7"/>
			<path class="st10" d="M156.2,393.8v34.7h-28.6v-34.7H156.2 M157.2,392.8h-30.6v36.7h30.6V392.8L157.2,392.8z"/>
		</g>
		<line class="st11" x1="141.5" y1="428" x2="141.5" y2="394"/>
		<line class="st11" x1="156" y1="406.5" x2="127" y2="406.5"/>
		<line class="st11" x1="156" y1="417.5" x2="127" y2="417.5"/>
		<g>
			<rect x="168.5" y="344.3" class="st13" width="29.6" height="35.7"/>
			<path class="st10" d="M197.6,344.8v34.7H169v-34.7H197.6 M198.6,343.8H168v36.7h30.6V343.8L198.6,343.8z"/>
		</g>
		<line class="st11" x1="182.5" y1="379" x2="182.5" y2="345"/>
		<line class="st11" x1="198" y1="357.5" x2="169" y2="357.5"/>
		<line class="st11" x1="198" y1="368.5" x2="169" y2="368.5"/>
		<g>
			<rect x="168.5" y="393.3" class="st13" width="29.6" height="35.7"/>
			<path class="st10" d="M197.6,393.8v34.7H169v-34.7H197.6 M198.6,392.8H168v36.7h30.6V392.8L198.6,392.8z"/>
		</g>
		<line class="st11" x1="182.5" y1="428" x2="182.5" y2="394"/>
		<line class="st11" x1="198" y1="406.5" x2="169" y2="406.5"/>
		<line class="st11" x1="198" y1="417.5" x2="169" y2="417.5"/>
		<rect x="72.4" y="300.3" class="st10" width="5.8" height="35.6"/>
		<rect x="209.7" y="300.3" class="st10" width="5.8" height="35.6"/>
		<g>
			<rect x="179.8" y="279.1" class="st12" width="9.9" height="25.4"/>
		</g>
		<rect x="181.8" y="274.9" class="st7" width="5.7" height="4.2"/>
		<g>
			<rect x="85.7" y="443.8" class="st13" width="29.6" height="35.7"/>
			<path class="st10" d="M114.9,444.3V479H86.2v-34.7H114.9 M115.9,443.3H85.2V480h30.6v-36.7H115.9z"/>
		</g>
		<line class="st11" x1="100.5" y1="479" x2="100.5" y2="445"/>
		<line class="st11" x1="115" y1="457.5" x2="86" y2="457.5"/>
		<line class="st11" x1="115" y1="468.5" x2="86" y2="468.5"/>
		<g>
			<rect x="127.1" y="443.8" class="st13" width="29.6" height="35.7"/>
			<path class="st10" d="M156.2,444.3V479h-28.6v-34.7H156.2 M157.2,443.3h-30.6V480h30.6V443.3L157.2,443.3z"/>
		</g>
		<line class="st11" x1="141.5" y1="479" x2="141.5" y2="445"/>
		<line class="st11" x1="156" y1="457.5" x2="127" y2="457.5"/>
		<line class="st11" x1="156" y1="468.5" x2="127" y2="468.5"/>
		<g>
			<rect x="168.5" y="443.8" class="st13" width="29.6" height="35.7"/>
			<path class="st10" d="M197.6,444.3V479H169v-34.7H197.6 M198.6,443.3H168V480h30.6V443.3L198.6,443.3z"/>
		</g>
		<line class="st11" x1="182.5" y1="479" x2="182.5" y2="445"/>
		<line class="st11" x1="198" y1="457.5" x2="169" y2="457.5"/>
		<line class="st11" x1="198" y1="468.5" x2="169" y2="468.5"/>
		<rect x="210.8" y="300.3" class="st7" width="133.3" height="28.7"/>
		<g>
			<rect x="208.3" y="327.3" class="st12" width="139.2" height="159.7"/>
		</g>
		<g>
			<rect x="221.7" y="344.3" class="st13" width="29.6" height="35.7"/>
			<path class="st10" d="M250.9,344.8v34.7h-28.6v-34.7H250.9 M251.9,343.8h-30.6v36.7h30.6V343.8L251.9,343.8z"/>
		</g>
		<line class="st11" x1="236.5" y1="379" x2="236.5" y2="345"/>
		<line class="st11" x1="251" y1="357.5" x2="222" y2="357.5"/>
		<line class="st11" x1="251" y1="368.5" x2="222" y2="368.5"/>
		<g>
			<rect x="221.7" y="393.3" class="st13" width="29.6" height="35.7"/>
			<path class="st10" d="M250.9,393.8v34.7h-28.6v-34.7H250.9 M251.9,392.8h-30.6v36.7h30.6V392.8L251.9,392.8z"/>
		</g>
		<line class="st11" x1="236.5" y1="428" x2="236.5" y2="394"/>
		<line class="st11" x1="251" y1="406.5" x2="222" y2="406.5"/>
		<line class="st11" x1="251" y1="417.5" x2="222" y2="417.5"/>
		<g>
			<rect x="263.1" y="344.3" class="st13" width="29.6" height="35.7"/>
			<path class="st10" d="M292.2,344.8v34.7h-28.6v-34.7H292.2 M293.2,343.8h-30.6v36.7h30.6V343.8L293.2,343.8z"/>
		</g>
		<line class="st11" x1="277.5" y1="379" x2="277.5" y2="345"/>
		<line class="st11" x1="292" y1="357.5" x2="263" y2="357.5"/>
		<line class="st11" x1="292" y1="368.5" x2="263" y2="368.5"/>
		<g>
			<rect x="263.1" y="393.3" class="st13" width="29.6" height="35.7"/>
			<path class="st10" d="M292.2,393.8v34.7h-28.6v-34.7H292.2 M293.2,392.8h-30.6v36.7h30.6V392.8L293.2,392.8z"/>
		</g>
		<line class="st11" x1="277.5" y1="428" x2="277.5" y2="394"/>
		<line class="st11" x1="292" y1="406.5" x2="263" y2="406.5"/>
		<line class="st11" x1="292" y1="417.5" x2="263" y2="417.5"/>
		<g>
			<rect x="304.5" y="344.3" class="st13" width="29.6" height="35.7"/>
			<path class="st10" d="M333.6,344.8v34.7H305v-34.7H333.6 M334.6,343.8H304v36.7h30.6V343.8L334.6,343.8z"/>
		</g>
		<line class="st11" x1="318.5" y1="379" x2="318.5" y2="345"/>
		<line class="st11" x1="334" y1="357.5" x2="305" y2="357.5"/>
		<line class="st11" x1="334" y1="368.5" x2="305" y2="368.5"/>
		<g>
			<rect x="304.5" y="393.3" class="st13" width="29.6" height="35.7"/>
			<path class="st10" d="M333.6,393.8v34.7H305v-34.7H333.6 M334.6,392.8H304v36.7h30.6V392.8L334.6,392.8z"/>
		</g>
		<line class="st11" x1="318.5" y1="428" x2="318.5" y2="394"/>
		<line class="st11" x1="334" y1="406.5" x2="305" y2="406.5"/>
		<line class="st11" x1="334" y1="417.5" x2="305" y2="417.5"/>
		<rect x="208.4" y="300.3" class="st10" width="5.8" height="35.6"/>
		<rect x="341.7" y="300.3" class="st10" width="5.8" height="35.6"/>
		<g>
			<rect x="315.8" y="279.1" class="st12" width="9.9" height="25.4"/>
		</g>
		<rect x="317.8" y="274.9" class="st7" width="5.7" height="4.2"/>
		<g>
			<rect x="221.7" y="443.8" class="st13" width="29.6" height="35.7"/>
			<path class="st10" d="M250.9,444.3V479h-28.6v-34.7H250.9 M251.9,443.3h-30.6V480h30.6V443.3L251.9,443.3z"/>
		</g>
		<line class="st11" x1="236.5" y1="479" x2="236.5" y2="445"/>
		<line class="st11" x1="251" y1="457.5" x2="222" y2="457.5"/>
		<line class="st11" x1="251" y1="468.5" x2="222" y2="468.5"/>
		<g>
			<rect x="263.1" y="443.8" class="st13" width="29.6" height="35.7"/>
			<path class="st10" d="M292.2,444.3V479h-28.6v-34.7H292.2 M293.2,443.3h-30.6V480h30.6V443.3L293.2,443.3z"/>
		</g>
		<line class="st11" x1="277.5" y1="479" x2="277.5" y2="445"/>
		<line class="st11" x1="292" y1="457.5" x2="263" y2="457.5"/>
		<line class="st11" x1="292" y1="468.5" x2="263" y2="468.5"/>
		<g>
			<rect x="304.5" y="443.8" class="st13" width="29.6" height="35.7"/>
			<path class="st10" d="M333.6,444.3V479H305v-34.7H333.6 M334.6,443.3H304V480h30.6V443.3L334.6,443.3z"/>
		</g>
		<line class="st11" x1="318.5" y1="479" x2="318.5" y2="445"/>
		<line class="st11" x1="334" y1="457.5" x2="305" y2="457.5"/>
		<line class="st11" x1="334" y1="468.5" x2="305" y2="468.5"/>
	</g>
	<g id="building_2">
		<rect x="559.2" y="327.6" class="st14" width="150.6" height="23"/>
		<g>
			<rect x="556.4" y="349.3" class="st15" width="157.3" height="104.6"/>
		</g>
		<g>
			<rect x="571.4" y="357" class="st16" width="33.6" height="33.6"/>
			<path class="st7" d="M604.6,357.5v32.6H572v-32.6H604.6 M605.6,356.5H571v34.6h34.6V356.5L605.6,356.5z"/>
		</g>
		<line class="st17" x1="588.5" y1="390" x2="588.5" y2="357"/>
		<line class="st17" x1="606" y1="369.5" x2="572" y2="369.5"/>
		<line class="st17" x1="606" y1="381.5" x2="572" y2="381.5"/>
		<g>
			<rect x="571.4" y="403.3" class="st16" width="33.6" height="33.6"/>
			<path class="st7" d="M604.6,403.8v32.6H572v-32.6H604.6 M605.6,402.8H571v34.6h34.6V402.8L605.6,402.8z"/>
		</g>
		<line class="st17" x1="588.5" y1="437" x2="588.5" y2="403"/>
		<line class="st17" x1="606" y1="414.5" x2="572" y2="414.5"/>
		<line class="st17" x1="606" y1="425.5" x2="572" y2="425.5"/>
		<g>
			<rect x="618.2" y="357" class="st16" width="33.6" height="33.6"/>
			<path class="st7" d="M651.3,357.5v32.6h-32.6v-32.6H651.3 M652.3,356.5h-34.6v34.6h34.6V356.5L652.3,356.5z"/>
		</g>
		<line class="st17" x1="635.5" y1="390" x2="635.5" y2="357"/>
		<line class="st17" x1="651" y1="369.5" x2="617" y2="369.5"/>
		<line class="st17" x1="651" y1="381.5" x2="617" y2="381.5"/>
		<g>
			<rect x="618.2" y="403.3" class="st16" width="33.6" height="33.6"/>
			<path class="st7" d="M651.3,403.8v32.6h-32.6v-32.6H651.3 M652.3,402.8h-34.6v34.6h34.6V402.8L652.3,402.8z"/>
		</g>
		<line class="st17" x1="635.5" y1="437" x2="635.5" y2="403"/>
		<line class="st17" x1="651" y1="414.5" x2="617" y2="414.5"/>
		<line class="st17" x1="651" y1="425.5" x2="617" y2="425.5"/>
		<g>
			<rect x="664.9" y="357" class="st16" width="33.6" height="33.6"/>
			<path class="st7" d="M698.1,357.5v32.6h-32.6v-32.6H698.1 M699.1,356.5h-34.6v34.6h34.6V356.5L699.1,356.5z"/>
		</g>
		<line class="st17" x1="681.5" y1="390" x2="681.5" y2="357"/>
		<line class="st17" x1="699" y1="369.5" x2="665" y2="369.5"/>
		<line class="st17" x1="699" y1="381.5" x2="665" y2="381.5"/>
		<g>
			<rect x="664.9" y="403.3" class="st16" width="33.6" height="33.6"/>
			<path class="st7" d="M698.1,403.8v32.6h-32.6v-32.6H698.1 M699.1,402.8h-34.6v34.6h34.6V402.8L699.1,402.8z"/>
		</g>
		<line class="st17" x1="681.5" y1="437" x2="681.5" y2="404"/>
		<line class="st17" x1="699" y1="414.5" x2="665" y2="414.5"/>
		<line class="st17" x1="699" y1="425.5" x2="665" y2="425.5"/>
		<rect x="556.4" y="327.6" class="st2" width="6.5" height="28.5"/>
		<rect x="707.1" y="327.6" class="st2" width="6.5" height="28.5"/>
		<g>
			<rect x="675.3" y="314.3" class="st15" width="11.2" height="20.3"/>
		</g>
		<rect x="556.4" y="453.9" class="st18" width="157.2" height="33"/>
		<rect x="677.5" y="310.9" class="st7" width="6.4" height="3.3"/>
	</g>
	<g id="building_3">
		<rect x="1012.8" y="188.3" class="st19" width="133.3" height="28.7"/>
		<g>
			<rect x="1010.3" y="215.3" class="st20" width="139.2" height="273.9"/>
		</g>
		<g>
			<rect x="1023.7" y="232.3" class="st9" width="29.6" height="35.7"/>
			<path class="st10" d="M1052.9,232.8v34.7h-28.6v-34.7H1052.9 M1053.9,231.8h-30.6v36.7h30.6V231.8L1053.9,231.8z"/>
		</g>
		<line class="st11" x1="1038.5" y1="267" x2="1038.5" y2="233"/>
		<line class="st11" x1="1053" y1="245.5" x2="1024" y2="245.5"/>
		<line class="st11" x1="1053" y1="256.5" x2="1024" y2="256.5"/>
		<g>
			<rect x="1023.7" y="281.3" class="st9" width="29.6" height="35.7"/>
			<path class="st10" d="M1052.9,281.8v34.7h-28.6v-34.7H1052.9 M1053.9,280.8h-30.6v36.7h30.6V280.8L1053.9,280.8z"/>
		</g>
		<line class="st11" x1="1038.5" y1="316" x2="1038.5" y2="282"/>
		<line class="st11" x1="1053" y1="294.5" x2="1024" y2="294.5"/>
		<line class="st11" x1="1053" y1="305.5" x2="1024" y2="305.5"/>
		<g>
			<rect x="1065.1" y="232.3" class="st9" width="29.6" height="35.7"/>
			<path class="st10" d="M1094.2,232.8v34.7h-28.6v-34.7H1094.2 M1095.2,231.8h-30.6v36.7h30.6V231.8L1095.2,231.8z"/>
		</g>
		<line class="st11" x1="1079.5" y1="267" x2="1079.5" y2="233"/>
		<line class="st11" x1="1094" y1="245.5" x2="1065" y2="245.5"/>
		<line class="st11" x1="1094" y1="256.5" x2="1065" y2="256.5"/>
		<g>
			<rect x="1065.1" y="281.3" class="st9" width="29.6" height="35.7"/>
			<path class="st10" d="M1094.2,281.8v34.7h-28.6v-34.7H1094.2 M1095.2,280.8h-30.6v36.7h30.6V280.8L1095.2,280.8z"/>
		</g>
		<line class="st11" x1="1079.5" y1="316" x2="1079.5" y2="282"/>
		<line class="st11" x1="1094" y1="294.5" x2="1065" y2="294.5"/>
		<line class="st11" x1="1094" y1="305.5" x2="1065" y2="305.5"/>
		<g>
			<rect x="1106.5" y="232.3" class="st9" width="29.6" height="35.7"/>
			<path class="st10" d="M1135.6,232.8v34.7H1107v-34.7H1135.6 M1136.6,231.8H1106v36.7h30.6V231.8L1136.6,231.8z"/>
		</g>
		<line class="st11" x1="1120.5" y1="267" x2="1120.5" y2="233"/>
		<line class="st11" x1="1136" y1="245.5" x2="1107" y2="245.5"/>
		<line class="st11" x1="1136" y1="256.5" x2="1107" y2="256.5"/>
		<g>
			<rect x="1106.5" y="281.3" class="st9" width="29.6" height="35.7"/>
			<path class="st10" d="M1135.6,281.8v34.7H1107v-34.7H1135.6 M1136.6,280.8H1106v36.7h30.6V280.8L1136.6,280.8z"/>
		</g>
		<line class="st11" x1="1120.5" y1="316" x2="1120.5" y2="282"/>
		<line class="st11" x1="1136" y1="294.5" x2="1107" y2="294.5"/>
		<line class="st11" x1="1136" y1="305.5" x2="1107" y2="305.5"/>
		<rect x="1010.4" y="188.3" class="st10" width="5.8" height="35.6"/>
		<rect x="1143.7" y="188.3" class="st10" width="5.8" height="35.6"/>
		<g>
			<rect x="1117.8" y="167.1" class="st20" width="9.9" height="25.4"/>
		</g>
		<rect x="1119.8" y="162.9" class="st7" width="5.7" height="4.2"/>
		<g>
			<rect x="1023.7" y="331.8" class="st9" width="29.6" height="35.7"/>
			<path class="st10" d="M1052.9,332.3V367h-28.6v-34.7H1052.9 M1053.9,331.3h-30.6V368h30.6V331.3L1053.9,331.3z"/>
		</g>
		<line class="st11" x1="1038.5" y1="367" x2="1038.5" y2="333"/>
		<line class="st11" x1="1053" y1="345.5" x2="1024" y2="345.5"/>
		<line class="st11" x1="1053" y1="356.5" x2="1024" y2="356.5"/>
		<g>
			<rect x="1065.1" y="331.8" class="st9" width="29.6" height="35.7"/>
			<path class="st10" d="M1094.2,332.3V367h-28.6v-34.7H1094.2 M1095.2,331.3h-30.6V368h30.6V331.3L1095.2,331.3z"/>
		</g>
		<line class="st11" x1="1079.5" y1="367" x2="1079.5" y2="333"/>
		<line class="st11" x1="1094" y1="345.5" x2="1065" y2="345.5"/>
		<line class="st11" x1="1094" y1="356.5" x2="1065" y2="356.5"/>
		<g>
			<rect x="1106.5" y="331.8" class="st9" width="29.6" height="35.7"/>
			<path class="st10" d="M1135.6,332.3V367H1107v-34.7H1135.6 M1136.6,331.3H1106V368h30.6V331.3L1136.6,331.3z"/>
		</g>
		<line class="st11" x1="1120.5" y1="367" x2="1120.5" y2="333"/>
		<line class="st11" x1="1136" y1="345.5" x2="1107" y2="345.5"/>
		<line class="st11" x1="1136" y1="356.5" x2="1107" y2="356.5"/>
		<g>
			<rect x="1023.7" y="381.3" class="st9" width="29.6" height="35.7"/>
			<path class="st10" d="M1052.9,381.8v34.7h-28.6v-34.7H1052.9 M1053.9,380.8h-30.6v36.7h30.6V380.8L1053.9,380.8z"/>
		</g>
		<line class="st11" x1="1038.5" y1="416" x2="1038.5" y2="382"/>
		<line class="st11" x1="1053" y1="394.5" x2="1024" y2="394.5"/>
		<line class="st11" x1="1053" y1="405.5" x2="1024" y2="405.5"/>
		<g>
			<rect x="1065.1" y="381.3" class="st9" width="29.6" height="35.7"/>
			<path class="st10" d="M1094.2,381.8v34.7h-28.6v-34.7H1094.2 M1095.2,380.8h-30.6v36.7h30.6V380.8L1095.2,380.8z"/>
		</g>
		<line class="st11" x1="1079.5" y1="416" x2="1079.5" y2="382"/>
		<line class="st11" x1="1094" y1="394.5" x2="1065" y2="394.5"/>
		<line class="st11" x1="1094" y1="405.5" x2="1065" y2="405.5"/>
		<g>
			<rect x="1106.5" y="381.3" class="st9" width="29.6" height="35.7"/>
			<path class="st10" d="M1135.6,381.8v34.7H1107v-34.7H1135.6 M1136.6,380.8H1106v36.7h30.6V380.8L1136.6,380.8z"/>
		</g>
		<line class="st11" x1="1120.5" y1="416" x2="1120.5" y2="382"/>
		<line class="st11" x1="1136" y1="394.5" x2="1107" y2="394.5"/>
		<line class="st11" x1="1136" y1="405.5" x2="1107" y2="405.5"/>
		<g>
			<rect x="1023.7" y="431.8" class="st9" width="29.6" height="35.7"/>
			<path class="st10" d="M1052.9,432.3V467h-28.6v-34.7H1052.9 M1053.9,431.3h-30.6V468h30.6V431.3L1053.9,431.3z"/>
		</g>
		<line class="st11" x1="1038.5" y1="467" x2="1038.5" y2="433"/>
		<line class="st11" x1="1053" y1="445.5" x2="1024" y2="445.5"/>
		<line class="st11" x1="1053" y1="456.5" x2="1024" y2="456.5"/>
		<g>
			<rect x="1065.1" y="431.8" class="st9" width="29.6" height="35.7"/>
			<path class="st10" d="M1094.2,432.3V467h-28.6v-34.7H1094.2 M1095.2,431.3h-30.6V468h30.6V431.3L1095.2,431.3z"/>
		</g>
		<line class="st11" x1="1079.5" y1="467" x2="1079.5" y2="433"/>
		<line class="st11" x1="1094" y1="445.5" x2="1065" y2="445.5"/>
		<line class="st11" x1="1094" y1="456.5" x2="1065" y2="456.5"/>
		<g>
			<rect x="1106.5" y="431.8" class="st9" width="29.6" height="35.7"/>
			<path class="st10" d="M1135.6,432.3V467H1107v-34.7H1135.6 M1136.6,431.3H1106V468h30.6V431.3L1136.6,431.3z"/>
		</g>
		<line class="st11" x1="1120.5" y1="467" x2="1120.5" y2="433"/>
		<line class="st11" x1="1136" y1="445.5" x2="1107" y2="445.5"/>
		<line class="st11" x1="1136" y1="456.5" x2="1107" y2="456.5"/>
	</g>
	<g id="building_4">
		<rect x="1149.5" y="246.3" class="st21" width="62.1" height="36.9"/>
		<g>
			<rect x="1149.3" y="282.3" class="st22" width="64.8" height="205.5"/>
		</g>
		<g>
			<rect x="1159.2" y="302.7" class="st9" width="16.6" height="46.2"/>
			<path class="st10" d="M1175.3,303.2v45.2h-15.6v-45.2H1175.3 M1176.3,302.2h-17.6v47.2h17.6V302.2L1176.3,302.2z"/>
		</g>
		<line class="st11" x1="1167.5" y1="348" x2="1167.5" y2="304"/>
		<line class="st11" x1="1176" y1="319.5" x2="1159" y2="319.5"/>
		<line class="st11" x1="1176" y1="334.5" x2="1159" y2="334.5"/>
		<g>
			<rect x="1159.2" y="365.8" class="st9" width="16.6" height="46.2"/>
			<path class="st10" d="M1175.3,366.3v45.2h-15.6v-45.2H1175.3 M1176.3,365.3h-17.6v47.2h17.6V365.3L1176.3,365.3z"/>
		</g>
		<line class="st11" x1="1167.5" y1="411" x2="1167.5" y2="367"/>
		<line class="st11" x1="1176" y1="382.5" x2="1159" y2="382.5"/>
		<line class="st11" x1="1176" y1="397.5" x2="1159" y2="397.5"/>
		<g>
			<rect x="1189.3" y="302.7" class="st9" width="16.6" height="46.2"/>
			<path class="st10" d="M1205.4,303.2v45.2h-15.6v-45.2H1205.4 M1206.4,302.2h-17.6v47.2h17.6V302.2L1206.4,302.2z"/>
		</g>
		<line class="st11" x1="1196.5" y1="348" x2="1196.5" y2="304"/>
		<line class="st11" x1="1205" y1="319.5" x2="1189" y2="319.5"/>
		<line class="st11" x1="1205" y1="334.5" x2="1189" y2="334.5"/>
		<g>
			<rect x="1189.3" y="365.8" class="st9" width="16.6" height="46.2"/>
			<path class="st10" d="M1205.4,366.3v45.2h-15.6v-45.2H1205.4 M1206.4,365.3h-17.6v47.2h17.6V365.3L1206.4,365.3z"/>
		</g>
		<line class="st11" x1="1196.5" y1="411" x2="1196.5" y2="367"/>
		<line class="st11" x1="1205" y1="382.5" x2="1189" y2="382.5"/>
		<line class="st11" x1="1205" y1="397.5" x2="1189" y2="397.5"/>
		<rect x="1149.3" y="245.6" class="st10" width="4.2" height="39.8"/>
		<rect x="1209.4" y="245.5" class="st10" width="4.7" height="39.8"/>
		<g>
			<rect x="1199.6" y="236.6" class="st22" width="5.6" height="16.3"/>
		</g>
		<rect x="1200.7" y="233.9" class="st21" width="3.2" height="2.7"/>
		<g>
			<rect x="1159.2" y="430.8" class="st9" width="16.6" height="46.2"/>
			<path class="st10" d="M1175.3,431.3v45.2h-15.6v-45.2H1175.3 M1176.3,430.3h-17.6v47.2h17.6V430.3L1176.3,430.3z"/>
		</g>
		<line class="st11" x1="1167.5" y1="476" x2="1167.5" y2="432"/>
		<line class="st11" x1="1176" y1="448.5" x2="1159" y2="448.5"/>
		<line class="st11" x1="1176" y1="462.5" x2="1159" y2="462.5"/>
		<g>
			<rect x="1189.3" y="430.8" class="st9" width="16.6" height="46.2"/>
			<path class="st10" d="M1205.4,431.3v45.2h-15.6v-45.2H1205.4 M1206.4,430.3h-17.6v47.2h17.6V430.3L1206.4,430.3z"/>
		</g>
		<line class="st11" x1="1196.5" y1="476" x2="1196.5" y2="432"/>
		<line class="st11" x1="1205" y1="448.5" x2="1189" y2="448.5"/>
		<line class="st11" x1="1205" y1="462.5" x2="1189" y2="462.5"/>
	</g>
	<g id="building_4_1_">
		<rect x="801.8" y="378.9" class="st23" width="133.3" height="29.4"/>
		<g>
			<rect x="799.3" y="406.5" class="st24" width="139.2" height="65.8"/>
		</g>
		<g>
			<rect x="812.7" y="423.9" class="st9" width="29.6" height="36.6"/>
			<path class="st10" d="M841.9,424.4V460h-28.6v-35.6H841.9 M842.9,423.4h-30.6V461h30.6V423.4L842.9,423.4z"/>
		</g>
		<line class="st11" x1="827.5" y1="459" x2="827.5" y2="425"/>
		<line class="st11" x1="842" y1="437.5" x2="813" y2="437.5"/>
		<line class="st11" x1="842" y1="448.5" x2="813" y2="448.5"/>
		<g>
			<rect x="854.1" y="423.9" class="st9" width="29.6" height="36.6"/>
			<path class="st10" d="M883.2,424.4V460h-28.6v-35.6H883.2 M884.2,423.4h-30.6V461h30.6V423.4L884.2,423.4z"/>
		</g>
		<line class="st11" x1="868.5" y1="459" x2="868.5" y2="425"/>
		<line class="st11" x1="883" y1="437.5" x2="854" y2="437.5"/>
		<line class="st11" x1="883" y1="448.5" x2="854" y2="448.5"/>
		<g>
			<rect x="895.5" y="423.9" class="st9" width="29.6" height="36.6"/>
			<path class="st10" d="M924.6,424.4V460H896v-35.6H924.6 M925.6,423.4H895V461h30.6V423.4L925.6,423.4z"/>
		</g>
		<line class="st11" x1="909.5" y1="459" x2="909.5" y2="425"/>
		<line class="st11" x1="925" y1="437.5" x2="896" y2="437.5"/>
		<line class="st11" x1="925" y1="448.5" x2="896" y2="448.5"/>
		<rect x="799.4" y="378.9" class="st10" width="5.8" height="36.5"/>
		<rect x="932.7" y="378.9" class="st10" width="5.8" height="36.5"/>
		<g>
			<rect x="906.8" y="357.2" class="st24" width="9.9" height="26"/>
		</g>
		<rect x="908.8" y="352.9" width="5.7" height="4.3"/>
		<rect x="799.3" y="472.3" class="st23" width="139.5" height="15.1"/>
	</g>
	<g id="cars">
		<path class="st25" d="M259,545h135c0,0,6.6-8,0-20h-30l-16.5-22H296l-22.2,21H255v21"/>
		<polygon class="st10" points="347.5,503 343.7,508.2 357.4,527.7 364,525 		"/>
		<circle class="st26" cx="301.4" cy="544.6" r="12.5"/>
		<circle class="st26" cx="354.7" cy="544.6" r="12.5"/>
		<polygon class="st10" points="295,503 299.6,507.4 280.1,525.5 272.8,524 		"/>
		<polygon class="st27" points="300.6,507.4 321.8,507.8 343.7,508.2 347.5,503 296,503 		"/>
		<path class="st27" d="M321,525.5l0.4-17.7l22.1,0.4l13.9,19.5l-9.8,6.6c0,0-6,2.1-5.7,10.2L321,545V525.5z"/>
		<rect x="323" y="526" class="st28" width="5" height="2"/>
		<path class="st10" d="M326,524h22l-6.9-12.9c0,0-6.8-5.5-15.1,0V524z"/>
		
			<ellipse transform="matrix(0.1594 -0.9872 0.9872 0.1594 -284.6076 755.7101)" class="st29" cx="301.5" cy="545" rx="6.1" ry="6.1"/>
		
			<ellipse transform="matrix(0.8881 -0.4596 0.4596 0.8881 -210.6154 223.9476)" class="st29" cx="354.7" cy="544.6" rx="6.1" ry="6.1"/>
		<path class="st27" d="M298.5,507.6L278,525.5V545l9.9,0.6c0,0,0.2-14.6,13-13.5s12.7,12.5,12.7,12.5l8.3,0.4l-0.5-37.2
			L298.5,507.6z"/>
		<path class="st10" d="M316,524h-24.9l10.1-12.1c0,0,7.8-7.7,14.8,0V524z"/>
		<path class="st30" d="M811,502h135c0,0,6.6-8,0-20h-30l-16.5-22H848l-22.2,21H807v21"/>
		<polygon class="st10" points="899.5,460 895.7,465.2 909.4,484.7 916,482 		"/>
		<circle class="st26" cx="853.4" cy="501.6" r="12.5"/>
		<circle class="st26" cx="906.7" cy="501.6" r="12.5"/>
		<polygon class="st10" points="847,460 851.6,464.4 832.1,482.5 824.8,481 		"/>
		<polygon class="st31" points="852.6,464.4 873.8,464.8 895.7,465.2 899.5,460 848,460 		"/>
		<path class="st31" d="M873,482.5l0.4-17.7l22.1,0.4l13.9,19.5l-9.8,6.6c0,0-6,2.1-5.7,10.2L873,502V482.5z"/>
		<rect x="875" y="483" class="st28" width="5" height="2"/>
		<path class="st10" d="M878,481h22l-6.9-12.9c0,0-6.8-5.5-15.1,0V481z"/>
		
			<ellipse transform="matrix(0.1594 -0.9872 0.9872 0.1594 221.8025 1264.4611)" class="st29" cx="853.4" cy="502" rx="6.1" ry="6.1"/>
		
			<ellipse transform="matrix(0.8881 -0.4596 0.4596 0.8881 -129.0966 472.8362)" class="st29" cx="906.7" cy="501.6" rx="6.1" ry="6.1"/>
		<path class="st31" d="M850.5,464.6L830,482.5V502l9.9,0.6c0,0,0.2-14.6,13-13.5s12.7,12.5,12.7,12.5l8.3,0.4l-0.5-37.2
			L850.5,464.6z"/>
		<path class="st10" d="M868,481h-24.9l10.1-12.1c0,0,7.8-7.7,14.8,0L868,481L868,481z"/>
	</g>
</g>
<g id="trees">
	<g>
		<polygon class="st3" points="375,414 375,354.6 374.6,353.7 344,455 374,455 374,414 		"/>
		<polygon class="st32" points="405.6,455 375,353.4 375,354.6 375,414 376,414 376,455 405.3,455 		"/>
		<g>
			<polygon class="st33" points="375,414 374,414 374,454.5 374,487 376,487 376,454.5 376,414 			"/>
		</g>
	</g>
	<g>
		<polygon class="st3" points="724,417 724,357.2 723.5,356 692.7,457 723,457 723,417 		"/>
		<polygon class="st32" points="754.4,457 724,356.1 724,357.2 724,417 725,417 725,457 754.1,457 		"/>
		<g>
			<polygon class="st33" points="723.8,417 723,417 723,457.1 723,489 725,489 725,457.1 725,417 			"/>
		</g>
	</g>
	<g>
		<g>
			<path class="st34" d="M1227.5,423.9l2.1-2l12.4,12.7V421h1v-39.9c-17,0-31.1,14.2-31.1,31.7c0,17.1,13.1,31,30.1,31.7v-5.9
				L1227.5,423.9z"/>
		</g>
		<g>
			<path class="st35" d="M1274.1,412.8c0-17.5-14.1-31.7-31.1-31.7V421h1v6.6l12.4-12.7l1.9,2l-14.3,14.7v12.9
				C1261,443.8,1274.1,429.9,1274.1,412.8z"/>
		</g>
		<g>
			<polygon class="st33" points="1244,431.6 1258.3,416.9 1256.3,414.9 1244,427.6 1244,421 1242.9,421 1242,421 1242,434.6 
				1229.5,421.9 1227.7,423.9 1242,438.6 1242,444.5 1242,488 1244,488 1244,444.5 			"/>
		</g>
	</g>
	<g>
		<g>
			<path class="st34" d="M214.6,423.1l2-2l12.4,12.7V420h1v-39.7c-17.3,0-31.1,14.2-31.1,31.7c0,17.1,13.1,31,30.1,31.7v-5.9
				L214.6,423.1z"/>
		</g>
		<g>
			<path class="st35" d="M261.1,412.1c0-17.5-13.8-31.7-31.1-31.7V420h1v6.9l12.5-12.7l1.8,2L231,430.9v12.9
				C248,443.1,261.1,429.1,261.1,412.1z"/>
		</g>
		<g>
			<polygon class="st33" points="231,430.9 245.4,416.2 243.4,414.2 231,426.9 231,420 230,420 229,420 229,433.8 216.5,421.1 
				214.7,423.1 229,437.9 229,443.8 229,488 231,488 231,443.8 			"/>
		</g>
	</g>
	<g>
		<g>
			<path class="st34" d="M959.6,424.3l2-2L974,435v-14h1v-39.5c-17,0-31.1,14.2-31.1,31.7c0,17.1,13.1,31,30.1,31.7V439L959.6,424.3
				z"/>
		</g>
		<g>
			<path class="st35" d="M1006.1,413.2c0-17.5-14.1-31.7-31.1-31.7V421h1v7l12.5-12.7l1.8,2L976,432v13
				C993,444.2,1006.1,430.3,1006.1,413.2z"/>
		</g>
		<g>
			<polygon class="st33" points="976,432 990.4,417.3 988.4,415.3 976,428 976,421 975,421 974,421 974,435 961.5,422.3 
				959.7,424.3 974,439 974,445 974,489 976,489 976,445 			"/>
		</g>
	</g>
	<g>
		<polygon class="st3" points="66,421 66,363.7 65.5,362.6 30.7,459 64,459 64,421 		"/>
		<polygon class="st32" points="100.3,459 66,362.6 66,363.7 66,421 67,421 67,459 99.9,459 		"/>
		<g>
			<polygon class="st33" points="65.7,421 64,421 64,459 64,490 67,490 67,459 67,421 			"/>
		</g>
	</g>
	<g>
		<g>
			<path class="st34" d="M70.9,550.7l1.9-2L85,561.4V548h2v-40.1c-18,0-31.6,14.2-31.6,31.7c0,17.1,13.6,31,29.6,31.7v-5.9
				L70.9,550.7z"/>
		</g>
		<g>
			<path class="st35" d="M118.1,539.7c0-17.5-14.1-31.7-31.1-31.7v40h1v6.5l12.3-12.7l1.9,2L88,558.5v12.9
				C105,570.6,118.1,556.7,118.1,539.7z"/>
		</g>
		<g>
			<polygon class="st33" points="88,558.5 102.2,543.7 100.3,541.7 88,554.5 88,548 86.6,548 85,548 85,561.4 72.8,548.7 
				70.8,550.7 85,565.4 85,571.4 85,615 88,615 88,571.4 			"/>
		</g>
	</g>
	<g>
		<g>
			<path class="st34" d="M229.7,550.7l2-2l12.3,12.7V548h1v-40.1c-17,0-31.1,14.2-31.1,31.7c0,17.1,13.1,31,30.1,31.7v-5.9
				L229.7,550.7z"/>
		</g>
		<g>
			<path class="st35" d="M276.6,539.7c0-17.5-14.6-31.7-31.6-31.7v40h2v6.5l12.1-12.7l2,2L247,558.5v12.9
				C263,570.6,276.6,556.7,276.6,539.7z"/>
		</g>
		<g>
			<polygon class="st33" points="247,558.5 261,543.7 259.2,541.7 247,554.5 247,548 245.2,548 244,548 244,561.4 231.7,548.7 
				229.7,550.7 244,565.4 244,571.4 244,615 247,615 247,571.4 			"/>
		</g>
	</g>
	<g>
		<g>
			<path class="st34" d="M387.9,550.7l1.9-2l12.2,12.7V548h2v-40.1c-18,0-31.6,14.2-31.6,31.7c0,17.1,13.6,31,29.6,31.7v-5.9
				L387.9,550.7z"/>
		</g>
		<g>
			<path class="st35" d="M435.1,539.7c0-17.5-14.1-31.7-31.1-31.7v40h1v6.5l12.3-12.7l1.9,2L405,558.5v12.9
				C422,570.6,435.1,556.7,435.1,539.7z"/>
		</g>
		<g>
			<polygon class="st33" points="405,558.5 419.2,543.7 417.3,541.7 405,554.5 405,548 403.7,548 402,548 402,561.4 389.9,548.7 
				387.9,550.7 402,565.4 402,571.4 402,615 405,615 405,571.4 			"/>
		</g>
	</g>
	<g>
		<g>
			<path class="st34" d="M546.8,550.7l1.9-2l12.3,12.7V548h1v-40.1c-17,0-31.1,14.2-31.1,31.7c0,17.1,13.1,31,30.1,31.7v-5.9
				L546.8,550.7z"/>
		</g>
		<g>
			<path class="st35" d="M593.6,539.7c0-17.5-13.6-31.7-31.6-31.7v40h2v6.5l12.2-12.7l2,2L564,558.5v12.9
				C580,570.6,593.6,556.7,593.6,539.7z"/>
		</g>
		<g>
			<polygon class="st33" points="564,558.5 578.1,543.7 576.2,541.7 564,554.5 564,548 562.5,548 561,548 561,561.4 548.8,548.7 
				546.8,550.7 561,565.4 561,571.4 561,615 564,615 564,571.4 			"/>
		</g>
	</g>
	<g>
		<g>
			<path class="st34" d="M705.7,550.7l2-2l12.3,12.7V548h1v-40.1c-17,0-31.1,14.2-31.1,31.7c0,17.1,13.1,31,30.1,31.7v-5.9
				L705.7,550.7z"/>
		</g>
		<g>
			<path class="st35" d="M752.1,539.7c0-17.5-14.1-31.7-31.1-31.7v40h1v6.5l12.5-12.7l1.8,2L722,558.5v12.9
				C739,570.6,752.1,556.7,752.1,539.7z"/>
		</g>
		<g>
			<polygon class="st33" points="722,558.5 736.5,543.7 734.4,541.7 722,554.5 722,548 721.1,548 720,548 720,561.4 707.6,548.7 
				705.7,550.7 720,565.4 720,571.4 720,615 722,615 722,571.4 			"/>
		</g>
	</g>
	<g>
		<g>
			<path class="st34" d="M864,550.7l1.8-2l12.2,12.7V548h2v-40.1c-18,0-31.6,14.2-31.6,31.7c0,17.1,13.6,31,29.6,31.7v-5.9
				L864,550.7z"/>
		</g>
		<g>
			<path class="st35" d="M911.1,539.7c0-17.5-14.1-31.7-31.1-31.7v40h1v6.5l12.3-12.7l1.9,2L881,558.5v12.9
				C898,570.6,911.1,556.7,911.1,539.7z"/>
		</g>
		<g>
			<polygon class="st33" points="881,558.5 895.3,543.7 893.3,541.7 881,554.5 881,548 879.7,548 878,548 878,561.4 865.9,548.7 
				863.9,550.7 878,565.4 878,571.4 878,615 881,615 881,571.4 			"/>
		</g>
	</g>
	<g>
		<g>
			<path class="st34" d="M1022.8,550.7l1.9-2l12.3,12.7v-4.1V548h1v-40.1c-17,0-31.1,14.2-31.1,31.7c0,17.1,13.1,31,30.1,31.7v-5.9
				L1022.8,550.7z"/>
		</g>
		<g>
			<path class="st35" d="M1069.6,539.7c0-17.5-13.6-31.7-31.6-31.7v40h2v6.5l12.2-12.7l2,2l-14.2,14.7v5.8v7.1
				C1056,570.6,1069.6,556.7,1069.6,539.7z"/>
		</g>
		<g>
			<polygon class="st33" points="1037,557.3 1040,554.5 1040,548 1038.4,548 1037,548 			"/>
		</g>
		<g>
			<polygon class="st33" points="1037,557.3 1037,561.4 1040,564.3 1040,558.5 1039.1,559.3 			"/>
		</g>
		<g>
			<polygon class="st33" points="1037.9,566.3 1037,565.4 1037,571.4 1037,615 1040,615 1040,571.4 1040,564.3 			"/>
		</g>
		<g>
			<polygon class="st33" points="1037,561.4 1024.7,548.7 1022.8,550.7 1037,565.4 1037.8,566.3 1039.7,564.3 			"/>
		</g>
		<g>
			<polygon class="st33" points="1037,557.3 1038.9,559.3 1039.7,558.5 1054,543.7 1052,541.7 1039.7,554.5 			"/>
		</g>
	</g>
	<g>
		<g>
			<path class="st34" d="M1181.6,550.7l2-2l12.4,12.7V548h1v-40.1c-17.3,0-31.1,14.2-31.1,31.7c0,17.1,13.1,31,30.1,31.7v-5.9
				L1181.6,550.7z"/>
		</g>
		<g>
			<path class="st35" d="M1228.1,539.7c0-17.5-13.8-31.7-31.1-31.7v40h1v6.5l12.5-12.7l1.8,2l-14.3,14.7v12.9
				C1215,570.6,1228.1,556.7,1228.1,539.7z"/>
		</g>
		<g>
			<polygon class="st33" points="1198,558.5 1212.4,543.7 1210.4,541.7 1198,554.5 1198,548 1197,548 1196,548 1196,561.4 
				1183.5,548.7 1181.7,550.7 1196,565.4 1196,571.4 1196,615 1198,615 1198,571.4 			"/>
		</g>
	</g>
	<g>
		<g>
			<path class="st34" d="M320.8,423.1l1.9-2l12.3,12.7V420h1v-39.7c-17,0-31.1,14.2-31.1,31.7c0,17.1,13.1,31,30.1,31.7v-5.9
				L320.8,423.1z"/>
		</g>
		<g>
			<path class="st35" d="M367.6,412.1c0-17.5-13.6-31.7-31.6-31.7V420h2v6.9l12.2-12.7l2,2L338,430.9v12.9
				C354,443.1,367.6,429.1,367.6,412.1z"/>
		</g>
		<g>
			<polygon class="st33" points="338,430.9 352.1,416.2 350.2,414.2 338,426.9 338,420 336.4,420 335,420 335,433.8 322.7,421.1 
				320.8,423.1 335,437.9 335,443.8 335,488 338,488 338,443.8 			"/>
		</g>
	</g>
</g>
</svg>
