<?xml version="1.0" encoding="utf-8"?>
<!-- Generator: Adobe Illustrator 20.1.0, SVG Export Plug-In . SVG Version: 6.00 Build 0)  -->
<svg version="1.1" id="clouds" xmlns="http://www.w3.org/2000/svg" xmlns:xlink="http://www.w3.org/1999/xlink" x="0px" y="0px"
	 viewBox="0 0 1280 1000" style="enable-background:new 0 0 1280 1000;" xml:space="preserve">
<style type="text/css">
	.st0{fill:none;}
	.st1{fill:#FFFFFF;}
	.st2{fill:#FFB3B3;}
	.st3{fill:#D63D1A;}
	.st4{fill:#A32908;}
	.st5{fill:#ED9F5D;}
	.st6{fill:#632800;}
	.st7{fill:#F7B99A;}
	.st8{font-family:'ShowcardGothic-Reg';}
	.st9{font-size:58.5259px;}
	.st10{font-size:24.8761px;}
	.st11{fill:#F9A541;}
	.st12{fill:#F27503;}
</style>
<g>
	<path class="st0" d="M525.7,136.6c0,0.1,0,0.1,0,0.2c0,0.1,0,0.2,0,0.2h1.7c0,0,0-0.1,0-0.2C526.8,136.7,526.3,136.7,525.7,136.6z"
		/>
	<path class="st0" d="M530.9,137h2c0,0,0-0.1,0-0.2c0-0.1,0-0.1,0-0.1c-0.5,0-1.1,0.1-1.6,0.1c-0.1,0-0.2,0-0.4,0L530.9,137z"/>
	<path class="st1" d="M531.2,136.8c-0.1,0-0.2,0-0.4,0l0,0C531,136.8,531.1,136.8,531.2,136.8z"/>
	<path class="st1" d="M560.3,162.6c-0.1,0-0.3,0-0.4,0l0,0C560.1,162.6,560.3,162.6,560.3,162.6
		C560.4,162.6,560.4,162.6,560.3,162.6z"/>
	<path class="st1" d="M527.4,137h-1.7c0,0,0-0.1,0-0.2c0-0.1-0.2-0.1-0.2-0.2c0.6,0.1,1.5,0.1,1.5,0.2c0,0,0,0,0,0
		c0-0.1,0.2-0.1,0.2-0.2c1.1,0.1,2.3,0.2,3.4,0.2c0.1,0,0.1,0,0.2,0l-0.1-51.5c-0.6,0-1.1-0.1-1.7-0.1c-14.3,0-25.8,11.6-25.8,25.8
		c0,0.1,0,0.1,0,0.2c-1.1-0.1-2.2-0.2-3.3-0.2c-14.3,0-25.8,11.6-25.8,25.8c0,14.3,11.6,25.8,25.8,25.8c0.1,0,0.3-0.1,0.4-0.1
		l-0.1,0.4h30.7l-0.1-26H527.4z"/>
	<path class="st1" d="M558,111.1c-0.5,0-1,0-1.5,0.1c0,0,0,0.1,0,0.1C557,111.2,557.5,111.1,558,111.1z"/>
	<path class="st1" d="M532.8,137h1.7c0,0,0-0.2,0-0.2c0-0.1,0-0.2,0-0.3c-0.6,0.1-1.1,0.1-1.7,0.2c0,0,0,0.1,0,0.1
		C532.8,136.9,532.8,137,532.8,137z"/>
	<path class="st2" d="M560.4,162.6C560.4,162.6,560.4,162.6,560.4,162.6c14.3,0,25.8-11.6,25.8-25.8c0-14.3-11.6-25.8-25.8-25.8
		c-0.8,0-1.6,0.1-2.3,0.1c-0.5,0-1,0.1-1.5,0.2c0,0,0-0.1,0-0.1c0-0.1,0.1-0.1,0.1-0.2c0-14.3-11.7-25.9-25.7-25.9v0.2l0,51.5
		c0.1,0,0.2,0,0.3,0c0.5,0,1,0,1.6-0.1c0.6,0,1.1-0.1,1.7-0.2c0,0.1,0,0.2,0,0.3c0,0.1,0,0.2,0,0.2h-1.7h-2l0.1,26h27.3h1.7l0.1-0.4
		v0C560,162.6,560.2,162.6,560.4,162.6z"/>
	<path class="st2" d="M527.2,136.5c0,0.1-0.2,0.1-0.2,0.2c0,0,0,0,0,0c0,0.1,0.4,0.2,0.4,0.2h3.6v-0.2v0c0,0-0.3,0-0.3,0
		C529.6,136.8,528.3,136.7,527.2,136.5z"/>
</g>
<g>
	<path class="st0" d="M582.9,195c-0.1,0-0.3,0-0.4-0.1c0,0,0,0,0,0.1H582.9z"/>
	<path class="st1" d="M591.3,195C591.3,195,591.3,195,591.3,195C591.3,194.9,591.3,195,591.3,195c-0.2,0-0.4,0-0.6,0H591.3z"/>
	<path class="st1" d="M617.1,220.9c-0.1,0-0.3-0.1-0.4-0.1l0,0.2C616.9,220.9,617,220.9,617.1,220.9
		C617.2,220.9,617.1,220.9,617.1,220.9z"/>
	<path class="st1" d="M587.7,195.2c-0.1,0-0.1,0-0.2,0c-0.8,0-1.6-0.1-2.4-0.2h-1c0,0.1,0,0,0,0H584c0,0,0,0,0,0
		c0-0.1,0.1,0,0.1-0.1c0.3,0,0.7,0.1,1.1,0.1h2.5l-0.1-51.3c-0.6,0-1.1-0.1-1.7-0.1c-14.3,0-25.8,11.6-25.8,25.8c0,0.1,0,0.1,0,0.2
		c-1.1-0.1-2.2-0.2-3.3-0.2c-14.3,0-25.8,11.6-25.8,25.8c0,14.3,11.6,25.8,25.8,25.8c0.1,0,0.3-0.3,0.4-0.3L557,221h30.7
		L587.7,195.2z M582.9,195h-0.4c0,0,0,0,0-0.1C582.6,195,582.8,195,582.9,195z"/>
	<path class="st1" d="M614.5,169.5c-0.4,0-0.8,0-1.2,0.1c0,0,0,0.1,0,0.1C613.7,169.6,614.1,169.6,614.5,169.5z"/>
	<path class="st2" d="M617.1,220.9C617.1,220.9,617.2,220.9,617.1,220.9c14.3-0.1,25.8-11.5,25.8-25.8c0-14.3-11.6-25.8-25.8-25.8
		c-0.9,0-1.7,0.1-2.6,0.2c-0.4,0-0.8,0.1-1.2,0.1c0,0,0-0.1,0-0.1c0-0.1,0-0.1,0-0.2c0-14.3-11.6-26.1-25.8-26.1l0,0.5l0.1,51.3
		h-2.5c0.8,0.1,1.6,0.2,2.4,0.2c0.1,0,0.1,0,0.2,0l0.1,25.8H615h1.7l0,0l0-0.2C616.9,220.8,617,220.9,617.1,220.9z M591.3,195
		C591.3,195,591.3,195,591.3,195l-0.6,0C590.9,195,591.1,195,591.3,195C591.3,195,591.3,194.9,591.3,195z"/>
	<path class="st2" d="M584.2,195C584.2,195,584.2,195,584.2,195l1,0c-0.3,0-0.7-0.1-1-0.1C584.2,195,584.2,194.9,584.2,195z"/>
	<path class="st2" d="M584.2,195L584.2,195C584.2,195,584.2,195.1,584.2,195z"/>
</g>
<g>
	<path class="st0" d="M738.2,107.8C738.2,107.8,738.2,107.8,738.2,107.8C738.2,107.8,738.2,107.8,738.2,107.8
		C738.2,107.8,738.2,107.8,738.2,107.8z"/>
	<path class="st0" d="M738.2,108c0,0,0,0,0-0.1C738.2,108,738.2,108,738.2,108z"/>
	<path class="st0" d="M745.4,108c0,0-0.4,0-0.4-0.1c0,0,0,0,0,0c0,0,0-0.1,0-0.1c0,0,0,0,0,0c0,0,0,0,0,0c0,0,0,0,0,0
		c0-0.1,0.3-0.2,0.3-0.3c-1.2,0.2-2.3,0.3-3.3,0.3v0.2H745.4z"/>
	<path class="st0" d="M738,107.5C738,107.5,738,107.5,738,107.5c1,0.2,2.5,0.2,3.6,0.2c0.1,0,0.4,0,0.4,0v0c0,0-0.3,0-0.4,0
		C740.5,107.8,739,107.7,738,107.5z"/>
	<path class="st1" d="M745.3,107.8c0-0.1,0-0.2,0-0.3c0,0,0,0,0,0C745.4,107.6,745.3,107.7,745.3,107.8
		C745.3,107.8,745.3,107.8,745.3,107.8z"/>
	<path class="st1" d="M771,82c14.3,0,26,11.6,26,25.8c0,0,0,0,0,0C797,93.5,785.2,82,771,82c-1.3,0-2,0.1-4,0.3c0,0,0,0,0,0
		C769,82.1,769.7,82,771,82z"/>
	<path class="st1" d="M745.3,107.8c0,0,0,0.1,0,0.1C745.3,107.9,745.3,107.8,745.3,107.8z"/>
	<path class="st1" d="M738.2,108c0,0-0.1,0-0.1-0.1c0,0-0.1-0.1-0.1-0.1c0,0,0,0,0,0c0-0.1,0,0.2,0,0.2h0c0,0,0-0.5,0-0.5
		c1,0.1,2.3,0.2,3.5,0.2c0.1,0,0.2-0.1,0.2-0.1L741.5,56h0c-14.3,0-25.8,11.6-25.8,25.9c0,0.1,0,0.2,0,0.3c-1.1-0.1-2.2-0.2-3.3-0.2
		c-14.3,0-25.8,11.6-25.8,25.8c0,14.3,11.6,25.8,25.8,25.8c0.1,0,0.3,0,0.4,0l-0.1,0.4h29l-0.1-26H738.2z"/>
	<path class="st1" d="M745.3,107.9C745.4,108,745.4,108,745.3,107.9C745.4,108,745.4,108,745.3,107.9z"/>
	<path class="st1" d="M767,82c0-3.2-0.6-6.3-1.7-9.2C766.4,75.6,767,78.7,767,82C767,82,767,82,767,82z"/>
	<path class="st2" d="M738.2,108h-0.1c0,0-0.1-0.3-0.1-0.2c0,0,0,0,0,0c0,0,0,0,0,0c0,0,0.1,0.1,0.1,0.1
		C738.1,108,738.2,108,738.2,108h3.8v-0.2c0,0-0.2,0.2-0.3,0.2C740.6,108,739.3,108,738.2,108z"/>
	<path class="st2" d="M771,82c-1.3,0-2,0.1-4,0.3c0,0,0,0,0,0c0-0.1,0-0.2,0-0.3c0,0,0,0,0,0c0-3.2-0.2-6.3-1.3-9.2
		C762,63,753,56.1,742,56.1v0.1v51.6v0c1,0,2.3,0.2,3.5-0.8c0,0-0.2,0-0.2,0c0,1-0.3,0.7-0.3,0.8c0,0,0,0,0,0c0,0,0,0,0,0
		c0,0,0,0.1,0,0.1c0,0,0,0,0,0c0,0,0.4,0.1,0.4,0.1h-3.6l0.1,26h29l0-0.4c0.1,0,0.3,0,0.4,0c14.3,0,25.8-11.6,25.8-25.8c0,0,0,0,0,0
		C797,93.5,785.2,82,771,82z"/>
</g>
<g>
	<path class="st0" d="M1203.2,101h2c0,0,0-0.1,0-0.2c0-0.1,0-0.1,0-0.1c-0.5,0-1.1,0.1-1.6,0.1c-0.1,0-0.2,0-0.4,0L1203.2,101z"/>
	<path class="st0" d="M1198,100.6c0,0.1,0,0.1,0,0.2c0,0.1,0,0.2,0,0.2h1.7c0,0,0-0.1,0-0.2C1199.1,100.8,1198.6,100.7,1198,100.6z"
		/>
	<path class="st1" d="M1203.6,100.8c-0.1,0-0.2,0-0.4,0v0C1203.3,100.8,1203.4,100.8,1203.6,100.8z"/>
	<path class="st1" d="M1230.3,75.1c-0.5,0-1,0-1.4,0.1c0,0,0,0.1,0,0.1C1229.3,75.2,1229.8,75.1,1230.3,75.1z"/>
	<path class="st1" d="M1199.7,101h-1.7c0,0,0-0.1,0-0.2c0-0.1,0.1-0.1,0.1-0.2c0.6,0.1,0.8,0.1,1.8,0.2c0,0,0,0,0,0
		c0-0.1-0.2-0.1-0.2-0.2c1.1,0.1,2.1,0.2,3.3,0.2c0.1,0,0.1,0,0.1,0l-0.2-51.5c-0.6,0-1.1-0.1-1.7-0.1c-14.3,0-25.8,11.6-25.8,25.8
		c0,0.1,0,0.1,0,0.2c-1.1-0.1-2.2-0.2-3.4-0.2c-14.3,0-25.8,11.6-25.8,25.8c0,14.3,11.6,25.8,25.8,25.8c0.1,0,0.3-0.1,0.4-0.1
		l-0.1,0.4h30.7l-0.1-26H1199.7z"/>
	<path class="st1" d="M1205.2,101h1.7c0,0,0-0.1,0-0.2c0-0.1,0-0.2,0-0.3c-0.6,0.1-1.1,0.1-1.7,0.2c0,0,0,0.1,0,0.1
		C1205.2,100.9,1205.2,101,1205.2,101z"/>
	<path class="st1" d="M1232.6,126.6c-0.1,0-0.3,0-0.4,0l0,0.1C1232.4,126.6,1232.6,126.6,1232.6,126.6
		C1232.7,126.6,1232.7,126.6,1232.6,126.6z"/>
	<path class="st2" d="M1232.5,126.6c0,0,0.1,0,0.2,0c14.2,0,25.8-11.6,25.8-25.8c0-14.3-11.5-25.8-25.8-25.8c-0.8,0-1.6,0.1-2.3,0.1
		c-0.5,0-1,0.1-1.4,0.2c0,0,0-0.1,0-0.1c0-0.1,0-0.1,0-0.2c0-14.3-11.8-25.9-25.8-25.9v0.3l0.2,51.5c0.1,0,0.3,0,0.4,0
		c0.5,0,1.1,0,1.6-0.1c0.6,0,1.1-0.1,1.7-0.2c0,0.1,0,0.2,0,0.3c0,0.1,0,0.2,0,0.2h-1.7h-2l0.1,26h27.3h1.7l-0.3-0.4v-0.1
		C1232,126.6,1232.4,126.6,1232.5,126.6z"/>
	<path class="st2" d="M1199.8,100.6c0,0.1,0.2,0.1,0.2,0.2c0,0,0,0,0,0c0,0.1-0.3,0.2-0.3,0.2h3.3v-0.2v0c0,0,0.1,0,0,0
		C1201.9,100.8,1200.9,100.7,1199.8,100.6z"/>
</g>
<g>
	<g>
		<path class="st3" d="M1158.7,101.3c0-22.1-9.8-41.1-23.8-49.3c14.8,19.5,14.6,80.6-0.6,98.9
			C1148.6,142.9,1158.7,123.7,1158.7,101.3z"/>
	</g>
	<g>
		<path class="st4" d="M1073,101.2c0,0.2,0,0.4,0,0.6C1073,101.5,1073,101.3,1073,101.2C1073,101.1,1073,101.1,1073,101.2z"/>
	</g>
	<g>
		<path class="st4" d="M1134.8,52.1c-2.9-3.8-6.3-6-10.4-6c-2.1,0-4.2,0.2-6.3,0.4c19.4,8.8,19.2,101.8-0.5,109.3
			c2.2,0.3,4.5,0.5,6.8,0.5c3.8,0,7-1.9,9.8-5.3C1149.4,132.6,1149.6,71.5,1134.8,52.1z"/>
	</g>
	<g>
		<path class="st5" d="M1118.2,46.5c-1-0.4-2-0.7-3-0.7c-23.3,0-42.1,24.7-42.1,55.2c0,0,0,0,0,0.1c0,0.2,0,0.4,0,0.6
			c0.3,30.2,19,54.6,42.1,54.6c0.9,0,1.7-0.2,2.6-0.5C1137.4,148.3,1137.5,55.3,1118.2,46.5z M1109.4,150.5
			c-16.4,0-29.7-22.2-29.7-49.5c0-27.3,13.3-49.5,29.7-49.5S1125.8,150.5,1109.4,150.5z"/>
	</g>
	<g>
		<path class="st6" d="M1109,51.5c-16,0-29.7,22.2-29.7,49.5c0,27.3,13.7,49.5,29.7,49.5C1126,150.5,1126,51.5,1109,51.5z"/>
	</g>
</g>
<text transform="matrix(0.6018 0 0 1 1087.7913 123.066)" class="st7 st8 st9">T</text>
<g>
	<text transform="matrix(0.9427 0 0 1 1105.4045 123.066)" class="st7 st8 st10">s</text>
</g>
<g>
	<path class="st0" d="M196,205c-0.6,0-1.1,0-1.7-0.1c0,0.1,0,0.4,0,0.4c0,0.1,0,0.7,0,0.7h1.7c0,0,0-0.6,0-0.7
		C196,205.2,196,205.1,196,205z"/>
	<path class="st0" d="M201.5,206c0,0,0-0.6,0-0.7c0-0.1,0-0.4,0-0.6c-0.7,0.1-1.3,0.1-2,0.2l0,1.1H201.5z"/>
	<path class="st0" d="M199.4,204.9c0,0,0.1,0,0.1,0l0,0c-0.1,0-0.3,0-0.4,0C199.2,204.9,199.3,204.9,199.4,204.9z"/>
	<path class="st1" d="M196,206h-1.7c0,0,0-0.6,0-0.7c0-0.1,0-0.4,0-0.4c0.6,0.1,1.1,0.1,1.7,0.1c0-0.1,0-0.1,0-0.2
		c1,0.1,2,0.1,3,0.1c0.1,0,0.3,0,0.4,0l-0.1-51.3c1.3,0,2.5,0.1,3.7,0.3c-1.7-0.4-3.5-0.6-5.4-0.6c-14.3,0-25.8,11.6-25.8,25.8
		c0,0.1,0,0.1,0,0.2c-1.1-0.1-2.2-0.2-3.3-0.2c-14.3,0-25.8,11.6-25.8,25.8c0,14.3,11.6,25.8,25.8,25.8c0.1,0,0.3,0.4,0.4,0.4
		l-0.1,0.9h30.7l-0.1-26H196z"/>
	<path class="st1" d="M227.5,179.1c-0.1,0-0.2,0-0.3,0c-0.7,0-1.4,0-2.1,0.1c0,0,0,0.1,0,0.1C225.9,179.2,226.7,179.1,227.5,179.1z"
		/>
	<path class="st1" d="M229,230.9C229,230.9,229,230.9,229,230.9C229,230.9,229,230.9,229,230.9C229,230.9,229,230.9,229,230.9z"/>
	<path class="st1" d="M201.5,206h1.7c0,0,0-0.6,0-0.7c0-0.1,0-0.7,0-0.8c-0.6,0.1-1.1,0.2-1.7,0.2c0,0.2,0,0.5,0,0.6
		C201.5,205.4,201.5,206,201.5,206z"/>
	<path class="st2" d="M199.1,204.9c-1,0-2,0-3-0.1c0,0,0,0.1,0,0.2c0,0.1,0,0.2,0,0.3c0,0.1,0,0.7,0,0.7h3.5l0-1.1c0,0-0.1,0-0.1,0
		C199.3,204.9,199.2,204.9,199.1,204.9z"/>
	<path class="st2" d="M229,230.9c14.2,0,25.7-11.7,25.7-25.9c0-14.3-11.6-25.9-25.8-25.9c-0.5,0-0.9,0-1.4,0c-0.8,0-1.6,0.1-2.4,0.2
		c0,0,0-0.1,0-0.1c0-0.1,0-0.1,0-0.2c0-13-9.6-23.4-22.1-25.2c-1.2-0.2-2.2-0.3-3.5-0.3l0.4,51.3v0c0,0,1.1-0.1,1.7-0.2
		c0.6-0.1,1-0.2,1.6-0.2c0,0.1-0.1,0.7-0.1,0.8c0,0.1-0.1,0.7-0.1,0.7h-1.7h-2l0.1,26h27.3h1.7l0-0.9
		C228.7,231.1,228.8,230.9,229,230.9C229,230.9,229,230.9,229,230.9C229,230.9,229,230.9,229,230.9z"/>
</g>
<g>
	<path class="st11" d="M142,115.2V36c-22,0-39.8,17.8-39.8,39.8s17.8,39.8,39.8,39.8s39.8-17.8,39.8-39.8c0-0.1,0-0.1,0-0.2
		C181.7,97.5,164,115.2,142,115.2z"/>
	<path class="st12" d="M142,35.7V36v79.2c22,0,40-17.7,40-39.6c0-0.1,0-0.1,0-0.2C182,53.5,164,35.7,142,35.7z"/>
	<polygon class="st11" points="142,14.7 133.5,30 150.5,30 	"/>
	<polygon class="st11" points="116,37.7 99.1,32.9 103.9,49.7 	"/>
	<polygon class="st11" points="99.1,118.7 116,113.9 103.9,101.8 	"/>
	<polygon class="st11" points="97,84.3 97,67.2 81.7,75.8 	"/>
	<polygon class="st12" points="142,136.3 150.5,121 133.5,121 	"/>
	<polygon class="st12" points="168,113.5 184.9,118.3 180.1,101.5 	"/>
	<polygon class="st12" points="180.1,49.4 184.9,32.5 168,37.3 	"/>
	<polygon class="st12" points="187,66.9 187,84 202.3,75.4 	"/>
</g>
</svg>
