<svg width="1402" height="570" xmlns="http://www.w3.org/2000/svg">
 <style type="text/css">.st0{fill:#F9E0D7;}
	.st1{fill:#595552;}
	.st2{fill:#CCCCCC;}
	.st3{fill:#ED9F5D;}
	.st4{fill:#87310F;}
	.st5{font-family:'Ravie';}
	.st6{font-size:89px;}
	.st7{fill:#603813;}
	.st8{fill:#F4D592;}
	.st9{fill:#AFADA8;}
	.st10{fill:#FFFFFF;}
	.st11{fill:none;stroke:#FFFFFF;stroke-miterlimit:10;}
	.st12{fill:#F77272;}
	.st13{fill:#FFD4D4;}
	.st14{fill:#44250C;}
	.st15{fill:#935D38;}
	.st16{fill:#EACDB9;}
	.st17{fill:none;stroke:#603813;stroke-miterlimit:10;}
	.st18{fill:#351C0C;}
	.st19{fill:#9B4805;}
	.st20{fill:#E5AD9A;}
	.st21{fill:#492A0F;}
	.st22{fill:#CC816D;}
	.st23{fill:#5B1B1B;}
	.st24{fill:#E54242;}
	.st25{fill:#B22622;}
	.st26{fill:#383838;}
	.st27{fill:#933206;}
	.st28{fill:#0F0202;}
	.st29{fill:#E6E6E6;stroke:#FFFFFF;stroke-width:2;stroke-miterlimit:10;}
	.st30{fill:#C47A05;}
	.st31{fill:#EA9D13;}
	.st32{fill:#43451E;}
	.st33{fill:#54321B;}
	.st34{fill:#D63D1A;}
	.st35{fill:#A32908;}</style>

 <g>
  <title>background</title>
  <rect fill="none" id="canvas_background" height="572" width="1404" y="-1" x="-1"/>
 </g>
 <g>
  <title>Layer 1</title>
  <line fill="none" stroke-width="null" stroke-opacity="null" x1="760.5" y1="179" x2="774.5" y2="482" id="svg_559" stroke-linejoin="null" stroke-linecap="null" stroke="null"/>
  <line fill="none" stroke-width="null" x1="790.5" y1="196" x2="803.5" y2="476" id="svg_560" stroke-linejoin="null" stroke-linecap="null" stroke="null"/>
  <rect fill="#894F3F" stroke-width="0" x="786.500001" y="9.999963" width="19.000001" height="478.000021" id="svg_561" rx="5" stroke="#000000"/>
  <rect fill="#FFDFB8" stroke-width="0" stroke-opacity="null" x="795.5" y="11.000031" width="8.000001" height="477.999939" id="svg_590" rx="3" stroke="#000000"/>
  <g id="mid">
   <g id="Road" stroke="null">
    <g id="svg_2" stroke="null">
     <rect x="0.074288" id="svg_3" height="70.3" width="1401.888558" class="st1" y="490.7" stroke="null"/>
    </g>
    <g id="svg_4" stroke="null">
     <rect x="2" id="svg_5" height="5.7" width="1398.888658" class="st2" y="484.9" stroke="null"/>
    </g>
    <g id="svg_6" stroke="null">
     <rect x="2" id="svg_7" height="13.4" width="1398.000029" class="st2" y="561" stroke="null"/>
    </g>
   </g>
   <g id="building1">
    <rect id="svg_10" height="29.4" width="133.3" class="st7" y="295.9" x="415.800015"/>
    <g id="svg_11">
     <rect id="svg_12" height="163.4" width="139.2" class="st8" y="323.5" x="413.300015"/>
    </g>
    <g id="svg_13">
     <rect id="svg_14" height="36.6" width="29.6" class="st9" y="340.9" x="426.700015"/>
     <path id="svg_15" d="m455.90001,341.4l0,35.6l-28.6,0l0,-35.6l28.6,0m1,-1l-30.6,0l0,37.6l30.6,0l0,-37.6l0,0z" class="st10"/>
    </g>
    <line id="svg_16" y2="342" x2="441.500015" y1="376" x1="441.500015" class="st11"/>
    <line id="svg_17" y2="354.5" x2="427.000015" y1="354.5" x1="456.000015" class="st11"/>
    <line id="svg_18" y2="365.5" x2="427.000015" y1="365.5" x1="456.000015" class="st11"/>
    <g id="svg_19">
     <rect id="svg_20" height="36.6" width="29.6" class="st9" y="391" x="426.700015"/>
     <path id="svg_21" d="m455.90001,391.5l0,35.6l-28.6,0l0,-35.6l28.6,0m1,-1l-30.6,0l0,37.6l30.6,0l0,-37.6l0,0z" class="st10"/>
    </g>
    <line id="svg_22" y2="392" x2="441.500015" y1="427" x1="441.500015" class="st11"/>
    <line id="svg_23" y2="404.5" x2="427.000015" y1="404.5" x1="456.000015" class="st11"/>
    <line id="svg_24" y2="415.5" x2="427.000015" y1="415.5" x1="456.000015" class="st11"/>
    <g id="svg_25">
     <rect id="svg_26" height="36.6" width="29.6" class="st9" y="340.9" x="468.100015"/>
     <path id="svg_27" d="m497.20002,341.4l0,35.6l-28.60001,0l0,-35.6l28.60001,0m1,-1l-30.60001,0l0,37.6l30.60001,0l0,-37.6l0,0z" class="st10"/>
    </g>
    <line id="svg_28" y2="342" x2="482.500015" y1="376" x1="482.500015" class="st11"/>
    <line id="svg_29" y2="354.5" x2="468.000015" y1="354.5" x1="497.000015" class="st11"/>
    <line id="svg_30" y2="365.5" x2="468.000015" y1="365.5" x1="497.000015" class="st11"/>
    <g id="svg_31">
     <rect id="svg_32" height="36.6" width="29.6" class="st9" y="391" x="468.100015"/>
     <path id="svg_33" d="m497.20002,391.5l0,35.6l-28.60001,0l0,-35.6l28.60001,0m1,-1l-30.60001,0l0,37.6l30.60001,0l0,-37.6l0,0z" class="st10"/>
    </g>
    <line id="svg_34" y2="392" x2="482.500015" y1="427" x1="482.500015" class="st11"/>
    <line id="svg_35" y2="404.5" x2="468.000015" y1="404.5" x1="497.000015" class="st11"/>
    <line id="svg_36" y2="415.5" x2="468.000015" y1="415.5" x1="497.000015" class="st11"/>
    <g id="svg_37">
     <rect id="svg_38" height="36.6" width="29.6" class="st9" y="340.9" x="509.500015"/>
     <path id="svg_39" d="m538.60001,341.4l0,35.6l-28.6,0l0,-35.6l28.6,0m1,-1l-30.6,0l0,37.6l30.6,0l0,-37.6l0,0z" class="st10"/>
    </g>
    <line id="svg_40" y2="342" x2="523.500015" y1="376" x1="523.500015" class="st11"/>
    <line id="svg_41" y2="354.5" x2="510.000015" y1="354.5" x1="539.000015" class="st11"/>
    <line id="svg_42" y2="365.5" x2="510.000015" y1="365.5" x1="539.000015" class="st11"/>
    <g id="svg_43">
     <rect id="svg_44" height="36.6" width="29.6" class="st9" y="391" x="509.500015"/>
     <path id="svg_45" d="m538.60001,391.5l0,35.6l-28.6,0l0,-35.6l28.6,0m1,-1l-30.6,0l0,37.6l30.6,0l0,-37.6l0,0z" class="st10"/>
    </g>
    <line id="svg_46" y2="392" x2="523.500015" y1="427" x1="523.500015" class="st11"/>
    <line id="svg_47" y2="404.5" x2="510.000015" y1="404.5" x1="539.000015" class="st11"/>
    <line id="svg_48" y2="415.5" x2="510.000015" y1="415.5" x1="539.000015" class="st11"/>
    <rect id="svg_49" height="36.5" width="5.8" class="st10" y="295.9" x="413.400015"/>
    <rect id="svg_50" height="36.5" width="5.8" class="st10" y="295.9" x="546.700015"/>
    <g id="svg_51">
     <rect id="svg_52" height="26" width="9.9" class="st8" y="274.2" x="520.800015"/>
    </g>
    <rect id="svg_53" height="4.3" width="5.7" y="269.9" x="522.800015"/>
    <g id="svg_54">
     <rect id="svg_55" height="36.6" width="29.6" class="st9" y="442.7" x="426.700015"/>
     <path id="svg_56" d="m455.90001,443.2l0,35.6l-28.6,0l0,-35.6l28.6,0m1,-1l-30.6,0l0,37.6l30.6,0l0,-37.6l0,0z" class="st10"/>
    </g>
    <line id="svg_57" y2="444" x2="441.500015" y1="479" x1="441.500015" class="st11"/>
    <line id="svg_58" y2="456.5" x2="427.000015" y1="456.5" x1="456.000015" class="st11"/>
    <line id="svg_59" y2="468.5" x2="427.000015" y1="468.5" x1="456.000015" class="st11"/>
    <g id="svg_60">
     <rect id="svg_61" height="36.6" width="29.6" class="st9" y="442.7" x="468.100015"/>
     <path id="svg_62" d="m497.20002,443.2l0,35.6l-28.60001,0l0,-35.6l28.60001,0m1,-1l-30.60001,0l0,37.6l30.60001,0l0,-37.6l0,0z" class="st10"/>
    </g>
    <line id="svg_63" y2="444" x2="482.500015" y1="479" x1="482.500015" class="st11"/>
    <line id="svg_64" y2="456.5" x2="468.000015" y1="456.5" x1="497.000015" class="st11"/>
    <line id="svg_65" y2="468.5" x2="468.000015" y1="468.5" x1="497.000015" class="st11"/>
    <g id="svg_66">
     <rect id="svg_67" height="36.6" width="29.6" class="st9" y="442.7" x="509.500015"/>
     <path id="svg_68" d="m538.60001,443.2l0,35.6l-28.6,0l0,-35.6l28.6,0m1,-1l-30.6,0l0,37.6l30.6,0l0,-37.6l0,0z" class="st10"/>
    </g>
    <line id="svg_69" y2="444" x2="523.500015" y1="479" x1="523.500015" class="st11"/>
    <line id="svg_70" y2="456.5" x2="510.000015" y1="456.5" x1="539.000015" class="st11"/>
    <line id="svg_71" y2="468.5" x2="510.000015" y1="468.5" x1="539.000015" class="st11"/>
    <rect id="svg_72" height="28.7" width="133.3" class="st7" y="298.3" x="90.800015"/>
    <g id="svg_73">
     <rect id="svg_74" height="159.7" width="139.2" class="st12" y="325.3" x="88.300015"/>
    </g>
    <g id="svg_75">
     <rect id="svg_76" height="35.7" width="29.6" class="st13" y="342.3" x="97.700015"/>
     <path id="svg_77" d="m126.90001,342.8l0,34.7l-28.7,0l0,-34.7l28.7,0m1,-1l-30.7,0l0,36.7l30.60001,0l0,-36.7l0.09999,0z" class="st10"/>
    </g>
    <line id="svg_78" y2="343" x2="112.500015" y1="377" x1="112.500015" class="st11"/>
    <line id="svg_79" y2="355.5" x2="98.000015" y1="355.5" x1="127.000015" class="st11"/>
    <line id="svg_80" y2="366.5" x2="98.000015" y1="366.5" x1="127.000015" class="st11"/>
    <g id="svg_81">
     <rect id="svg_82" height="35.7" width="29.6" class="st13" y="391.3" x="97.700015"/>
     <path id="svg_83" d="m126.90001,391.8l0,34.7l-28.7,0l0,-34.7l28.7,0m1,-1l-30.7,0l0,36.7l30.60001,0l0,-36.7l0.09999,0z" class="st10"/>
    </g>
    <line id="svg_84" y2="392" x2="112.500015" y1="426" x1="112.500015" class="st11"/>
    <line id="svg_85" y2="404.5" x2="98.000015" y1="404.5" x1="127.000015" class="st11"/>
    <line id="svg_86" y2="415.5" x2="98.000015" y1="415.5" x1="127.000015" class="st11"/>
    <g id="svg_87">
     <rect id="svg_88" height="35.7" width="29.6" class="st13" y="342.3" x="139.100015"/>
     <path id="svg_89" d="m168.20002,342.8l0,34.7l-28.6,0l0,-34.7l28.6,0m1,-1l-30.6,0l0,36.7l30.6,0l0,-36.7l0,0z" class="st10"/>
    </g>
    <line id="svg_90" y2="343" x2="153.500015" y1="377" x1="153.500015" class="st11"/>
    <line id="svg_91" y2="355.5" x2="139.000015" y1="355.5" x1="168.000015" class="st11"/>
    <line id="svg_92" y2="366.5" x2="139.000015" y1="366.5" x1="168.000015" class="st11"/>
    <g id="svg_93">
     <rect id="svg_94" height="35.7" width="29.6" class="st13" y="391.3" x="139.100015"/>
     <path id="svg_95" d="m168.20002,391.8l0,34.7l-28.6,0l0,-34.7l28.6,0m1,-1l-30.6,0l0,36.7l30.6,0l0,-36.7l0,0z" class="st10"/>
    </g>
    <line id="svg_96" y2="392" x2="153.500015" y1="426" x1="153.500015" class="st11"/>
    <line id="svg_97" y2="404.5" x2="139.000015" y1="404.5" x1="168.000015" class="st11"/>
    <line id="svg_98" y2="415.5" x2="139.000015" y1="415.5" x1="168.000015" class="st11"/>
    <g id="svg_99">
     <rect id="svg_100" height="35.7" width="29.6" class="st13" y="342.3" x="180.500015"/>
     <path id="svg_101" d="m209.60002,342.8l0,34.7l-28.6,0l0,-34.7l28.6,0m1,-1l-30.6,0l0,36.7l30.6,0l0,-36.7l0,0z" class="st10"/>
    </g>
    <line id="svg_102" y2="343" x2="194.500015" y1="377" x1="194.500015" class="st11"/>
    <line id="svg_103" y2="355.5" x2="181.000015" y1="355.5" x1="210.000015" class="st11"/>
    <line id="svg_104" y2="366.5" x2="181.000015" y1="366.5" x1="210.000015" class="st11"/>
    <g id="svg_105">
     <rect id="svg_106" height="35.7" width="29.6" class="st13" y="391.3" x="180.500015"/>
     <path id="svg_107" d="m209.60002,391.8l0,34.7l-28.6,0l0,-34.7l28.6,0m1,-1l-30.6,0l0,36.7l30.6,0l0,-36.7l0,0z" class="st10"/>
    </g>
    <line id="svg_108" y2="392" x2="194.500015" y1="426" x1="194.500015" class="st11"/>
    <line id="svg_109" y2="404.5" x2="181.000015" y1="404.5" x1="210.000015" class="st11"/>
    <line id="svg_110" y2="415.5" x2="181.000015" y1="415.5" x1="210.000015" class="st11"/>
    <rect id="svg_111" height="35.6" width="5.8" class="st10" y="298.3" x="84.400015"/>
    <rect id="svg_112" height="35.6" width="5.8" class="st10" y="298.3" x="221.700015"/>
    <g id="svg_113">
     <rect id="svg_114" height="25.4" width="9.9" class="st12" y="277.1" x="191.800015"/>
    </g>
    <rect id="svg_115" height="4.2" width="5.7" class="st7" y="272.9" x="193.800015"/>
    <g id="svg_116">
     <rect id="svg_117" height="35.7" width="29.6" class="st13" y="441.8" x="97.700015"/>
     <path id="svg_118" d="m126.90001,442.3l0,34.7l-28.7,0l0,-34.7l28.7,0m1,-1l-30.7,0l0,36.7l30.60001,0l0,-36.7l0.09999,0z" class="st10"/>
    </g>
    <line id="svg_119" y2="443" x2="112.500015" y1="477" x1="112.500015" class="st11"/>
    <line id="svg_120" y2="455.5" x2="98.000015" y1="455.5" x1="127.000015" class="st11"/>
    <line id="svg_121" y2="466.5" x2="98.000015" y1="466.5" x1="127.000015" class="st11"/>
    <g id="svg_122">
     <rect id="svg_123" height="35.7" width="29.6" class="st13" y="441.8" x="139.100015"/>
     <path id="svg_124" d="m168.20002,442.3l0,34.7l-28.6,0l0,-34.7l28.6,0m1,-1l-30.6,0l0,36.7l30.6,0l0,-36.7l0,0z" class="st10"/>
    </g>
    <line id="svg_125" y2="443" x2="153.500015" y1="477" x1="153.500015" class="st11"/>
    <line id="svg_126" y2="455.5" x2="139.000015" y1="455.5" x1="168.000015" class="st11"/>
    <line id="svg_127" y2="466.5" x2="139.000015" y1="466.5" x1="168.000015" class="st11"/>
    <g id="svg_128">
     <rect id="svg_129" height="35.7" width="29.6" class="st13" y="441.8" x="180.500015"/>
     <path id="svg_130" d="m209.60002,442.3l0,34.7l-28.6,0l0,-34.7l28.6,0m1,-1l-30.6,0l0,36.7l30.6,0l0,-36.7l0,0z" class="st10"/>
    </g>
    <line id="svg_131" y2="443" x2="194.500015" y1="477" x1="194.500015" class="st11"/>
    <line id="svg_132" y2="455.5" x2="181.000015" y1="455.5" x1="210.000015" class="st11"/>
    <line id="svg_133" y2="466.5" x2="181.000015" y1="466.5" x1="210.000015" class="st11"/>
    <rect id="svg_134" height="28.7" width="133.3" class="st7" y="298.3" x="222.800015"/>
    <g id="svg_135">
     <rect id="svg_136" height="159.7" width="139.2" class="st12" y="325.3" x="220.300015"/>
    </g>
    <g id="svg_137">
     <rect id="svg_138" height="35.7" width="29.6" class="st13" y="342.3" x="233.700015"/>
     <path id="svg_139" d="m262.90001,342.8l0,34.7l-28.59999,0l0,-34.7l28.59999,0m1,-1l-30.59999,0l0,36.7l30.59999,0l0,-36.7l0,0z" class="st10"/>
    </g>
    <line id="svg_140" y2="343" x2="248.500015" y1="377" x1="248.500015" class="st11"/>
    <line id="svg_141" y2="355.5" x2="234.000015" y1="355.5" x1="263.000015" class="st11"/>
    <line id="svg_142" y2="366.5" x2="234.000015" y1="366.5" x1="263.000015" class="st11"/>
    <g id="svg_143">
     <rect id="svg_144" height="35.7" width="29.6" class="st13" y="391.3" x="233.700015"/>
     <path id="svg_145" d="m262.90001,391.8l0,34.7l-28.59999,0l0,-34.7l28.59999,0m1,-1l-30.59999,0l0,36.7l30.59999,0l0,-36.7l0,0z" class="st10"/>
    </g>
    <line id="svg_146" y2="392" x2="248.500015" y1="426" x1="248.500015" class="st11"/>
    <line id="svg_147" y2="404.5" x2="234.000015" y1="404.5" x1="263.000015" class="st11"/>
    <line id="svg_148" y2="415.5" x2="234.000015" y1="415.5" x1="263.000015" class="st11"/>
    <g id="svg_149">
     <rect id="svg_150" height="35.7" width="29.6" class="st13" y="342.3" x="275.100015"/>
     <path id="svg_151" d="m304.20002,342.8l0,34.7l-28.60001,0l0,-34.7l28.60001,0m1,-1l-30.60001,0l0,36.7l30.60001,0l0,-36.7l0,0z" class="st10"/>
    </g>
    <line id="svg_152" y2="343" x2="289.500015" y1="377" x1="289.500015" class="st11"/>
    <line id="svg_153" y2="355.5" x2="275.000015" y1="355.5" x1="304.000015" class="st11"/>
    <line id="svg_154" y2="366.5" x2="275.000015" y1="366.5" x1="304.000015" class="st11"/>
    <g id="svg_155">
     <rect id="svg_156" height="35.7" width="29.6" class="st13" y="391.3" x="275.100015"/>
     <path id="svg_157" d="m304.20002,391.8l0,34.7l-28.60001,0l0,-34.7l28.60001,0m1,-1l-30.60001,0l0,36.7l30.60001,0l0,-36.7l0,0z" class="st10"/>
    </g>
    <line id="svg_158" y2="392" x2="289.500015" y1="426" x1="289.500015" class="st11"/>
    <line id="svg_159" y2="404.5" x2="275.000015" y1="404.5" x1="304.000015" class="st11"/>
    <line id="svg_160" y2="415.5" x2="275.000015" y1="415.5" x1="304.000015" class="st11"/>
    <g id="svg_161">
     <rect id="svg_162" height="35.7" width="29.6" class="st13" y="342.3" x="316.500015"/>
     <path id="svg_163" d="m345.60001,342.8l0,34.7l-28.6,0l0,-34.7l28.6,0m1,-1l-30.6,0l0,36.7l30.6,0l0,-36.7l0,0z" class="st10"/>
    </g>
    <line id="svg_164" y2="343" x2="330.500015" y1="377" x1="330.500015" class="st11"/>
    <line id="svg_165" y2="355.5" x2="317.000015" y1="355.5" x1="346.000015" class="st11"/>
    <line id="svg_166" y2="366.5" x2="317.000015" y1="366.5" x1="346.000015" class="st11"/>
    <g id="svg_167">
     <rect id="svg_168" height="35.7" width="29.6" class="st13" y="391.3" x="316.500015"/>
     <path id="svg_169" d="m345.60001,391.8l0,34.7l-28.6,0l0,-34.7l28.6,0m1,-1l-30.6,0l0,36.7l30.6,0l0,-36.7l0,0z" class="st10"/>
    </g>
    <line id="svg_170" y2="392" x2="330.500015" y1="426" x1="330.500015" class="st11"/>
    <line id="svg_171" y2="404.5" x2="317.000015" y1="404.5" x1="346.000015" class="st11"/>
    <line id="svg_172" y2="415.5" x2="317.000015" y1="415.5" x1="346.000015" class="st11"/>
    <rect id="svg_173" height="35.6" width="5.8" class="st10" y="298.3" x="220.400015"/>
    <rect id="svg_174" height="35.6" width="5.8" class="st10" y="298.3" x="353.700015"/>
    <g id="svg_175">
     <rect id="svg_176" height="25.4" width="9.9" class="st12" y="277.1" x="327.800015"/>
    </g>
    <rect id="svg_177" height="4.2" width="5.7" class="st7" y="272.9" x="329.800015"/>
    <g id="svg_178">
     <rect id="svg_179" height="35.7" width="29.6" class="st13" y="441.8" x="233.700015"/>
     <path id="svg_180" d="m262.90001,442.3l0,34.7l-28.59999,0l0,-34.7l28.59999,0m1,-1l-30.59999,0l0,36.7l30.59999,0l0,-36.7l0,0z" class="st10"/>
    </g>
    <line id="svg_181" y2="443" x2="248.500015" y1="477" x1="248.500015" class="st11"/>
    <line id="svg_182" y2="455.5" x2="234.000015" y1="455.5" x1="263.000015" class="st11"/>
    <line id="svg_183" y2="466.5" x2="234.000015" y1="466.5" x1="263.000015" class="st11"/>
    <g id="svg_184">
     <rect id="svg_185" height="35.7" width="29.6" class="st13" y="441.8" x="275.100015"/>
     <path id="svg_186" d="m304.20002,442.3l0,34.7l-28.60001,0l0,-34.7l28.60001,0m1,-1l-30.60001,0l0,36.7l30.60001,0l0,-36.7l0,0z" class="st10"/>
    </g>
    <line id="svg_187" y2="443" x2="289.500015" y1="477" x1="289.500015" class="st11"/>
    <line id="svg_188" y2="455.5" x2="275.000015" y1="455.5" x1="304.000015" class="st11"/>
    <line id="svg_189" y2="466.5" x2="275.000015" y1="466.5" x1="304.000015" class="st11"/>
    <g id="svg_190">
     <rect id="svg_191" height="35.7" width="29.6" class="st13" y="441.8" x="316.500015"/>
     <path id="svg_192" d="m345.60001,442.3l0,34.7l-28.6,0l0,-34.7l28.6,0m1,-1l-30.6,0l0,36.7l30.6,0l0,-36.7l0,0z" class="st10"/>
    </g>
    <line id="svg_193" y2="443" x2="330.500015" y1="477" x1="330.500015" class="st11"/>
    <line id="svg_194" y2="455.5" x2="317.000015" y1="455.5" x1="346.000015" class="st11"/>
    <line id="svg_195" y2="466.5" x2="317.000015" y1="466.5" x1="346.000015" class="st11"/>
   </g>
   <g id="building_2">
    <rect id="svg_196" height="23" width="150.6" class="st14" y="328.6" x="575.200015"/>
    <g id="svg_197">
     <rect id="svg_198" height="104.6" width="157.3" class="st15" y="350.3" x="572.400015"/>
    </g>
    <g id="svg_199">
     <rect id="svg_200" height="33.6" width="33.6" class="st16" y="358" x="587.400015"/>
     <path id="svg_201" d="m620.60001,358.5l0,32.6l-32.6,0l0,-32.6l32.6,0m1,-1l-34.6,0l0,34.6l34.6,0l0,-34.6l0,0z" class="st7"/>
    </g>
    <line id="svg_202" y2="358" x2="604.500015" y1="391" x1="604.500015" class="st17"/>
    <line id="svg_203" y2="370.5" x2="588.000015" y1="370.5" x1="622.000015" class="st17"/>
    <line id="svg_204" y2="382.5" x2="588.000015" y1="382.5" x1="622.000015" class="st17"/>
    <g id="svg_205">
     <rect id="svg_206" height="33.6" width="33.6" class="st16" y="404.3" x="587.400015"/>
     <path id="svg_207" d="m620.60001,404.8l0,32.6l-32.6,0l0,-32.6l32.6,0m1,-1l-34.6,0l0,34.6l34.6,0l0,-34.6l0,0z" class="st7"/>
    </g>
    <line id="svg_208" y2="404" x2="604.500015" y1="438" x1="604.500015" class="st17"/>
    <line id="svg_209" y2="415.5" x2="588.000015" y1="415.5" x1="622.000015" class="st17"/>
    <line id="svg_210" y2="426.5" x2="588.000015" y1="426.5" x1="622.000015" class="st17"/>
    <g id="svg_211">
     <rect id="svg_212" height="33.6" width="33.6" class="st16" y="358" x="634.200015"/>
     <path id="svg_213" d="m667.30002,358.5l0,32.6l-32.6,0l0,-32.6l32.6,0m1,-1l-34.6,0l0,34.6l34.6,0l0,-34.6l0,0z" class="st7"/>
    </g>
    <line id="svg_214" y2="358" x2="651.500015" y1="391" x1="651.500015" class="st17"/>
    <line id="svg_215" y2="370.5" x2="633.000015" y1="370.5" x1="667.000015" class="st17"/>
    <line id="svg_216" y2="382.5" x2="633.000015" y1="382.5" x1="667.000015" class="st17"/>
    <g id="svg_217">
     <rect id="svg_218" height="33.6" width="33.6" class="st16" y="404.3" x="634.200015"/>
     <path id="svg_219" d="m667.30002,404.8l0,32.6l-32.6,0l0,-32.6l32.6,0m1,-1l-34.6,0l0,34.6l34.6,0l0,-34.6l0,0z" class="st7"/>
    </g>
    <line id="svg_220" y2="404" x2="651.500015" y1="438" x1="651.500015" class="st17"/>
    <line id="svg_221" y2="415.5" x2="633.000015" y1="415.5" x1="667.000015" class="st17"/>
    <line id="svg_222" y2="426.5" x2="633.000015" y1="426.5" x1="667.000015" class="st17"/>
    <g id="svg_223">
     <rect id="svg_224" height="33.6" width="33.6" class="st16" y="358" x="680.900015"/>
     <path id="svg_225" d="m714.10001,358.5l0,32.6l-32.6,0l0,-32.6l32.6,0m1,-1l-34.6,0l0,34.6l34.6,0l0,-34.6l0,0z" class="st7"/>
    </g>
    <line id="svg_226" y2="358" x2="697.500015" y1="391" x1="697.500015" class="st17"/>
    <line id="svg_227" y2="370.5" x2="681.000015" y1="370.5" x1="715.000015" class="st17"/>
    <line id="svg_228" y2="382.5" x2="681.000015" y1="382.5" x1="715.000015" class="st17"/>
    <g id="svg_229">
     <rect id="svg_230" height="33.6" width="33.6" class="st16" y="404.3" x="680.900015"/>
     <path id="svg_231" d="m714.10001,404.8l0,32.6l-32.6,0l0,-32.6l32.6,0m1,-1l-34.6,0l0,34.6l34.6,0l0,-34.6l0,0z" class="st7"/>
    </g>
    <line id="svg_232" y2="405" x2="697.500015" y1="438" x1="697.500015" class="st17"/>
    <line id="svg_233" y2="415.5" x2="681.000015" y1="415.5" x1="715.000015" class="st17"/>
    <line id="svg_234" y2="426.5" x2="681.000015" y1="426.5" x1="715.000015" class="st17"/>
    <rect id="svg_235" height="28.5" width="6.5" class="st2" y="328.6" x="572.400015"/>
    <rect id="svg_236" height="28.5" width="6.5" class="st2" y="328.6" x="723.100015"/>
    <g id="svg_237">
     <rect id="svg_238" height="20.3" width="11.2" class="st15" y="315.3" x="691.300015"/>
    </g>
    <rect id="svg_239" height="33" width="157.2" class="st18" y="454.9" x="572.400015"/>
    <rect id="svg_240" height="3.3" width="6.4" class="st7" y="311.9" x="693.500015"/>
   </g>
   <g id="building_3">
    <rect id="svg_241" height="28.7" width="133.3" class="st19" y="187.3" x="1082.800015"/>
    <g id="svg_242">
     <rect id="svg_243" height="273.9" width="139.2" class="st20" y="214.3" x="1080.300015"/>
    </g>
    <g id="svg_244">
     <rect id="svg_245" height="35.7" width="29.6" class="st9" y="231.3" x="1093.700015"/>
     <path id="svg_246" d="m1122.90001,231.8l0,34.7l-28.59999,0l0,-34.7l28.59999,0m1,-1l-30.59999,0l0,36.7l30.59999,0l0,-36.7l0,0z" class="st10"/>
    </g>
    <line id="svg_247" y2="232" x2="1108.500015" y1="266" x1="1108.500015" class="st11"/>
    <line id="svg_248" y2="244.5" x2="1094.000015" y1="244.5" x1="1123.000015" class="st11"/>
    <line id="svg_249" y2="255.5" x2="1094.000015" y1="255.5" x1="1123.000015" class="st11"/>
    <g id="svg_250">
     <rect id="svg_251" height="35.7" width="29.6" class="st9" y="280.3" x="1093.700015"/>
     <path id="svg_252" d="m1122.90001,280.8l0,34.7l-28.59999,0l0,-34.7l28.59999,0m1,-1l-30.59999,0l0,36.7l30.59999,0l0,-36.7l0,0z" class="st10"/>
    </g>
    <line id="svg_253" y2="281" x2="1108.500015" y1="315" x1="1108.500015" class="st11"/>
    <line id="svg_254" y2="293.5" x2="1094.000015" y1="293.5" x1="1123.000015" class="st11"/>
    <line id="svg_255" y2="304.5" x2="1094.000015" y1="304.5" x1="1123.000015" class="st11"/>
    <g id="svg_256">
     <rect id="svg_257" height="35.7" width="29.6" class="st9" y="231.3" x="1135.100015"/>
     <path id="svg_258" d="m1164.20001,231.8l0,34.7l-28.6,0l0,-34.7l28.6,0m1,-1l-30.6,0l0,36.7l30.6,0l0,-36.7l0,0z" class="st10"/>
    </g>
    <line id="svg_259" y2="232" x2="1149.500015" y1="266" x1="1149.500015" class="st11"/>
    <line id="svg_260" y2="244.5" x2="1135.000015" y1="244.5" x1="1164.000015" class="st11"/>
    <line id="svg_261" y2="255.5" x2="1135.000015" y1="255.5" x1="1164.000015" class="st11"/>
    <g id="svg_262">
     <rect id="svg_263" height="35.7" width="29.6" class="st9" y="280.3" x="1135.100015"/>
     <path id="svg_264" d="m1164.20001,280.8l0,34.7l-28.6,0l0,-34.7l28.6,0m1,-1l-30.6,0l0,36.7l30.6,0l0,-36.7l0,0z" class="st10"/>
    </g>
    <line id="svg_265" y2="281" x2="1149.500015" y1="315" x1="1149.500015" class="st11"/>
    <line id="svg_266" y2="293.5" x2="1135.000015" y1="293.5" x1="1164.000015" class="st11"/>
    <line id="svg_267" y2="304.5" x2="1135.000015" y1="304.5" x1="1164.000015" class="st11"/>
    <g id="svg_268">
     <rect id="svg_269" height="35.7" width="29.6" class="st9" y="231.3" x="1176.500015"/>
     <path id="svg_270" d="m1205.60001,231.8l0,34.7l-28.59999,0l0,-34.7l28.59999,0m1,-1l-30.59999,0l0,36.7l30.59999,0l0,-36.7l0,0z" class="st10"/>
    </g>
    <line id="svg_271" y2="232" x2="1190.500015" y1="266" x1="1190.500015" class="st11"/>
    <line id="svg_272" y2="244.5" x2="1177.000015" y1="244.5" x1="1206.000015" class="st11"/>
    <line id="svg_273" y2="255.5" x2="1177.000015" y1="255.5" x1="1206.000015" class="st11"/>
    <g id="svg_274">
     <rect id="svg_275" height="35.7" width="29.6" class="st9" y="280.3" x="1176.500015"/>
     <path id="svg_276" d="m1205.60001,280.8l0,34.7l-28.59999,0l0,-34.7l28.59999,0m1,-1l-30.59999,0l0,36.7l30.59999,0l0,-36.7l0,0z" class="st10"/>
    </g>
    <line id="svg_277" y2="281" x2="1190.500015" y1="315" x1="1190.500015" class="st11"/>
    <line id="svg_278" y2="293.5" x2="1177.000015" y1="293.5" x1="1206.000015" class="st11"/>
    <line id="svg_279" y2="304.5" x2="1177.000015" y1="304.5" x1="1206.000015" class="st11"/>
    <rect id="svg_280" height="35.6" width="5.8" class="st10" y="187.3" x="1080.400015"/>
    <rect id="svg_281" height="35.6" width="5.8" class="st10" y="187.3" x="1213.700015"/>
    <g id="svg_282">
     <rect id="svg_283" height="25.4" width="9.9" class="st20" y="166.1" x="1187.800015"/>
    </g>
    <rect id="svg_284" height="4.2" width="5.7" class="st7" y="161.9" x="1189.800015"/>
    <g id="svg_285">
     <rect id="svg_286" height="35.7" width="29.6" class="st9" y="330.8" x="1093.700015"/>
     <path id="svg_287" d="m1122.90001,331.3l0,34.7l-28.59999,0l0,-34.7l28.59999,0m1,-1l-30.59999,0l0,36.7l30.59999,0l0,-36.7l0,0z" class="st10"/>
    </g>
    <line id="svg_288" y2="332" x2="1108.500015" y1="366" x1="1108.500015" class="st11"/>
    <line id="svg_289" y2="344.5" x2="1094.000015" y1="344.5" x1="1123.000015" class="st11"/>
    <line id="svg_290" y2="355.5" x2="1094.000015" y1="355.5" x1="1123.000015" class="st11"/>
    <g id="svg_291">
     <rect id="svg_292" height="35.7" width="29.6" class="st9" y="330.8" x="1135.100015"/>
     <path id="svg_293" d="m1164.20001,331.3l0,34.7l-28.6,0l0,-34.7l28.6,0m1,-1l-30.6,0l0,36.7l30.6,0l0,-36.7l0,0z" class="st10"/>
    </g>
    <line id="svg_294" y2="332" x2="1149.500015" y1="366" x1="1149.500015" class="st11"/>
    <line id="svg_295" y2="344.5" x2="1135.000015" y1="344.5" x1="1164.000015" class="st11"/>
    <line id="svg_296" y2="355.5" x2="1135.000015" y1="355.5" x1="1164.000015" class="st11"/>
    <g id="svg_297">
     <rect id="svg_298" height="35.7" width="29.6" class="st9" y="330.8" x="1176.500015"/>
     <path id="svg_299" d="m1205.60001,331.3l0,34.7l-28.59999,0l0,-34.7l28.59999,0m1,-1l-30.59999,0l0,36.7l30.59999,0l0,-36.7l0,0z" class="st10"/>
    </g>
    <line id="svg_300" y2="332" x2="1190.500015" y1="366" x1="1190.500015" class="st11"/>
    <line id="svg_301" y2="344.5" x2="1177.000015" y1="344.5" x1="1206.000015" class="st11"/>
    <line id="svg_302" y2="355.5" x2="1177.000015" y1="355.5" x1="1206.000015" class="st11"/>
    <g id="svg_303">
     <rect id="svg_304" height="35.7" width="29.6" class="st9" y="380.3" x="1093.700015"/>
     <path id="svg_305" d="m1122.90001,380.8l0,34.7l-28.59999,0l0,-34.7l28.59999,0m1,-1l-30.59999,0l0,36.7l30.59999,0l0,-36.7l0,0z" class="st10"/>
    </g>
    <line id="svg_306" y2="381" x2="1108.500015" y1="415" x1="1108.500015" class="st11"/>
    <line id="svg_307" y2="393.5" x2="1094.000015" y1="393.5" x1="1123.000015" class="st11"/>
    <line id="svg_308" y2="404.5" x2="1094.000015" y1="404.5" x1="1123.000015" class="st11"/>
    <g id="svg_309">
     <rect id="svg_310" height="35.7" width="29.6" class="st9" y="380.3" x="1135.100015"/>
     <path id="svg_311" d="m1164.20001,380.8l0,34.7l-28.6,0l0,-34.7l28.6,0m1,-1l-30.6,0l0,36.7l30.6,0l0,-36.7l0,0z" class="st10"/>
    </g>
    <line id="svg_312" y2="381" x2="1149.500015" y1="415" x1="1149.500015" class="st11"/>
    <line id="svg_313" y2="393.5" x2="1135.000015" y1="393.5" x1="1164.000015" class="st11"/>
    <line id="svg_314" y2="404.5" x2="1135.000015" y1="404.5" x1="1164.000015" class="st11"/>
    <g id="svg_315">
     <rect id="svg_316" height="35.7" width="29.6" class="st9" y="380.3" x="1176.500015"/>
     <path id="svg_317" d="m1205.60001,380.8l0,34.7l-28.59999,0l0,-34.7l28.59999,0m1,-1l-30.59999,0l0,36.7l30.59999,0l0,-36.7l0,0z" class="st10"/>
    </g>
    <line id="svg_318" y2="381" x2="1190.500015" y1="415" x1="1190.500015" class="st11"/>
    <line id="svg_319" y2="393.5" x2="1177.000015" y1="393.5" x1="1206.000015" class="st11"/>
    <line id="svg_320" y2="404.5" x2="1177.000015" y1="404.5" x1="1206.000015" class="st11"/>
    <g id="svg_321">
     <rect id="svg_322" height="35.7" width="29.6" class="st9" y="430.8" x="1093.700015"/>
     <path id="svg_323" d="m1122.90001,431.3l0,34.7l-28.59999,0l0,-34.7l28.59999,0m1,-1l-30.59999,0l0,36.7l30.59999,0l0,-36.7l0,0z" class="st10"/>
    </g>
    <line id="svg_324" y2="432" x2="1108.500015" y1="466" x1="1108.500015" class="st11"/>
    <line id="svg_325" y2="444.5" x2="1094.000015" y1="444.5" x1="1123.000015" class="st11"/>
    <line id="svg_326" y2="455.5" x2="1094.000015" y1="455.5" x1="1123.000015" class="st11"/>
    <g id="svg_327">
     <rect id="svg_328" height="35.7" width="29.6" class="st9" y="430.8" x="1135.100015"/>
     <path id="svg_329" d="m1164.20001,431.3l0,34.7l-28.6,0l0,-34.7l28.6,0m1,-1l-30.6,0l0,36.7l30.6,0l0,-36.7l0,0z" class="st10"/>
    </g>
    <line id="svg_330" y2="432" x2="1149.500015" y1="466" x1="1149.500015" class="st11"/>
    <line id="svg_331" y2="444.5" x2="1135.000015" y1="444.5" x1="1164.000015" class="st11"/>
    <line id="svg_332" y2="455.5" x2="1135.000015" y1="455.5" x1="1164.000015" class="st11"/>
    <g id="svg_333">
     <rect id="svg_334" height="35.7" width="29.6" class="st9" y="430.8" x="1176.500015"/>
     <path id="svg_335" d="m1205.60001,431.3l0,34.7l-28.59999,0l0,-34.7l28.59999,0m1,-1l-30.59999,0l0,36.7l30.59999,0l0,-36.7l0,0z" class="st10"/>
    </g>
    <line id="svg_336" y2="432" x2="1190.500015" y1="466" x1="1190.500015" class="st11"/>
    <line id="svg_337" y2="444.5" x2="1177.000015" y1="444.5" x1="1206.000015" class="st11"/>
    <line id="svg_338" y2="455.5" x2="1177.000015" y1="455.5" x1="1206.000015" class="st11"/>
   </g>
   <g id="building_4">
    <rect id="svg_339" height="36.9" width="62.1" class="st21" y="247.3" x="1217.500015"/>
    <g id="svg_340">
     <rect id="svg_341" height="205.5" width="64.8" class="st22" y="283.3" x="1217.300015"/>
    </g>
    <g id="svg_342">
     <rect id="svg_343" height="46.2" width="16.6" class="st9" y="303.7" x="1227.200015"/>
     <path id="svg_344" d="m1243.30002,304.2l0,45.2l-15.6,0l0,-45.2l15.6,0m1,-1l-17.6,0l0,47.2l17.6,0l0,-47.2l0,0z" class="st10"/>
    </g>
    <line id="svg_345" y2="305" x2="1235.500015" y1="349" x1="1235.500015" class="st11"/>
    <line id="svg_346" y2="320.5" x2="1227.000015" y1="320.5" x1="1244.000015" class="st11"/>
    <line id="svg_347" y2="335.5" x2="1227.000015" y1="335.5" x1="1244.000015" class="st11"/>
    <g id="svg_348">
     <rect id="svg_349" height="46.2" width="16.6" class="st9" y="366.8" x="1227.200015"/>
     <path id="svg_350" d="m1243.30002,367.3l0,45.2l-15.6,0l0,-45.2l15.6,0m1,-1l-17.6,0l0,47.2l17.6,0l0,-47.2l0,0z" class="st10"/>
    </g>
    <line id="svg_351" y2="368" x2="1235.500015" y1="412" x1="1235.500015" class="st11"/>
    <line id="svg_352" y2="383.5" x2="1227.000015" y1="383.5" x1="1244.000015" class="st11"/>
    <line id="svg_353" y2="398.5" x2="1227.000015" y1="398.5" x1="1244.000015" class="st11"/>
    <g id="svg_354">
     <rect id="svg_355" height="46.2" width="16.6" class="st9" y="303.7" x="1257.300015"/>
     <path id="svg_356" d="m1273.40001,304.2l0,45.2l-15.59999,0l0,-45.2l15.59999,0m1,-1l-17.59999,0l0,47.2l17.59999,0l0,-47.2l0,0z" class="st10"/>
    </g>
    <line id="svg_357" y2="305" x2="1264.500015" y1="349" x1="1264.500015" class="st11"/>
    <line id="svg_358" y2="320.5" x2="1257.000015" y1="320.5" x1="1273.000015" class="st11"/>
    <line id="svg_359" y2="335.5" x2="1257.000015" y1="335.5" x1="1273.000015" class="st11"/>
    <g id="svg_360">
     <rect id="svg_361" height="46.2" width="16.6" class="st9" y="366.8" x="1257.300015"/>
     <path id="svg_362" d="m1273.40001,367.3l0,45.2l-15.59999,0l0,-45.2l15.59999,0m1,-1l-17.59999,0l0,47.2l17.59999,0l0,-47.2l0,0z" class="st10"/>
    </g>
    <line id="svg_363" y2="368" x2="1264.500015" y1="412" x1="1264.500015" class="st11"/>
    <line id="svg_364" y2="383.5" x2="1257.000015" y1="383.5" x1="1273.000015" class="st11"/>
    <line id="svg_365" y2="398.5" x2="1257.000015" y1="398.5" x1="1273.000015" class="st11"/>
    <rect id="svg_366" height="39.8" width="4.2" class="st10" y="246.6" x="1217.300015"/>
    <rect id="svg_367" height="39.8" width="4.7" class="st10" y="246.5" x="1277.400015"/>
    <g id="svg_368">
     <rect id="svg_369" height="16.3" width="5.6" class="st22" y="237.6" x="1267.600015"/>
    </g>
    <rect id="svg_370" height="2.7" width="3.2" class="st21" y="234.9" x="1268.700015"/>
    <g id="svg_371">
     <rect id="svg_372" height="46.2" width="16.6" class="st9" y="431.8" x="1227.200015"/>
     <path id="svg_373" d="m1243.30002,432.3l0,45.2l-15.6,0l0,-45.2l15.6,0m1,-1l-17.6,0l0,47.2l17.6,0l0,-47.2l0,0z" class="st10"/>
    </g>
    <line id="svg_374" y2="433" x2="1235.500015" y1="477" x1="1235.500015" class="st11"/>
    <line id="svg_375" y2="449.5" x2="1227.000015" y1="449.5" x1="1244.000015" class="st11"/>
    <line id="svg_376" y2="463.5" x2="1227.000015" y1="463.5" x1="1244.000015" class="st11"/>
    <g id="svg_377">
     <rect id="svg_378" height="46.2" width="16.6" class="st9" y="431.8" x="1257.300015"/>
     <path id="svg_379" d="m1273.40001,432.3l0,45.2l-15.59999,0l0,-45.2l15.59999,0m1,-1l-17.59999,0l0,47.2l17.59999,0l0,-47.2l0,0z" class="st10"/>
    </g>
    <line id="svg_380" y2="433" x2="1264.500015" y1="477" x1="1264.500015" class="st11"/>
    <line id="svg_381" y2="449.5" x2="1257.000015" y1="449.5" x1="1273.000015" class="st11"/>
    <line id="svg_382" y2="463.5" x2="1257.000015" y1="463.5" x1="1273.000015" class="st11"/>
   </g>
   <g id="building_4_1_">
    <rect id="svg_383" height="29.4" width="133.3" class="st23" y="376.9" x="898.800015"/>
    <g id="svg_384">
     <rect id="svg_385" height="65.8" width="139.2" class="st24" y="404.5" x="896.300015"/>
    </g>
    <g id="svg_386">
     <rect id="svg_387" height="36.6" width="29.6" class="st9" y="421.9" x="909.700015"/>
     <path id="svg_388" d="m938.90002,422.4l0,35.6l-28.6,0l0,-35.6l28.6,0m1,-1l-30.6,0l0,37.6l30.6,0l0,-37.6l0,0z" class="st10"/>
    </g>
    <line id="svg_389" y2="423" x2="924.500015" y1="457" x1="924.500015" class="st11"/>
    <line id="svg_390" y2="435.5" x2="910.000015" y1="435.5" x1="939.000015" class="st11"/>
    <line id="svg_391" y2="446.5" x2="910.000015" y1="446.5" x1="939.000015" class="st11"/>
    <g id="svg_392">
     <rect id="svg_393" height="36.6" width="29.6" class="st9" y="421.9" x="951.100015"/>
     <path id="svg_394" d="m980.20002,422.4l0,35.6l-28.60001,0l0,-35.6l28.60001,0m1,-1l-30.60001,0l0,37.6l30.60001,0l0,-37.6l0,0z" class="st10"/>
    </g>
    <line id="svg_395" y2="423" x2="965.500015" y1="457" x1="965.500015" class="st11"/>
    <line id="svg_396" y2="435.5" x2="951.000015" y1="435.5" x1="980.000015" class="st11"/>
    <line id="svg_397" y2="446.5" x2="951.000015" y1="446.5" x1="980.000015" class="st11"/>
    <g id="svg_398">
     <rect id="svg_399" height="36.6" width="29.6" class="st9" y="421.9" x="992.500015"/>
     <path id="svg_400" d="m1021.60001,422.4l0,35.6l-28.6,0l0,-35.6l28.6,0m1,-1l-30.6,0l0,37.6l30.6,0l0,-37.6l0,0z" class="st10"/>
    </g>
    <line id="svg_401" y2="423" x2="1006.500015" y1="457" x1="1006.500015" class="st11"/>
    <line id="svg_402" y2="435.5" x2="993.000015" y1="435.5" x1="1022.000015" class="st11"/>
    <line id="svg_403" y2="446.5" x2="993.000015" y1="446.5" x1="1022.000015" class="st11"/>
    <rect id="svg_404" height="36.5" width="5.8" class="st10" y="376.9" x="896.400015"/>
    <rect id="svg_405" height="36.5" width="5.8" class="st10" y="376.9" x="1029.700015"/>
    <g id="svg_406">
     <rect id="svg_407" height="26" width="9.9" class="st24" y="355.2" x="1003.800015"/>
    </g>
    <rect id="svg_408" height="4.3" width="5.7" y="350.9" x="1005.800015"/>
    <rect id="svg_409" height="15.1" width="139.5" class="st23" y="470.3" x="896.300015"/>
   </g>
   <g id="cars">
    <path id="svg_410" d="m275.00002,546l135,0c0,0 6.6,-8 0,-20l-30,0l-16.5,-22l-51.5,0l-22.2,21l-18.8,0l0,21" class="st25"/>
    <polygon id="svg_411" points="363.5,504 359.70001220703125,509.20001220703125 373.3999938964844,528.7000122070312 380,526 " class="st10"/>
    <circle id="svg_412" r="12.5" cy="545.6" cx="317.400015" class="st26"/>
    <circle id="svg_413" r="12.5" cy="545.6" cx="370.700015" class="st26"/>
    <polygon id="svg_414" points="311,504 315.6000061035156,508.3999938964844 296.1000061035156,526.5 288.79998779296875,525 " class="st10"/>
    <polygon id="svg_415" points="316.6000061035156,508.3999938964844 337.79998779296875,508.79998779296875 359.70001220703125,509.20001220703125 363.5,504 312,504 " class="st27"/>
    <path id="svg_416" d="m337.00002,526.5l0.39999,-17.7l22.10001,0.4l13.89999,19.5l-9.8,6.6c0,0 -6,2.1 -5.7,10.2l-20.89999,0.5l0,-19.5z" class="st27"/>
    <rect id="svg_417" height="2" width="5" class="st28" y="527" x="339.000015"/>
    <path id="svg_418" d="m342.00002,525l22,0l-6.9,-12.9c0,0 -6.8,-5.5 -15.1,0l0,12.9z" class="st10"/>
    <ellipse id="svg_419" ry="6.1" rx="6.1" cy="560.955058" cx="303.063246" class="st29" transform="matrix(0.1594,-0.9872,0.9872,0.1594,-284.6076,755.7101) "/>
    <ellipse id="svg_420" ry="6.1" rx="6.1" cy="552.842088" cx="368.450649" class="st29" transform="matrix(0.8881,-0.4596,0.4596,0.8881,-210.6154,223.9476) "/>
    <path id="svg_421" d="m314.50002,508.6l-20.5,17.9l0,19.5l9.89999,0.6c0,0 0.2,-14.6 13,-13.5s12.7,12.5 12.7,12.5l8.3,0.4l-0.5,-37.2l-22.89999,-0.2z" class="st27"/>
    <path id="svg_422" d="m332.00002,525l-24.9,0l10.1,-12.1c0,0 7.8,-7.7 14.8,0l0,12.1z" class="st10"/>
    <path id="svg_423" d="m827.00001,503l135,0c0,0 6.6,-8 0,-20l-30,0l-16.5,-22l-51.5,0l-22.2,21l-18.8,0l0,21" class="st30"/>
    <polygon id="svg_424" points="915.5,461 911.7000122070312,466.20001220703125 925.4000244140625,485.70001220703125 932,483 " class="st10"/>
    <circle id="svg_425" r="12.5" cy="502.6" cx="869.400015" class="st26"/>
    <circle id="svg_426" r="12.5" cy="502.6" cx="922.700015" class="st26"/>
    <polygon id="svg_427" points="863,461 867.5999755859375,465.3999938964844 848.0999755859375,483.5 840.7999877929688,482 " class="st10"/>
    <polygon id="svg_428" points="868.5999755859375,465.3999938964844 889.7999877929688,465.79998779296875 911.7000122070312,466.20001220703125 915.5,461 864,461 " class="st31"/>
    <path id="svg_429" d="m889.00001,483.5l0.4,-17.7l22.1,0.4l13.9,19.5l-9.8,6.6c0,0 -6,2.1 -5.7,10.2l-20.9,0.5l0,-19.5z" class="st31"/>
    <rect id="svg_430" height="2" width="5" class="st28" y="484" x="891.000015"/>
    <path id="svg_431" d="m894.00001,482l22,0l-6.9,-12.9c0,0 -6.79999,-5.5 -15.1,0l0,12.9z" class="st10"/>
    <ellipse id="svg_432" ry="6.1" rx="6.1" cy="517.955058" cx="854.963246" class="st29" transform="matrix(0.1594,-0.9872,0.9872,0.1594,221.8025,1264.4611) "/>
    <ellipse id="svg_433" ry="6.1" rx="6.1" cy="509.842088" cx="920.450649" class="st29" transform="matrix(0.8881,-0.4596,0.4596,0.8881,-129.0966,472.8362) "/>
    <path id="svg_434" d="m866.50001,465.6l-20.5,17.9l0,19.5l9.9,0.6c0,0 0.2,-14.6 13,-13.5s12.7,12.5 12.7,12.5l8.3,0.4l-0.5,-37.2l-22.9,-0.2z" class="st31"/>
    <path id="svg_435" d="m884.00001,482l-24.9,0l10.10001,-12.1c0,0 7.79999,-7.7 14.79999,0l0,12.1l0,0z" class="st10"/>
   </g>
  </g>
  <g id="trees">
   <g id="svg_436">
    <polygon id="svg_437" points="399,414 399,354.6000061035156 398.6000061035156,353.70001220703125 368,455 398,455 398,414 " class="st3"/>
    <polygon id="svg_438" points="429.6000061035156,455 399,353.3999938964844 399,354.6000061035156 399,414 400,414 400,455 429.29998779296875,455 " class="st32"/>
    <g id="svg_439">
     <polygon id="svg_440" points="399,414 398,414 398,454.5 398,487 400,487 400,454.5 400,414 " class="st33"/>
    </g>
   </g>
   <g id="svg_446">
    <g id="svg_447">
     <path id="svg_448" d="m1281.50002,425.9l2.09999,-2l12.40001,12.7l0,-13.6l1,0l0,-39.9c-17,0 -31.1,14.2 -31.1,31.7c0,17.1 13.1,31 30.1,31.7l0,-5.9l-14.5,-14.7z" class="st34"/>
    </g>
    <g id="svg_449">
     <path id="svg_450" d="m1328.10001,414.8c0,-17.5 -14.09999,-31.7 -31.09999,-31.7l0,39.9l1,0l0,6.6l12.4,-12.7l1.9,2l-14.3,14.7l0,12.9c17,-0.7 30.1,-14.6 30.1,-31.7l-0.00001,0z" class="st35"/>
    </g>
    <g id="svg_451">
     <polygon id="svg_452" points="1298,433.6000061035156 1312.300048828125,418.8999938964844 1310.300048828125,416.8999938964844 1298,429.6000061035156 1298,423 1296.9000244140625,423 1296,423 1296,436.6000061035156 1283.5,423.8999938964844 1281.699951171875,425.8999938964844 1296,440.6000061035156 1296,446.5 1296,490 1298,490 1298,446.5 " class="st33"/>
    </g>
   </g>
   <g id="svg_453">
    <g id="svg_454">
     <path id="svg_455" d="m238.60002,423.1l2,-2l12.4,12.7l0,-13.8l1,0l0,-39.7c-17.3,0 -31.1,14.2 -31.1,31.7c0,17.1 13.1,31 30.1,31.7l0,-5.9l-14.4,-14.7z" class="st34"/>
    </g>
    <g id="svg_456">
     <path id="svg_457" d="m285.10001,412.1c0,-17.5 -13.8,-31.7 -31.1,-31.7l0,39.6l1,0l0,6.9l12.5,-12.7l1.8,2l-14.3,14.7l0,12.9c17,-0.7 30.1,-14.7 30.1,-31.7z" class="st35"/>
    </g>
    <g id="svg_458">
     <polygon id="svg_459" points="255.00001525878906,430.8999938964844 269.3999938964844,416.20001220703125 267.3999938964844,414.20001220703125 255.00001525878906,426.8999938964844 255.00001525878906,420 254.00001525878906,420 253.00001525878906,420 253.00001525878906,433.79998779296875 240.50001525878906,421.1000061035156 238.70001220703125,423.1000061035156 253.00001525878906,437.8999938964844 253.00001525878906,443.79998779296875 253.00001525878906,488 255.00001525878906,488 255.00001525878906,443.79998779296875 " class="st33"/>
    </g>
   </g>
   <g id="svg_460">
    <g id="svg_461">
     <path id="svg_462" d="m1036.60001,419.3l2,-2l12.40001,12.7l0,-14l1,0l0,-39.5c-17,0 -31.1,14.2 -31.1,31.7c0,17.1 13.1,31 30.1,31.7l0,-5.9l-14.40001,-14.7z" class="st34"/>
    </g>
    <g id="svg_463">
     <path id="svg_464" d="m1083.10001,408.2c0,-17.5 -14.09999,-31.7 -31.09999,-31.7l0,39.5l1,0l0,7l12.5,-12.7l1.8,2l-14.3,14.7l0,13c17,-0.8 30.09999,-14.7 30.09999,-31.8z" class="st35"/>
    </g>
    <g id="svg_465">
     <polygon id="svg_466" points="1053,427 1067.4000244140625,412.29998779296875 1065.4000244140625,410.29998779296875 1053,423 1053,416 1052,416 1051,416 1051,430 1038.5,417.29998779296875 1036.699951171875,419.29998779296875 1051,434 1051,440 1051,484 1053,484 1053,440 " class="st33"/>
    </g>
   </g>
   <g id="svg_467">
    <polygon id="svg_468" points="60.00001525878906,418 60.00001525878906,360.70001220703125 59.50001525878906,359.6000061035156 24.700016021728516,456 58.00001525878906,456 58.00001525878906,418 " class="st3"/>
    <polygon id="svg_469" points="94.30001831054688,456 60.00001525878906,359.6000061035156 60.00001525878906,360.70001220703125 60.00001525878906,418 61.00001525878906,418 61.00001525878906,456 93.90001678466797,456 " class="st32"/>
    <g id="svg_470">
     <polygon id="svg_471" points="59.70001220703125,418 58.00001525878906,418 58.00001525878906,456 58.00001525878906,487 61.00001525878906,487 61.00001525878906,456 61.00001525878906,418 " class="st33"/>
    </g>
   </g>
   <g id="svg_536">
    <g id="svg_537">
     <path id="svg_538" d="m344.80001,423.1l1.9,-2l12.3,12.7l0,-13.8l1,0l0,-39.7c-17,0 -31.1,14.2 -31.1,31.7c0,17.1 13.1,31 30.1,31.7l0,-5.9l-14.2,-14.7z" class="st34"/>
    </g>
    <g id="svg_539">
     <path id="svg_540" d="m391.60001,412.1c0,-17.5 -13.6,-31.7 -31.6,-31.7l0,39.6l2,0l0,6.9l12.2,-12.7l2,2l-14.2,14.7l0,12.9c16,-0.7 29.6,-14.7 29.6,-31.7z" class="st35"/>
    </g>
    <g id="svg_541">
     <polygon id="svg_542" points="362,430.8999938964844 376.1000061035156,416.20001220703125 374.20001220703125,414.20001220703125 362,426.8999938964844 362,420 360.3999938964844,420 359,420 359,433.79998779296875 346.70001220703125,421.1000061035156 344.79998779296875,423.1000061035156 359,437.8999938964844 359,443.79998779296875 359,488 362,488 362,443.79998779296875 " class="st33"/>
    </g>
   </g>
   <g id="svg_441">
    <polygon id="svg_442" points="748,417 748,357.20001220703125 747.5,356 716.7000122070312,457 747,457 747,417 " class="st3"/>
    <polygon id="svg_443" points="778.4000244140625,457 748,356.1000061035156 748,357.20001220703125 748,417 749,417 749,457 778.0999755859375,457 " class="st32"/>
    <g id="svg_444">
     <polygon id="svg_445" points="747.7999877929688,417 747,417 747,457.1000061035156 747,489 749,489 749,457.1000061035156 749,417 " class="st33"/>
    </g>
   </g>
   <g id="svg_585">
    <g id="svg_580">
     <path id="svg_579" d="m819.60001,418.3l2,-2l12.4,12.7l0,-14l1,0l0,-39.5c-17,0 -31.1,14.2 -31.1,31.7c0,17.1 13.1,31 30.1,31.7l0,-5.9l-14.4,-14.7z" class="st34"/>
    </g>
    <g id="svg_582">
     <path id="svg_581" d="m866.10001,407.2c0,-17.5 -14.1,-31.7 -31.1,-31.7l0,39.5l1,0l0,7l12.5,-12.7l1.8,2l-14.3,14.7l0,13c17,-0.8 30.1,-14.7 30.1,-31.8z" class="st35"/>
    </g>
    <g id="svg_584">
     <polygon id="svg_583" points="836,426 850.4000244140625,411.29998779296875 848.4000244140625,409.29998779296875 836,422 836,415 835,415 834,415 834,429 821.5,416.29998779296875 819.699951171875,418.29998779296875 834,433 834,439 834,483 836,483 836,439 " class="st33"/>
    </g>
   </g>
   <g id="svg_578">
    <g id="svg_573">
     <path id="svg_572" d="m781.60001,421.3l2,-2l12.4,12.7l0,-14l1,0l0,-39.5c-17,0 -31.1,14.2 -31.1,31.7c0,17.1 13.1,31 30.1,31.7l0,-5.9l-14.4,-14.7z" class="st34"/>
    </g>
    <g id="svg_575">
     <path id="svg_574" d="m828.10001,410.2c0,-17.5 -14.1,-31.7 -31.1,-31.7l0,39.5l1,0l0,7l12.5,-12.7l1.8,2l-14.3,14.7l0,13c17,-0.8 30.1,-14.7 30.1,-31.8z" class="st35"/>
    </g>
    <g id="svg_577">
     <polygon id="svg_576" points="798,429 812.4000244140625,414.29998779296875 810.4000244140625,412.29998779296875 798,425 798,418 797,418 796,418 796,432 783.5,419.29998779296875 781.699951171875,421.29998779296875 796,436 796,442 796,486 798,486 798,442 " class="st33"/>
    </g>
   </g>
  </g>
  <g id="svg_605">
   <path fill="#CE7975" stroke-width="0" stroke-opacity="null" d="m721.05429,39.533005l294.38544,0l30.56029,26.32758l-26.61702,24.75862l-320.39007,1l-0.49291,-52l22.55427,-0.0862z" id="svg_566" stroke="#000000"/>
   <rect fill="#CE7975" stroke-width="0" x="689.5" y="39.619205" width="44" height="52.000003" id="svg_602" stroke="#000000" rx="10"/>
  </g>
  <g id="svg_606">
   <path fill="#CE7975" stroke-width="0" stroke-opacity="null" d="m557.82285,103.9138l294.38544,0l30.56029,24.32758l-26.61702,26.75862l-320.39007,1l-0.49291,-52l22.55427,-0.0862z" id="svg_568" stroke="#000000" transform="rotate(180 709.0185546875,129.9569091796875) "/>
   <rect fill="#CE7975" stroke-width="0" x="847.5" y="104" width="44" height="52.000003" id="svg_603" stroke="#000000" rx="10"/>
  </g>
  <text transform="matrix(3.7244870356796396,0,0,3.729964935769714,-341.740818123776,-185.55491063953252) " fill="none" stroke-width="null" x="256.440958" y="87.279581" id="svg_588" font-size="10" font-family="'Courier New', Courier, monospace" text-anchor="start" xml:space="preserve" stroke="#ffffff">More Work</text>
  <text fill="none" stroke-width="null" x="312.746082" y="70.022251" id="svg_8" font-size="10" font-family="'Courier New', Courier, monospace" text-anchor="start" xml:space="preserve" stroke="#ffffff" transform="matrix(3.7244870356796396,0,0,3.729964935769714,-341.740818123776,-185.55491063953252) ">Work</text>
 </g>
</svg>